amirilatin-bold.sfdir
StartChar: numbersign
Encoding: 35 35 3
Width: 950
UnlinkRmOvrlpSave: 1
Flags: W
LayerCount: 2
Fore
SplineSet
816 678 m 1,0,1
 158 678 l 1,2,3
 148 683 148 683 150 711 c 128,-1,4
 152 739 152 739 165 773.5 c 128,-1,5
 178 808 178 808 190 812 c 1,6,-1
 842 812 l 1,7,8
 854 807 854 807 853.5 779.5 c 128,-1,9
 853 752 853 752 840.5 718 c 128,-1,10
 828 684 828 684 816 678 c 1,0,1
760 296 m 1,11,-1
 102 296 l 1,12,13
 92 301 92 301 94.5 329 c 128,-1,14
 97 357 97 357 110.5 391.5 c 128,-1,15
 124 426 124 426 136 430 c 1,16,-1
 788 430 l 1,17,18
 800 425 800 425 799 397.5 c 128,-1,19
 798 370 798 370 785 336 c 128,-1,20
 772 302 772 302 760 296 c 1,11,-1
758 1056 m 1,21,-1
 600 72 l 2,22,23
 598 65 598 65 578.5 55.5 c 128,-1,24
 559 46 559 46 538 46 c 0,25,26
 529 46 529 46 523.5 48 c 128,-1,27
 518 50 518 50 517 52 c 2,28,-1
 516 54 l 1,29,-1
 674 1036 l 1,30,31
 683 1062 683 1062 732 1062 c 0,32,33
 749 1062 749 1062 758 1056 c 1,21,-1
436 1056 m 1,34,-1
 276 72 l 2,35,36
 274 65 274 65 255 55.5 c 128,-1,37
 236 46 236 46 216 46 c 0,38,39
 207 46 207 46 201.5 48 c 128,-1,40
 196 50 196 50 195 52 c 2,41,-1
 194 54 l 1,42,-1
 352 1036 l 1,43,44
 361 1062 361 1062 410 1062 c 0,45,46
 427 1062 427 1062 436 1056 c 1,34,-1
EndSplineSet
EndChar
StartChar: dollar
Encoding: 36 36 4
Width: 1036
UnlinkRmOvrlpSave: 1
Flags: W
LayerCount: 2
Fore
SplineSet
530 1282 m 0,0,1
 569 1282 569 1282 613 1276.5 c 128,-1,2
 657 1271 657 1271 687.5 1264.5 c 128,-1,3
 718 1258 718 1258 771 1246 c 128,-1,4
 824 1234 824 1234 852 1228 c 1,5,6
 860 1151 860 1151 872 910 c 1,7,8
 864 900 864 900 852 900 c 0,9,10
 797 900 797 900 794 912 c 1,11,12
 788 955 788 955 768 1003 c 128,-1,13
 748 1051 748 1051 717 1097 c 128,-1,14
 686 1143 686 1143 639 1172.5 c 128,-1,15
 592 1202 592 1202 540 1202 c 0,16,17
 474 1202 474 1202 425 1162.5 c 128,-1,18
 376 1123 376 1123 376 1036 c 0,19,20
 376 899 376 899 654 722 c 0,21,22
 671 711 671 711 702.5 692.5 c 128,-1,23
 734 674 734 674 752.5 662.5 c 128,-1,24
 771 651 771 651 799 630.5 c 128,-1,25
 827 610 827 610 843.5 592.5 c 128,-1,26
 860 575 860 575 880 547 c 128,-1,27
 900 519 900 519 910.5 490 c 128,-1,28
 921 461 921 461 928.5 420.5 c 128,-1,29
 936 380 936 380 936 334 c 0,30,31
 936 233 936 233 875 150.5 c 128,-1,32
 814 68 814 68 719 24 c 128,-1,33
 624 -20 624 -20 518 -20 c 0,34,35
 373 -20 373 -20 154 30 c 1,36,37
 141 86 141 86 126.5 194.5 c 128,-1,38
 112 303 112 303 108 356 c 1,39,40
 113 364 113 364 134 373 c 128,-1,41
 155 382 155 382 164 382 c 0,42,43
 185 382 185 382 188 366 c 0,44,45
 195 325 195 325 220.5 274 c 128,-1,46
 246 223 246 223 284.5 174.5 c 128,-1,47
 323 126 323 126 380 93 c 128,-1,48
 437 60 437 60 498 60 c 0,49,50
 529 60 529 60 558 68.5 c 128,-1,51
 587 77 587 77 617 96 c 128,-1,52
 647 115 647 115 665.5 154 c 128,-1,53
 684 193 684 193 684 248 c 0,54,55
 684 284 684 284 668.5 320 c 128,-1,56
 653 356 653 356 634 381 c 128,-1,57
 615 406 615 406 577.5 438 c 128,-1,58
 540 470 540 470 519.5 485 c 128,-1,59
 499 500 499 500 455 529 c 128,-1,60
 411 558 411 558 402 564 c 0,61,62
 285.538766999 642.195399301 285.538766999 642.195399301 254.315538607 668.237664875 c 0,63,64
 143.267892287 760.858846153 143.267892287 760.858846153 125.803068168 881.261874588 c 0,65,66
 122 907.480342154 122 907.480342154 122 936 c 0,67,68
 122 1031 122 1031 183 1112 c 128,-1,69
 244 1193 244 1193 337.5 1237.5 c 128,-1,70
 431 1282 431 1282 530 1282 c 0,0,1
576 1336 m 17,71,72
 654 1336 654 1336 654 1320 c 1,73,-1
 426 -80 l 1,74,75
 404 -80 404 -80 376 -75.5 c 128,-1,76
 348 -71 348 -71 348 -62 c 1,77,-1
 576 1336 l 17,71,72
EndSplineSet
EndChar
StartChar: percent
Encoding: 37 37 5
Width: 1372
Flags: W
LayerCount: 2
Fore
SplineSet
374 1222 m 3,0,1
 339 1222 339 1222 316.5 1202 c 128,-1,2
 294 1182 294 1182 284 1145.5 c 128,-1,3
 274 1109 274 1109 271 1076.5 c 128,-1,4
 268 1044 268 1044 268 1000 c 0,5,6
 268 937 268 937 281.5 879.5 c 128,-1,7
 295 822 295 822 327.5 779 c 128,-1,8
 360 736 360 736 406 736 c 0,9,10
 441 736 441 736 464 755.5 c 128,-1,11
 487 775 487 775 497 811 c 128,-1,12
 507 847 507 847 510.5 879 c 128,-1,13
 514 911 514 911 514 954 c 0,14,15
 514 1017 514 1017 500 1076 c 128,-1,16
 486 1135 486 1135 453 1178.5 c 128,-1,17
 420 1222 420 1222 374 1222 c 3,0,1
390 1282 m 0,18,19
 527 1282 527 1282 615.5 1197 c 128,-1,20
 704 1112 704 1112 704 984 c 0,21,22
 704 857 704 857 613.5 765.5 c 128,-1,23
 523 674 523 674 392 674 c 0,24,25
 254 674 254 674 166 760 c 128,-1,26
 78 846 78 846 78 974 c 0,27,28
 78 1101 78 1101 168.5 1191.5 c 128,-1,29
 259 1282 259 1282 390 1282 c 0,18,19
968 548 m 3,30,31
 933 548 933 548 910.5 528 c 128,-1,32
 888 508 888 508 878 471.5 c 128,-1,33
 868 435 868 435 865 402.5 c 128,-1,34
 862 370 862 370 862 326 c 0,35,36
 862 263 862 263 875.5 205.5 c 128,-1,37
 889 148 889 148 921.5 105 c 128,-1,38
 954 62 954 62 1000 62 c 0,39,40
 1035 62 1035 62 1058 81.5 c 128,-1,41
 1081 101 1081 101 1091 137 c 128,-1,42
 1101 173 1101 173 1104.5 205 c 128,-1,43
 1108 237 1108 237 1108 280 c 0,44,45
 1108 343 1108 343 1094 402 c 128,-1,46
 1080 461 1080 461 1047 504.5 c 128,-1,47
 1014 548 1014 548 968 548 c 3,30,31
984 608 m 0,48,49
 1121 608 1121 608 1209.5 523 c 128,-1,50
 1298 438 1298 438 1298 310 c 0,51,52
 1298 183 1298 183 1207.5 91.5 c 128,-1,53
 1117 0 1117 0 986 0 c 0,54,55
 848 0 848 0 760 86 c 128,-1,56
 672 172 672 172 672 300 c 0,57,58
 672 427 672 427 762.5 517.5 c 128,-1,59
 853 608 853 608 984 608 c 0,48,49
1246 1270 m 1,60,-1
 214 -10 l 2,61,62
 207 -20 207 -20 181.5 -30 c 128,-1,63
 156 -40 156 -40 132 -40 c 0,64,65
 119 -40 119 -40 111.5 -34 c 128,-1,66
 104 -28 104 -28 103 -22 c 2,67,-1
 102 -16 l 1,68,-1
 1134 1264 l 1,69,70
 1164 1290 1164 1290 1214 1290 c 0,71,72
 1227 1290 1227 1290 1236.5 1284 c 128,-1,73
 1246 1278 1246 1278 1246 1270 c 1,60,-1
EndSplineSet
EndChar
StartChar: ampersand
Encoding: 38 38 6
Width: 1392
Flags: W
LayerCount: 2
Fore
SplineSet
764 190 m 1,0,1
 615 393 615 393 448 626 c 1,2,3
 372 560 372 560 372 440 c 0,4,5
 372 389 372 389 388 338 c 128,-1,6
 404 287 404 287 435 243 c 128,-1,7
 466 199 466 199 518.5 171.5 c 128,-1,8
 571 144 571 144 636 144 c 0,9,10
 710 144 710 144 764 190 c 1,0,1
624 1218 m 0,11,12
 572 1218 572 1218 541 1171.5 c 128,-1,13
 510 1125 510 1125 510 1052 c 0,14,15
 510 947 510 947 608 814 c 1,16,17
 738 882 738 882 738 1026 c 0,18,19
 738 1053 738 1053 732.5 1083.5 c 128,-1,20
 727 1114 727 1114 715 1145.5 c 128,-1,21
 703 1177 703 1177 679.5 1197.5 c 128,-1,22
 656 1218 656 1218 624 1218 c 0,11,12
590 1290 m 0,23,24
 744 1290 744 1290 844 1226 c 128,-1,25
 944 1162 944 1162 944 1058 c 0,26,27
 944 994 944 994 917.5 939 c 128,-1,28
 891 884 891 884 846.5 846 c 128,-1,29
 802 808 802 808 756.5 783 c 128,-1,30
 711 758 711 758 660 740 c 1,31,32
 687 704 687 704 797.5 554 c 128,-1,33
 908 404 908 404 940 362 c 1,34,35
 946 369 946 369 961.5 387 c 128,-1,36
 977 405 977 405 985.5 415 c 128,-1,37
 994 425 994 425 1008 441.5 c 128,-1,38
 1022 458 1022 458 1029.5 468.5 c 128,-1,39
 1037 479 1037 479 1045.5 491 c 128,-1,40
 1054 503 1054 503 1058 511 c 128,-1,41
 1062 519 1062 519 1062 524 c 0,42,43
 1062 544 1062 544 1042 552 c 128,-1,44
 1022 560 1022 560 993.5 560 c 128,-1,45
 965 560 965 560 964 560 c 0,46,47
 958 569 958 569 958.5 595 c 128,-1,48
 959 621 959 621 966 624 c 1,49,-1
 1102 622 l 2,50,51
 1176 620 1176 620 1358 628 c 1,52,53
 1364 625 1364 625 1363.5 598 c 128,-1,54
 1363 571 1363 571 1354 562 c 0,55,56
 1353 562 1353 562 1332 560.5 c 128,-1,57
 1311 559 1311 559 1292 557 c 128,-1,58
 1273 555 1273 555 1250.5 548.5 c 128,-1,59
 1228 542 1228 542 1216 532 c 128,-1,60
 1204 522 1204 522 1161.5 474.5 c 128,-1,61
 1119 427 1119 427 1068 369.5 c 128,-1,62
 1017 312 1017 312 996 290 c 1,63,-1
 1008.5 275.5 l 2,64,65
 1021 261 1021 261 1031 249 c 128,-1,66
 1041 237 1041 237 1058.5 219.5 c 128,-1,67
 1076 202 1076 202 1089.5 190 c 128,-1,68
 1103 178 1103 178 1118.5 169 c 128,-1,69
 1134 160 1134 160 1144 160 c 0,70,71
 1157 160 1157 160 1171.5 166.5 c 128,-1,72
 1186 173 1186 173 1197 181 c 128,-1,73
 1208 189 1208 189 1221 203 c 128,-1,74
 1234 217 1234 217 1241 225.5 c 128,-1,75
 1248 234 1248 234 1259 248.5 c 128,-1,76
 1270 263 1270 263 1272 266 c 1,77,78
 1285 266 1285 266 1299.5 255.5 c 128,-1,79
 1314 245 1314 245 1322 230 c 1,80,81
 1318 219 1318 219 1291 183 c 128,-1,82
 1264 147 1264 147 1224.5 103.5 c 128,-1,83
 1185 60 1185 60 1133 27 c 128,-1,84
 1081 -6 1081 -6 1038 -6 c 0,85,86
 987 -6 987 -6 943.5 14.5 c 128,-1,87
 900 35 900 35 877 56.5 c 128,-1,88
 854 78 854 78 818 120 c 1,89,90
 684 -8 684 -8 474 -8 c 0,91,92
 411 -8 411 -8 347.5 14 c 128,-1,93
 284 36 284 36 231 75.5 c 128,-1,94
 178 115 178 115 145 177 c 128,-1,95
 112 239 112 239 112 312 c 0,96,97
 112 375 112 375 130 431 c 128,-1,98
 148 487 148 487 172 523.5 c 128,-1,99
 196 560 196 560 236 596.5 c 128,-1,100
 276 633 276 633 304.5 652 c 128,-1,101
 333 671 333 671 374.287143687 696.929091609 c 0,102,103
 386 704 386 704 392 708 c 1,104,105
 388 714 388 714 365 745.5 c 128,-1,106
 342 777 342 777 332.5 794 c 128,-1,107
 323 811 323 811 307 842.5 c 128,-1,108
 291 874 291 874 284.5 908 c 128,-1,109
 278 942 278 942 278 980 c 0,110,111
 278 1116 278 1116 364 1203 c 128,-1,112
 450 1290 450 1290 590 1290 c 0,23,24
EndSplineSet
EndChar
StartChar: quotesingle
Encoding: 39 39 7
Width: 362
Flags: W
LayerCount: 2
Fore
SplineSet
212 1422 m 0,0,1
 267 1422 267 1422 288 1378 c 1,2,3
 263 1059 263 1059 242 940 c 1,4,5
 225 915 225 915 190 902 c 1,6,7
 175 902 175 902 166 914 c 1,8,9
 161 928 161 928 144 971.5 c 128,-1,10
 127 1015 127 1015 120 1034 c 128,-1,11
 113 1053 113 1053 100 1090.5 c 128,-1,12
 87 1128 87 1128 81.5 1151 c 128,-1,13
 76 1174 76 1174 71 1202.5 c 128,-1,14
 66 1231 66 1231 66 1254 c 0,15,16
 66 1322 66 1322 108 1372 c 128,-1,17
 150 1422 150 1422 212 1422 c 0,0,1
EndSplineSet
EndChar
StartChar: plus
Encoding: 43 43 11
Width: 1084
Flags: W
LayerCount: 2
Fore
SplineSet
482 948 m 1,0,1
 496 959 496 959 524 964.5 c 128,-1,2
 552 970 552 970 566 970 c 0,3,4
 598 970 598 970 598 952 c 2,5,-1
 596 550 l 1,6,-1
 1004 550 l 2,7,8
 1012 550 1012 550 1017 541 c 128,-1,9
 1022 532 1022 532 1022 522 c 0,10,11
 1022 469 1022 469 994 434 c 1,12,-1
 598 434 l 1,13,-1
 598 38 l 1,14,15
 565 16 565 16 504 16 c 0,16,17
 495 16 495 16 488.5 21 c 128,-1,18
 482 26 482 26 482 32 c 2,19,-1
 482 434 l 1,20,-1
 74 434 l 2,21,22
 62 434 62 434 62 466 c 0,23,24
 62 520 62 520 82 550 c 1,25,-1
 480 550 l 1,26,-1
 482 948 l 1,0,1
EndSplineSet
EndChar
StartChar: comma
Encoding: 44 44 12
Width: 448
Flags: W
LayerCount: 2
Fore
SplineSet
238 278 m 0,0,1
 282 278 282 278 326 246 c 1,2,3
 354 194 354 194 354 116 c 0,4,5
 354 -20 354 -20 273 -139 c 128,-1,6
 192 -258 192 -258 80 -314 c 1,7,8
 65 -310 65 -310 51.5 -293 c 128,-1,9
 38 -276 38 -276 38 -266 c 1,10,11
 82 -238 82 -238 131 -178 c 128,-1,12
 180 -118 180 -118 180 -54 c 0,13,14
 180 -36 180 -36 170 -22 c 128,-1,15
 160 -8 160 -8 146 4.5 c 128,-1,16
 132 17 132 17 118 31.5 c 128,-1,17
 104 46 104 46 94 73 c 128,-1,18
 84 100 84 100 84 136 c 0,19,20
 84 151 84 151 91 172 c 128,-1,21
 98 193 98 193 114 218.5 c 128,-1,22
 130 244 130 244 162.5 261 c 128,-1,23
 195 278 195 278 238 278 c 0,0,1
EndSplineSet
EndChar
StartChar: one
Encoding: 49 49 17
Width: 1090
Flags: W
LayerCount: 2
Fore
SplineSet
446 290 m 2,0,-1
 446 964 l 2,1,2
 446 1029 446 1029 437.5 1049.5 c 128,-1,3
 429 1070 429 1070 404 1070 c 0,4,5
 388 1070 388 1070 338.5 1055 c 128,-1,6
 289 1040 289 1040 260 1024 c 1,7,8
 249 1030 249 1030 241.5 1041 c 128,-1,9
 234 1052 234 1052 234 1062 c 0,10,11
 234 1085 234 1085 238 1086 c 0,12,13
 335 1127 335 1127 452 1179 c 128,-1,14
 569 1231 569 1231 631.5 1258.5 c 128,-1,15
 694 1286 694 1286 696 1286 c 2,16,-1
 700 1286 l 2,17,18
 708 1286 708 1286 715 1272.5 c 128,-1,19
 722 1259 722 1259 724 1248 c 1,20,21
 706 1190 706 1190 706 1060 c 2,22,-1
 706 290 l 2,23,24
 706 142 706 142 722 102 c 0,25,26
 732 75 732 75 850 66 c 1,27,28
 857 55 857 55 856.5 28 c 128,-1,29
 856 1 856 1 850 -8 c 1,30,31
 714 6 714 6 576 6 c 128,-1,32
 438 6 438 6 302 -8 c 1,33,34
 296 1 296 1 295.5 28 c 128,-1,35
 295 55 295 55 302 66 c 1,36,37
 420 75 420 75 430 102 c 0,38,39
 446 142 446 142 446 290 c 2,0,-1
EndSplineSet
EndChar
StartChar: four
Encoding: 52 52 20
Width: 1090
Flags: W
LayerCount: 2
Fore
SplineSet
824 1288 m 0,0,1
 835 1288 835 1288 855.5 1268 c 128,-1,2
 876 1248 876 1248 876 1232 c 2,3,-1
 876 484 l 1,4,-1
 968 484 l 2,5,6
 979 484 979 484 987.5 458 c 128,-1,7
 996 432 996 432 996 390 c 0,8,9
 996 377 996 377 991 366.5 c 128,-1,10
 986 356 986 356 981 352 c 2,11,-1
 976 348 l 1,12,-1
 876 348 l 1,13,-1
 876 8 l 1,14,15
 824 -10 824 -10 740 -10 c 0,16,17
 624 -10 624 -10 624 16 c 2,18,-1
 624 348 l 1,19,-1
 116 348 l 1,20,21
 96 358 96 358 96 398 c 1,22,23
 226 559 226 559 458 851 c 128,-1,24
 690 1143 690 1143 784 1260 c 1,25,26
 808 1288 808 1288 824 1288 c 0,0,1
624 932 m 17,27,-1
 268 484 l 1,28,-1
 624 484 l 1,29,-1
 624 932 l 17,27,-1
EndSplineSet
EndChar
StartChar: five
Encoding: 53 53 21
Width: 1090
Flags: W
LayerCount: 2
Fore
SplineSet
554 846 m 0,0,1
 651 846 651 846 743.5 794 c 128,-1,2
 836 742 836 742 895 652 c 128,-1,3
 954 562 954 562 954 460 c 128,-1,4
 954 358 954 358 908 268 c 128,-1,5
 862 178 862 178 788 117.5 c 128,-1,6
 714 57 714 57 620 22.5 c 128,-1,7
 526 -12 526 -12 430 -12 c 0,8,9
 341 -12 341 -12 268 11 c 128,-1,10
 195 34 195 34 160 62 c 1,11,12
 150 74 150 74 143 102.5 c 128,-1,13
 136 131 136 131 136 148 c 0,14,15
 136 188 136 188 164 221 c 128,-1,16
 192 254 192 254 240 254 c 0,17,18
 249 254 249 254 257.5 252.5 c 128,-1,19
 266 251 266 251 274.5 246.5 c 128,-1,20
 283 242 283 242 289.5 238.5 c 128,-1,21
 296 235 296 235 305 227 c 128,-1,22
 314 219 314 219 319 215 c 128,-1,23
 324 211 324 211 333 200.5 c 128,-1,24
 342 190 342 190 345 187.5 c 128,-1,25
 348 185 348 185 357.5 173 c 128,-1,26
 367 161 367 161 368 160 c 0,27,28
 443 72 443 72 510 72 c 0,29,30
 602 72 602 72 650 146 c 128,-1,31
 698 220 698 220 698 356 c 0,32,33
 698 442 698 442 652 513 c 128,-1,34
 606 584 606 584 543.5 620 c 128,-1,35
 481 656 481 656 422 656 c 0,36,37
 308 656 308 656 238 628 c 1,38,39
 230 628 230 628 224 642.5 c 128,-1,40
 218 657 218 657 218 668 c 1,41,42
 219 671 219 671 243.5 799 c 128,-1,43
 268 927 268 927 295.5 1076 c 128,-1,44
 323 1225 323 1225 330 1270 c 1,45,-1
 686 1270 l 2,46,47
 767 1270 767 1270 870 1292 c 0,48,49
 871 1292 871 1292 875 1290.5 c 128,-1,50
 879 1289 879 1289 881 1288 c 128,-1,51
 883 1287 883 1287 886.5 1285 c 128,-1,52
 890 1283 890 1283 891.5 1280.5 c 128,-1,53
 893 1278 893 1278 894.5 1273.5 c 128,-1,54
 896 1269 896 1269 896 1264 c 0,55,56
 896 1242 896 1242 867 1172 c 128,-1,57
 838 1102 838 1102 822 1072 c 1,58,59
 698 1060 698 1060 522 1056 c 0,60,61
 458 1054 458 1054 388 1054 c 1,62,-1
 342 820 l 1,63,64
 450 846 450 846 554 846 c 0,0,1
EndSplineSet
EndChar
StartChar: six
Encoding: 54 54 22
Width: 1090
Flags: W
LayerCount: 2
Fore
SplineSet
406 654 m 1,0,1
 392 556 392 556 392 442 c 0,2,3
 392 374 392 374 400.5 312.5 c 128,-1,4
 409 251 409 251 427.5 195 c 128,-1,5
 446 139 446 139 480 105.5 c 128,-1,6
 514 72 514 72 560 72 c 0,7,8
 620 72 620 72 659 152 c 128,-1,9
 698 232 698 232 698 364 c 0,10,11
 698 455 698 455 680.5 525.5 c 128,-1,12
 663 596 663 596 618.5 644 c 128,-1,13
 574 692 574 692 506 692 c 0,14,15
 484 692 484 692 454.5 682.5 c 128,-1,16
 425 673 425 673 406 654 c 1,0,1
594 810 m 0,17,18
 670 810 670 810 733.5 788.5 c 128,-1,19
 797 767 797 767 849 721.5 c 128,-1,20
 901 676 901 676 930.5 597.5 c 128,-1,21
 960 519 960 519 960 414 c 0,22,23
 960 300 960 300 899 201 c 128,-1,24
 838 102 838 102 740.5 45 c 128,-1,25
 643 -12 643 -12 538 -12 c 0,26,27
 429 -12 429 -12 334 57.5 c 128,-1,28
 239 127 239 127 184.5 241.5 c 128,-1,29
 130 356 130 356 130 484 c 0,30,31
 130 638 130 638 196 777.5 c 128,-1,32
 262 917 262 917 362 1022 c 0,33,34
 443 1107 443 1107 541.5 1167.5 c 128,-1,35
 640 1228 640 1228 718.5 1254 c 128,-1,36
 797 1280 797 1280 874 1290 c 1,37,38
 895 1274 895 1274 888 1238 c 1,39,40
 535 1092 535 1092 430 760 c 1,41,42
 517 810 517 810 594 810 c 0,17,18
EndSplineSet
EndChar
StartChar: eight
Encoding: 56 56 24
Width: 1090
Flags: W
LayerCount: 2
Fore
SplineSet
552 72 m 3,0,1
 623 72 623 72 662.5 118.5 c 128,-1,2
 702 165 702 165 702 236 c 0,3,4
 702 280 702 280 683.5 324.5 c 128,-1,5
 665 369 665 369 642.5 399.5 c 128,-1,6
 620 430 620 430 582.5 465.5 c 128,-1,7
 545 501 545 501 527.5 514.5 c 128,-1,8
 510 528 510 528 480 550 c 0,9,10
 468 560 468 560 462 560 c 0,11,12
 453 560 453 560 452 558 c 0,13,14
 388 479 388 479 388 312 c 0,15,16
 388 251 388 251 403.5 199 c 128,-1,17
 419 147 419 147 457.5 109.5 c 128,-1,18
 496 72 496 72 552 72 c 3,0,1
536 1184 m 3,19,20
 482 1184 482 1184 448 1138 c 128,-1,21
 414 1092 414 1092 414 1024 c 0,22,23
 414 976 414 976 433 931 c 128,-1,24
 452 886 452 886 482 855 c 128,-1,25
 512 824 512 824 537.5 804 c 128,-1,26
 563 784 563 784 586 772 c 1,27,28
 601 762 601 762 610 762 c 0,29,30
 616 762 616 762 622 768 c 1,31,32
 664 831 664 831 664 972 c 0,33,34
 664 1021 664 1021 651.5 1067.5 c 128,-1,35
 639 1114 639 1114 608.5 1149 c 128,-1,36
 578 1184 578 1184 536 1184 c 3,19,20
540 1266 m 155,-1,38
 635 1266 635 1266 718.5 1234.5 c 128,-1,39
 802 1203 802 1203 858 1136 c 128,-1,40
 914 1069 914 1069 914 978 c 0,41,42
 914 889 914 889 850 818.5 c 128,-1,43
 786 748 786 748 692 708 c 0,44,45
 689 706 689 706 689 703 c 128,-1,46
 689 700 689 700 692 698 c 0,47,48
 720 682 720 682 749.5 660.5 c 128,-1,49
 779 639 779 639 819.5 602.5 c 128,-1,50
 860 566 860 566 890.5 527 c 128,-1,51
 921 488 921 488 942.5 436.5 c 128,-1,52
 964 385 964 385 964 334 c 0,53,54
 964 231 964 231 901 150.5 c 128,-1,55
 838 70 838 70 741.5 29 c 128,-1,56
 645 -12 645 -12 536 -12 c 0,57,58
 456 -12 456 -12 386 4.5 c 128,-1,59
 316 21 316 21 256 56.5 c 128,-1,60
 196 92 196 92 161 156 c 128,-1,61
 126 220 126 220 126 306 c 0,62,63
 126 421 126 421 202.5 501 c 128,-1,64
 279 581 279 581 382 612 c 1,65,66
 388 615 388 615 378 622 c 0,67,68
 371 628 371 628 349 646.5 c 128,-1,69
 327 665 327 665 313.5 676 c 128,-1,70
 300 687 300 687 277.5 709 c 128,-1,71
 255 731 255 731 240.5 749 c 128,-1,72
 226 767 226 767 208.5 794 c 128,-1,73
 191 821 191 821 180.5 846.5 c 128,-1,74
 170 872 170 872 163 905 c 128,-1,75
 156 938 156 938 156 972 c 0,76,77
 156 1057 156 1057 213 1125.5 c 128,-1,78
 270 1194 270 1194 357.5 1230 c 128,-1,37
 445 1266 445 1266 540 1266 c 155,-1,38
EndSplineSet
EndChar
StartChar: nine
Encoding: 57 57 25
Width: 1090
Flags: W
LayerCount: 2
Fore
SplineSet
684 624 m 1,0,1
 698 692 698 692 698 836 c 0,2,3
 698 904 698 904 689.5 965.5 c 128,-1,4
 681 1027 681 1027 662.5 1083 c 128,-1,5
 644 1139 644 1139 610 1172.5 c 128,-1,6
 576 1206 576 1206 530 1206 c 0,7,8
 470 1206 470 1206 431 1126 c 128,-1,9
 392 1046 392 1046 392 914 c 0,10,11
 392 823 392 823 409.5 752.5 c 128,-1,12
 427 682 427 682 471.5 634 c 128,-1,13
 516 586 516 586 584 586 c 0,14,15
 606 586 606 586 635.5 595.5 c 128,-1,16
 665 605 665 605 684 624 c 1,0,1
202 40 m 1,17,18
 555 186 555 186 660 518 c 1,19,20
 573 468 573 468 496 468 c 0,21,22
 420 468 420 468 356.5 489.5 c 128,-1,23
 293 511 293 511 241 556.5 c 128,-1,24
 189 602 189 602 159.5 680.5 c 128,-1,25
 130 759 130 759 130 864 c 0,26,27
 130 978 130 978 191 1077 c 128,-1,28
 252 1176 252 1176 349.5 1233 c 128,-1,29
 447 1290 447 1290 552 1290 c 0,30,31
 661 1290 661 1290 756 1220.5 c 128,-1,32
 851 1151 851 1151 905.5 1036.5 c 128,-1,33
 960 922 960 922 960 794 c 0,34,35
 960 640 960 640 894 500.5 c 128,-1,36
 828 361 828 361 728 256 c 0,37,38
 647 171 647 171 548.5 110.5 c 128,-1,39
 450 50 450 50 371.5 24 c 128,-1,40
 293 -2 293 -2 216 -12 c 1,41,42
 195 4 195 4 202 40 c 1,17,18
EndSplineSet
EndChar
StartChar: colon
Encoding: 58 58 26
Width: 524
Flags: W
LayerCount: 2
Fore
SplineSet
112 716 m 0,0,1
 112 776 112 776 156 819 c 128,-1,2
 200 862 200 862 262 862 c 128,-1,3
 324 862 324 862 368 816.5 c 128,-1,4
 412 771 412 771 412 710 c 0,5,6
 412 650 412 650 368.5 606 c 128,-1,7
 325 562 325 562 264 562 c 0,8,9
 201 562 201 562 156.5 607 c 128,-1,10
 112 652 112 652 112 716 c 0,0,1
112 132 m 0,11,12
 112 192 112 192 156 235 c 128,-1,13
 200 278 200 278 262 278 c 128,-1,14
 324 278 324 278 368 232.5 c 128,-1,15
 412 187 412 187 412 126 c 0,16,17
 412 66 412 66 368.5 22 c 128,-1,18
 325 -22 325 -22 264 -22 c 0,19,20
 201 -22 201 -22 156.5 23 c 128,-1,21
 112 68 112 68 112 132 c 0,11,12
EndSplineSet
Substitution2: "'smcp' Lowercase to Small Capitals in Latin lookup 0 subtable" colon.sc
EndChar
StartChar: equal
Encoding: 61 61 29
Width: 1118
Flags: W
LayerCount: 2
Fore
SplineSet
953 268 m 1,0,1
 141 268 l 1,2,3
 131 272 131 272 132.5 296.5 c 128,-1,4
 134 321 134 321 147 351 c 128,-1,5
 160 381 160 381 173 386 c 1,6,-1
 979 386 l 1,7,8
 991 382 991 382 990.5 358.5 c 128,-1,9
 990 335 990 335 978 305 c 128,-1,10
 966 275 966 275 953 268 c 1,0,1
953 556 m 1,11,-1
 141 556 l 1,12,13
 131 560 131 560 132.5 584.5 c 128,-1,14
 134 609 134 609 147 639 c 128,-1,15
 160 669 160 669 173 674 c 1,16,-1
 979 674 l 1,17,18
 991 670 991 670 990.5 646.5 c 128,-1,19
 990 623 990 623 978 593 c 128,-1,20
 966 563 966 563 953 556 c 1,11,-1
EndSplineSet
Substitution2: "'smcp' Lowercase to Small Capitals in Latin lookup 0 subtable" equal.sc
EndChar
StartChar: greater
Encoding: 62 62 30
Width: 990
Flags: W
LayerCount: 2
Fore
SplineSet
102 90 m 0,0,1
 102 94 102 94 103.5 97 c 128,-1,2
 105 100 105 100 106.5 101 c 2,3,-1
 108 102 l 1,4,-1
 746 418 l 1,5,-1
 110 728 l 2,6,7
 109 729 109 729 108 730 c 128,-1,8
 107 731 107 731 105 736 c 128,-1,9
 103 741 103 741 104 746 c 0,10,11
 126 860 126 860 138 860 c 0,12,13
 140 860 140 860 148 856 c 2,14,-1
 894 482 l 2,15,16
 930 464 930 464 930 434 c 0,17,18
 930 373 930 373 894 354 c 2,19,-1
 144 -26 l 2,20,21
 136 -30 136 -30 134 -30 c 0,22,23
 126 -30 126 -30 114 22.5 c 128,-1,24
 102 75 102 75 102 90 c 0,0,1
EndSplineSet
Substitution2: "'smcp' Lowercase to Small Capitals in Latin lookup 0 subtable" greater.sc
EndChar
StartChar: question
Encoding: 63 63 31
Width: 798
Flags: W
LayerCount: 2
Fore
SplineSet
134 132 m 0,0,1
 134 194 134 194 177 236 c 128,-1,2
 220 278 220 278 278 278 c 0,3,4
 341 278 341 278 384.5 235.5 c 128,-1,5
 428 193 428 193 428 132 c 0,6,7
 428 70 428 70 386.5 24 c 128,-1,8
 345 -22 345 -22 286 -22 c 0,9,10
 228 -22 228 -22 181 22.5 c 128,-1,11
 134 67 134 67 134 132 c 0,0,1
232 1036 m 0,12,13
 177 1036 177 1036 142.5 1076 c 128,-1,14
 108 1116 108 1116 108 1168 c 0,15,16
 108 1193 108 1193 117.5 1222 c 128,-1,17
 127 1251 127 1251 138 1260 c 1,18,19
 198 1294 198 1294 318 1294 c 0,20,21
 350 1294 350 1294 396 1284.5 c 128,-1,22
 442 1275 442 1275 501.5 1249.5 c 128,-1,23
 561 1224 561 1224 611 1186.5 c 128,-1,24
 661 1149 661 1149 695.5 1085 c 128,-1,25
 730 1021 730 1021 730 942 c 0,26,27
 730 910 730 910 723 880.5 c 128,-1,28
 716 851 716 851 706.5 829 c 128,-1,29
 697 807 697 807 677.5 783.5 c 128,-1,30
 658 760 658 760 644.5 746 c 128,-1,31
 631 732 631 732 603.5 712 c 128,-1,32
 576 692 576 692 563 684 c 128,-1,33
 550 676 550 676 518.5 657 c 128,-1,34
 487 638 487 638 478 632 c 0,35,36
 467 625 467 625 436 606.5 c 128,-1,37
 405 588 405 588 387.5 577 c 128,-1,38
 370 566 370 566 348 547.5 c 128,-1,39
 326 529 326 529 314 512 c 0,40,41
 310 506 310 506 307.5 498 c 128,-1,42
 305 490 305 490 304.5 479.5 c 128,-1,43
 304 469 304 469 303.5 461 c 128,-1,44
 303 453 303 453 303.5 442 c 128,-1,45
 304 431 304 431 304 428 c 0,46,47
 301 418 301 418 291 405 c 128,-1,48
 281 392 281 392 274 392 c 0,49,50
 252 392 252 392 228 416 c 1,51,52
 214 447 214 447 201 504.5 c 128,-1,53
 188 562 188 562 188 616 c 0,54,55
 188 657 188 657 201.5 692.5 c 128,-1,56
 215 728 215 728 242 756.5 c 128,-1,57
 269 785 269 785 291.5 803 c 128,-1,58
 314 821 314 821 348 844 c 0,59,60
 560 984 560 984 560 1064 c 0,61,62
 560 1100 560 1100 531 1130 c 128,-1,63
 502 1160 502 1160 452 1160 c 0,64,65
 428 1160 428 1160 399 1140.5 c 128,-1,66
 370 1121 370 1121 346.5 1098 c 128,-1,67
 323 1075 323 1075 291.5 1055.5 c 128,-1,68
 260 1036 260 1036 232 1036 c 0,12,13
EndSplineSet
Substitution2: "'smcp' Lowercase to Small Capitals in Latin lookup 0 subtable" question.sc
EndChar
StartChar: E
Encoding: 69 69 37
Width: 1204
Flags: W
LayerCount: 2
Fore
SplineSet
363 1314 m 0,0,1
 411 1314 411 1314 693.5 1320.5 c 128,-1,2
 976 1327 976 1327 1013 1328 c 1,3,4
 1019 1283 1019 1283 1029 1233 c 128,-1,5
 1039 1183 1039 1183 1052.5 1120.5 c 128,-1,6
 1066 1058 1066 1058 1071 1032 c 1,7,8
 1061 1022 1061 1022 1025 1022 c 0,9,10
 999 1022 999 1022 993 1038 c 0,11,12
 975 1085 975 1085 958 1117 c 128,-1,13
 941 1149 941 1149 915.5 1179.5 c 128,-1,14
 890 1210 890 1210 855.5 1225 c 128,-1,15
 821 1240 821 1240 777 1240 c 2,16,-1
 611 1240 l 2,17,18
 522 1240 522 1240 511 1216 c 0,19,20
 501 1192 501 1192 501 1094 c 2,21,-1
 501 736 l 2,22,23
 501 727 501 727 527.5 720.5 c 128,-1,24
 554 714 554 714 587 714 c 2,25,-1
 693 714 l 2,26,27
 781 714 781 714 813 740 c 128,-1,28
 845 766 845 766 869 854 c 1,29,30
 872 870 872 870 893 870 c 0,31,32
 921 870 921 870 931 860 c 1,33,-1
 931 476 l 1,34,35
 923 468 923 468 895 468 c 0,36,37
 870 468 870 468 867 484 c 1,38,39
 841 586 841 586 797 606 c 1,40,41
 763 620 763 620 645 620 c 0,42,43
 501 620 501 620 501 592 c 2,44,-1
 501 282 l 2,45,46
 501 164 501 164 517 124 c 0,47,48
 525 105 525 105 564 94.5 c 128,-1,49
 603 84 603 84 647 84 c 2,50,-1
 779 84 l 2,51,52
 899 84 899 84 965 150 c 0,53,54
 1023 208 1023 208 1073 340 c 1,55,56
 1076 352 1076 352 1101 352 c 0,57,58
 1117 352 1117 352 1137 348 c 128,-1,59
 1157 344 1157 344 1161 340 c 1,60,61
 1157 328 1157 328 1137.5 274 c 128,-1,62
 1118 220 1118 220 1109.5 195 c 128,-1,63
 1101 170 1101 170 1087 127 c 128,-1,64
 1073 84 1073 84 1065 52.5 c 128,-1,65
 1057 21 1057 21 1053 -4 c 1,66,67
 155 -4 155 -4 77 -6 c 1,68,69
 71 3 71 3 70.5 30 c 128,-1,70
 70 57 70 57 77 68 c 1,71,72
 195 77 195 77 205 102 c 0,73,74
 221 142 221 142 221 290 c 2,75,-1
 221 1026 l 2,76,77
 221 1174 221 1174 205 1214 c 0,78,79
 196 1237 196 1237 77 1246 c 1,80,81
 70 1257 70 1257 70.5 1284 c 128,-1,82
 71 1311 71 1311 77 1320 c 1,83,84
 167 1314 167 1314 363 1314 c 0,0,1
EndSplineSet
Substitution2: "'c2sc' Capitals to Small Capitals in Latin lookup 0 subtable" e.sc
EndChar
StartChar: F
Encoding: 70 70 38
Width: 1098
Flags: W
LayerCount: 2
Fore
SplineSet
363 1314 m 0,0,1
 411 1314 411 1314 693.5 1320.5 c 128,-1,2
 976 1327 976 1327 1013 1328 c 1,3,4
 1019 1283 1019 1283 1029 1233 c 128,-1,5
 1039 1183 1039 1183 1052.5 1120.5 c 128,-1,6
 1066 1058 1066 1058 1071 1032 c 1,7,8
 1061 1022 1061 1022 1025 1022 c 0,9,10
 999 1022 999 1022 993 1038 c 0,11,12
 975 1085 975 1085 958 1117 c 128,-1,13
 941 1149 941 1149 915.5 1179.5 c 128,-1,14
 890 1210 890 1210 855.5 1225 c 128,-1,15
 821 1240 821 1240 777 1240 c 2,16,-1
 611 1240 l 2,17,18
 522 1240 522 1240 511 1216 c 0,19,20
 501 1192 501 1192 501 1094 c 2,21,-1
 501 728 l 2,22,23
 501 719 501 719 527.5 712.5 c 128,-1,24
 554 706 554 706 587 706 c 2,25,-1
 693 706 l 2,26,27
 781 706 781 706 813 732 c 128,-1,28
 845 758 845 758 869 846 c 1,29,30
 872 862 872 862 893 862 c 0,31,32
 921 862 921 862 931 852 c 1,33,-1
 931 468 l 1,34,35
 923 460 923 460 895 460 c 0,36,37
 870 460 870 460 867 476 c 1,38,39
 841 578 841 578 797 598 c 1,40,41
 763 612 763 612 645 612 c 0,42,43
 501 612 501 612 501 584 c 2,44,-1
 501 290 l 2,45,46
 501 142 501 142 517 102 c 0,47,48
 527 76 527 76 663 66 c 1,49,50
 670 55 670 55 669.5 28 c 128,-1,51
 669 1 669 1 663 -8 c 1,52,53
 526 6 526 6 359 6 c 0,54,55
 214 6 214 6 77 -8 c 1,56,57
 71 1 71 1 70.5 28 c 128,-1,58
 70 55 70 55 77 66 c 1,59,60
 195 75 195 75 205 102 c 0,61,62
 221 142 221 142 221 290 c 2,63,-1
 221 1026 l 2,64,65
 221 1174 221 1174 205 1214 c 0,66,67
 196 1237 196 1237 77 1246 c 1,68,69
 70 1257 70 1257 70.5 1284 c 128,-1,70
 71 1311 71 1311 77 1320 c 1,71,72
 167 1314 167 1314 363 1314 c 0,0,1
EndSplineSet
Substitution2: "'c2sc' Capitals to Small Capitals in Latin lookup 0 subtable" f.sc
EndChar
StartChar: G
Encoding: 71 71 39
Width: 1444
Flags: W
LayerCount: 2
Fore
SplineSet
998 366 m 2,0,1
 998 431 998 431 988 468 c 0,2,3
 982 491 982 491 952 504 c 128,-1,4
 922 517 922 517 899.5 519.5 c 128,-1,5
 877 522 877 522 856 522 c 0,6,7
 848 522 848 522 847.5 555 c 128,-1,8
 847 588 847 588 854 596 c 1,9,10
 888 595 888 595 950.5 591.5 c 128,-1,11
 1013 588 1013 588 1064 586 c 128,-1,12
 1115 584 1115 584 1160 584 c 0,13,14
 1197 584 1197 584 1238.5 586 c 128,-1,15
 1280 588 1280 588 1330 591.5 c 128,-1,16
 1380 595 1380 595 1406 596 c 1,17,18
 1410 584 1410 584 1410.5 566 c 128,-1,19
 1411 548 1411 548 1409 535 c 128,-1,20
 1407 522 1407 522 1404 522 c 0,21,22
 1389 522 1389 522 1351 513.5 c 128,-1,23
 1313 505 1313 505 1298 496 c 0,24,25
 1289 490 1289 490 1281.5 464 c 128,-1,26
 1274 438 1274 438 1274 410 c 2,27,-1
 1274 196 l 2,28,29
 1274 186 1274 186 1280 164 c 128,-1,30
 1286 142 1286 142 1286 138 c 0,31,32
 1286 113 1286 113 1216 86 c 0,33,34
 1132 54 1132 54 1081 37 c 128,-1,35
 1030 20 1030 20 942 3 c 128,-1,36
 854 -14 854 -14 768 -14 c 0,37,38
 581 -14 581 -14 423.5 71 c 128,-1,39
 266 156 266 156 173 307.5 c 128,-1,40
 80 459 80 459 80 644 c 0,41,42
 80 828 80 828 173 987 c 128,-1,43
 266 1146 266 1146 426 1240 c 128,-1,44
 586 1334 586 1334 772 1334 c 0,45,46
 1001 1334 1001 1334 1188 1296 c 0,47,48
 1188 1295 1188 1295 1222 1151.5 c 128,-1,49
 1256 1008 1256 1008 1256 994 c 0,50,51
 1256 985 1256 985 1239 974.5 c 128,-1,52
 1222 964 1222 964 1204 964 c 0,53,54
 1184 964 1184 964 1176 972 c 1,55,56
 1168 1002 1168 1002 1156 1031.5 c 128,-1,57
 1144 1061 1144 1061 1114 1102.5 c 128,-1,58
 1084 1144 1084 1144 1045 1174 c 128,-1,59
 1006 1204 1006 1204 940 1226 c 128,-1,60
 874 1248 874 1248 794 1248 c 0,61,62
 708 1248 708 1248 639.5 1217 c 128,-1,63
 571 1186 571 1186 527 1134 c 128,-1,64
 483 1082 483 1082 454 1009.5 c 128,-1,65
 425 937 425 937 412.5 859.5 c 128,-1,66
 400 782 400 782 400 694 c 0,67,68
 400 575 400 575 427 465 c 128,-1,69
 454 355 454 355 505.5 266.5 c 128,-1,70
 557 178 557 178 639.5 125 c 128,-1,71
 722 72 722 72 824 72 c 0,72,73
 908 72 908 72 980 104 c 0,74,75
 998 113 998 113 998 134 c 2,76,-1
 998 366 l 2,0,1
EndSplineSet
Substitution2: "'c2sc' Capitals to Small Capitals in Latin lookup 0 subtable" g.sc
EndChar
StartChar: H
Encoding: 72 72 40
Width: 1482
Flags: W
LayerCount: 2
Fore
SplineSet
363 1310 m 0,0,1
 508 1310 508 1310 645 1324 c 1,2,3
 651 1315 651 1315 651.5 1288 c 128,-1,4
 652 1261 652 1261 645 1250 c 1,5,6
 527 1241 527 1241 517 1214 c 0,7,8
 501 1174 501 1174 501 1026 c 2,9,-1
 501 742 l 1,10,-1
 505 736 l 1,11,12
 739 730 739 730 747 730 c 0,13,14
 765 730 765 730 981 736 c 1,15,16
 985 740 985 740 985 744 c 2,17,-1
 983 1026 l 1,18,19
 983 1174 983 1174 967 1214 c 0,20,21
 957 1241 957 1241 839 1250 c 1,22,23
 832 1261 832 1261 832.5 1288 c 128,-1,24
 833 1315 833 1315 839 1324 c 1,25,26
 976 1310 976 1310 1125 1310 c 0,27,28
 1270 1310 1270 1310 1407 1324 c 1,29,30
 1413 1315 1413 1315 1413.5 1288 c 128,-1,31
 1414 1261 1414 1261 1407 1250 c 1,32,33
 1289 1241 1289 1241 1279 1214 c 0,34,35
 1263 1174 1263 1174 1263 1026 c 2,36,-1
 1263 290 l 2,37,38
 1263 142 1263 142 1279 102 c 0,39,40
 1289 75 1289 75 1407 66 c 1,41,42
 1414 55 1414 55 1413.5 28 c 128,-1,43
 1413 1 1413 1 1407 -8 c 1,44,45
 1270 6 1270 6 1121 6 c 0,46,47
 976 6 976 6 839 -8 c 1,48,49
 833 1 833 1 832.5 28 c 128,-1,50
 832 55 832 55 839 66 c 1,51,52
 957 75 957 75 967 102 c 0,53,54
 983 142 983 142 983 290 c 2,55,-1
 983 620 l 1,56,-1
 979 630 l 1,57,58
 831 634 831 634 747 634 c 0,59,60
 515 634 515 634 503 626 c 1,61,-1
 501 618 l 1,62,-1
 501 290 l 2,63,64
 501 142 501 142 517 102 c 0,65,66
 527 75 527 75 645 66 c 1,67,68
 652 55 652 55 651.5 28 c 128,-1,69
 651 1 651 1 645 -8 c 1,70,71
 508 6 508 6 359 6 c 0,72,73
 214 6 214 6 77 -8 c 1,74,75
 71 1 71 1 70.5 28 c 128,-1,76
 70 55 70 55 77 66 c 1,77,78
 195 75 195 75 205 102 c 0,79,80
 221 142 221 142 221 290 c 2,81,-1
 221 1026 l 2,82,83
 221 1174 221 1174 205 1214 c 0,84,85
 195 1241 195 1241 77 1250 c 1,86,87
 70 1261 70 1261 70.5 1288 c 128,-1,88
 71 1315 71 1315 77 1324 c 1,89,90
 214 1310 214 1310 363 1310 c 0,0,1
EndSplineSet
Substitution2: "'c2sc' Capitals to Small Capitals in Latin lookup 0 subtable" h.sc
EndChar
StartChar: I
Encoding: 73 73 41
Width: 720
Flags: W
LayerCount: 2
Fore
SplineSet
363 1310 m 0,0,1
 508 1310 508 1310 645 1324 c 1,2,3
 651 1315 651 1315 651.5 1288 c 128,-1,4
 652 1261 652 1261 645 1250 c 1,5,6
 527 1241 527 1241 517 1214 c 0,7,8
 501 1174 501 1174 501 1026 c 2,9,-1
 501 290 l 2,10,11
 501 142 501 142 517 102 c 0,12,13
 527 75 527 75 645 66 c 1,14,15
 652 55 652 55 651.5 28 c 128,-1,16
 651 1 651 1 645 -8 c 1,17,18
 508 6 508 6 359 6 c 0,19,20
 214 6 214 6 77 -8 c 1,21,22
 71 1 71 1 70.5 28 c 128,-1,23
 70 55 70 55 77 66 c 1,24,25
 195 75 195 75 205 102 c 0,26,27
 221 142 221 142 221 290 c 2,28,-1
 221 1026 l 2,29,30
 221 1174 221 1174 205 1214 c 0,31,32
 195 1241 195 1241 77 1250 c 1,33,34
 70 1261 70 1261 70.5 1288 c 128,-1,35
 71 1315 71 1315 77 1324 c 1,36,37
 214 1310 214 1310 363 1310 c 0,0,1
EndSplineSet
Substitution2: "'c2sc' Capitals to Small Capitals in Latin lookup 0 subtable" i.sc
EndChar
StartChar: Q
Encoding: 81 81 49
Width: 1520
Flags: W
LayerCount: 2
Fore
SplineSet
760 1334 m 128,-1,1
 890 1334 890 1334 1014.5 1280 c 128,-1,2
 1139 1226 1139 1226 1232.5 1136 c 128,-1,3
 1326 1046 1326 1046 1383 919.5 c 128,-1,4
 1440 793 1440 793 1440 656 c 0,5,6
 1440 437 1440 437 1304 259.5 c 128,-1,7
 1168 82 1168 82 964 14 c 1,8,9
 1011 -9 1011 -9 1079.5 -47.5 c 128,-1,10
 1148 -86 1148 -86 1182.5 -102.5 c 128,-1,11
 1217 -119 1217 -119 1277.5 -133.5 c 128,-1,12
 1338 -148 1338 -148 1410 -148 c 0,13,14
 1445 -148 1445 -148 1477 -144 c 128,-1,15
 1509 -140 1509 -140 1528.5 -136 c 128,-1,16
 1548 -132 1548 -132 1552 -132 c 0,17,18
 1562 -132 1562 -132 1576.5 -139.5 c 128,-1,19
 1591 -147 1591 -147 1598 -158 c 1,20,-1
 1602 -168 l 1,21,22
 1513 -215 1513 -215 1395.5 -250.5 c 128,-1,23
 1278 -286 1278 -286 1192 -286 c 0,24,25
 1131 -286 1131 -286 1068.5 -263 c 128,-1,26
 1006 -240 1006 -240 950 -204 c 128,-1,27
 894 -168 894 -168 841 -130 c 128,-1,28
 788 -92 788 -92 724 -55 c 128,-1,29
 660 -18 660 -18 602 0 c 1,30,31
 381 58 381 58 230.5 241 c 128,-1,32
 80 424 80 424 80 656 c 0,33,34
 80 793 80 793 137 919.5 c 128,-1,35
 194 1046 194 1046 287.5 1136 c 128,-1,36
 381 1226 381 1226 505.5 1280 c 128,-1,0
 630 1334 630 1334 760 1334 c 128,-1,1
712 1248 m 0,37,38
 644 1248 644 1248 589.5 1216.5 c 128,-1,39
 535 1185 535 1185 500 1134 c 128,-1,40
 465 1083 465 1083 442 1014 c 128,-1,41
 419 945 419 945 409.5 873.5 c 128,-1,42
 400 802 400 802 400 726 c 0,43,44
 400 647 400 647 409.5 570.5 c 128,-1,45
 419 494 419 494 438 419 c 128,-1,46
 457 344 457 344 489.5 281 c 128,-1,47
 522 218 522 218 565 169.5 c 128,-1,48
 608 121 608 121 669 93.5 c 128,-1,49
 730 66 730 66 802 66 c 0,50,51
 871 66 871 66 926.5 97 c 128,-1,52
 982 128 982 128 1017.5 178.5 c 128,-1,53
 1053 229 1053 229 1076.5 297.5 c 128,-1,54
 1100 366 1100 366 1110 437 c 128,-1,55
 1120 508 1120 508 1120 584 c 0,56,57
 1120 679 1120 679 1106.5 770.5 c 128,-1,58
 1093 862 1093 862 1062 949.5 c 128,-1,59
 1031 1037 1031 1037 985 1102.5 c 128,-1,60
 939 1168 939 1168 868.5 1208 c 128,-1,61
 798 1248 798 1248 712 1248 c 0,37,38
EndSplineSet
Substitution2: "'c2sc' Capitals to Small Capitals in Latin lookup 0 subtable" q.sc
EndChar
StartChar: S
Encoding: 83 83 51
Width: 1042
Flags: W
LayerCount: 2
Fore
SplineSet
534 1340 m 0,0,1
 576 1340 576 1340 622 1334 c 128,-1,2
 668 1328 668 1328 697.5 1322 c 128,-1,3
 727 1316 727 1316 785.5 1303 c 128,-1,4
 844 1290 844 1290 870 1284 c 1,5,6
 882 1158 882 1158 892 952 c 1,7,8
 883 940 883 940 870 940 c 0,9,10
 814 940 814 940 810 954 c 1,11,12
 804 999 804 999 783 1049 c 128,-1,13
 762 1099 762 1099 729.5 1146.5 c 128,-1,14
 697 1194 697 1194 648 1225 c 128,-1,15
 599 1256 599 1256 544 1256 c 0,16,17
 475 1256 475 1256 424.5 1215 c 128,-1,18
 374 1174 374 1174 374 1082 c 0,19,20
 374 1046 374 1046 394 1008 c 128,-1,21
 414 970 414 970 439.5 940.5 c 128,-1,22
 465 911 465 911 511 873.5 c 128,-1,23
 557 836 557 836 585.5 815.5 c 128,-1,24
 614 795 614 795 664 762 c 0,25,26
 672 757 672 757 704 736 c 128,-1,27
 736 715 736 715 746 708 c 128,-1,28
 756 701 756 701 785 680 c 128,-1,29
 814 659 814 659 825.5 647.5 c 128,-1,30
 837 636 837 636 860 613 c 128,-1,31
 883 590 883 590 893 572.5 c 128,-1,32
 903 555 903 555 918.5 528 c 128,-1,33
 934 501 934 501 940.5 475.5 c 128,-1,34
 947 450 947 450 952.5 417.5 c 128,-1,35
 958 385 958 385 958 350 c 0,36,37
 958 244 958 244 894.5 157.5 c 128,-1,38
 831 71 831 71 732 25.5 c 128,-1,39
 633 -20 633 -20 522 -20 c 0,40,41
 365 -20 365 -20 142 32 c 1,42,43
 128 92 128 92 113 206.5 c 128,-1,44
 98 321 98 321 94 372 c 1,45,46
 100 380 100 380 121.5 390 c 128,-1,47
 143 400 143 400 152 400 c 0,48,49
 175 400 175 400 178 384 c 0,50,51
 185 341 185 341 211.5 288 c 128,-1,52
 238 235 238 235 278.5 184 c 128,-1,53
 319 133 319 133 378.5 98.5 c 128,-1,54
 438 64 438 64 502 64 c 0,55,56
 586 64 586 64 641 111 c 128,-1,57
 696 158 696 158 696 258 c 0,58,59
 696 284 696 284 686.5 310.5 c 128,-1,60
 677 337 677 337 665 358.5 c 128,-1,61
 653 380 653 380 628 406 c 128,-1,62
 603 432 603 432 586.5 448 c 128,-1,63
 570 464 570 464 537 489 c 128,-1,64
 504 514 504 514 489.5 524 c 128,-1,65
 475 534 475 534 440.5 557 c 128,-1,66
 406 580 406 580 400 584 c 0,67,68
 277.449403713 666.259989289 277.449403713 666.259989289 235.64097082 703.772221447 c 0,69,70
 116.874567303 810.334285438 116.874567303 810.334285438 108.679484453 953.816336612 c 0,71,72
 108 965.712961074 108 965.712961074 108 978 c 0,73,74
 108 1077 108 1077 171.5 1162 c 128,-1,75
 235 1247 235 1247 333 1293.5 c 128,-1,76
 431 1340 431 1340 534 1340 c 0,0,1
EndSplineSet
Substitution2: "'c2sc' Capitals to Small Capitals in Latin lookup 0 subtable" s.sc
EndChar
StartChar: V
Encoding: 86 86 54
Width: 1368
Flags: W
LayerCount: 2
Fore
SplineSet
281 1310 m 0,0,1
 426 1310 426 1310 563 1324 c 1,2,3
 569 1315 569 1315 569.5 1288 c 128,-1,4
 570 1261 570 1261 563 1250 c 0,5,6
 562 1250 562 1250 552 1249.5 c 128,-1,7
 542 1249 542 1249 537 1248.5 c 128,-1,8
 532 1248 532 1248 520 1246.5 c 128,-1,9
 508 1245 508 1245 501 1243 c 128,-1,10
 494 1241 494 1241 483.5 1238.5 c 128,-1,11
 473 1236 473 1236 466.5 1232 c 128,-1,12
 460 1228 460 1228 453.5 1223 c 128,-1,13
 447 1218 447 1218 444 1211 c 128,-1,14
 441 1204 441 1204 441 1196 c 0,15,16
 441 1158 441 1158 489 1046 c 1,17,-1
 787 372 l 1,18,19
 1031 986 1031 986 1051 1042 c 0,20,21
 1053 1047 1053 1047 1062 1073 c 128,-1,22
 1071 1099 1071 1099 1074.5 1110 c 128,-1,23
 1078 1121 1078 1121 1084 1141 c 128,-1,24
 1090 1161 1090 1161 1092.5 1175.5 c 128,-1,25
 1095 1190 1095 1190 1095 1202 c 0,26,27
 1095 1238 1095 1238 935 1250 c 1,28,29
 928 1261 928 1261 928.5 1288 c 128,-1,30
 929 1315 929 1315 935 1324 c 1,31,32
 1100 1310 1100 1310 1173 1310 c 0,33,34
 1224 1310 1224 1310 1297.5 1316.5 c 128,-1,35
 1371 1323 1371 1323 1397 1324 c 1,36,37
 1403 1315 1403 1315 1403.5 1288 c 128,-1,38
 1404 1261 1404 1261 1397 1250 c 1,39,40
 1395 1250 1395 1250 1382.5 1249 c 128,-1,41
 1370 1248 1370 1248 1361.5 1247.5 c 128,-1,42
 1353 1247 1353 1247 1338.5 1245 c 128,-1,43
 1324 1243 1324 1243 1313.5 1240.5 c 128,-1,44
 1303 1238 1303 1238 1291 1234.5 c 128,-1,45
 1279 1231 1279 1231 1270.5 1226 c 128,-1,46
 1262 1221 1262 1221 1257 1214 c 0,47,48
 1230 1178 1230 1178 1175 1048 c 1,49,50
 1081 819 1081 819 947 502 c 128,-1,51
 813 185 813 185 761 60 c 0,52,53
 749 33 749 33 716 5.5 c 128,-1,54
 683 -22 683 -22 665 -22 c 0,55,56
 657 -22 657 -22 652.5 -18.5 c 128,-1,57
 648 -15 648 -15 644 -6.5 c 128,-1,58
 640 2 640 2 637 6 c 1,59,-1
 201 1020 l 1,60,61
 158 1125 158 1125 131 1184 c 0,62,63
 120 1208 120 1208 90 1223.5 c 128,-1,64
 60 1239 60 1239 37.5 1243.5 c 128,-1,65
 15 1248 15 1248 -5 1250 c 1,66,67
 -12 1261 -12 1261 -11.5 1288 c 128,-1,68
 -11 1315 -11 1315 -5 1324 c 1,69,70
 132 1310 132 1310 281 1310 c 0,0,1
EndSplineSet
Substitution2: "'c2sc' Capitals to Small Capitals in Latin lookup 0 subtable" v.sc
EndChar
StartChar: Y
Encoding: 89 89 57
Width: 1248
Flags: W
LayerCount: 2
Fore
SplineSet
467 290 m 2,0,-1
 467 568 l 2,1,2
 467 581 467 581 455 608 c 0,3,4
 433 656 433 656 370.5 772.5 c 128,-1,5
 308 889 308 889 256.5 981.5 c 2,6,-1
 205 1074 l 1,7,8
 172 1136 172 1136 143 1184 c 0,9,10
 124 1216 124 1216 82 1231.5 c 128,-1,11
 40 1247 40 1247 7 1250 c 1,12,13
 -0 1261 -0 1261 0.5 1288 c 128,-1,14
 1 1315 1 1315 7 1324 c 1,15,16
 144 1310 144 1310 293 1310 c 0,17,18
 438 1310 438 1310 575 1324 c 1,19,20
 581 1315 581 1315 581.5 1288 c 128,-1,21
 582 1261 582 1261 575 1250 c 0,22,23
 574 1250 574 1250 564 1249.5 c 128,-1,24
 554 1249 554 1249 549 1248.5 c 128,-1,25
 544 1248 544 1248 532 1246.5 c 128,-1,26
 520 1245 520 1245 513 1243 c 128,-1,27
 506 1241 506 1241 495.5 1238.5 c 128,-1,28
 485 1236 485 1236 478.5 1232 c 128,-1,29
 472 1228 472 1228 465.5 1223 c 128,-1,30
 459 1218 459 1218 456 1211 c 128,-1,31
 453 1204 453 1204 453 1196 c 128,-1,32
 453 1188 453 1188 467 1164 c 2,33,-1
 707 722 l 1,34,35
 714 715 714 715 792.5 853.5 c 128,-1,36
 871 992 871 992 959 1156 c 0,37,38
 969 1176 969 1176 969 1202 c 0,39,40
 969 1239 969 1239 821 1250 c 1,41,42
 814 1261 814 1261 814.5 1288 c 128,-1,43
 815 1315 815 1315 821 1324 c 1,44,45
 986 1310 986 1310 1047 1310 c 0,46,47
 1098 1310 1098 1310 1171.5 1316.5 c 128,-1,48
 1245 1323 1245 1323 1271 1324 c 1,49,50
 1277 1315 1277 1315 1277.5 1288 c 128,-1,51
 1278 1261 1278 1261 1271 1250 c 1,52,-1
 1258.5 1249 l 2,53,54
 1246 1248 1246 1248 1240.5 1247.5 c 128,-1,55
 1235 1247 1235 1247 1221 1245.5 c 128,-1,56
 1207 1244 1207 1244 1198 1241.5 c 128,-1,57
 1189 1239 1189 1239 1176.5 1235.5 c 128,-1,58
 1164 1232 1164 1232 1155 1227 c 128,-1,59
 1146 1222 1146 1222 1137 1215 c 128,-1,60
 1128 1208 1128 1208 1123 1200 c 0,61,62
 1069 1118 1069 1118 931.5 895 c 128,-1,63
 794 672 794 672 757 596 c 0,64,65
 747 576 747 576 747 558 c 2,66,-1
 747 290 l 1,67,68
 745 146 745 146 763 102 c 0,69,70
 773 75 773 75 891 66 c 1,71,72
 898 55 898 55 897.5 28 c 128,-1,73
 897 1 897 1 891 -8 c 1,74,75
 754 6 754 6 605 6 c 0,76,77
 460 6 460 6 323 -8 c 1,78,79
 317 1 317 1 316.5 28 c 128,-1,80
 316 55 316 55 323 66 c 1,81,82
 441 75 441 75 451 102 c 0,83,84
 454 109 454 109 456 116 c 128,-1,85
 458 123 458 123 459.5 132.5 c 128,-1,86
 461 142 461 142 462 149 c 128,-1,87
 463 156 463 156 464 169 c 128,-1,88
 465 182 465 182 465.5 189 c 128,-1,89
 466 196 466 196 466 212.5 c 128,-1,90
 466 229 466 229 466.5 236 c 128,-1,91
 467 243 467 243 467 263 c 128,-1,92
 467 283 467 283 467 290 c 2,0,-1
EndSplineSet
Substitution2: "'c2sc' Capitals to Small Capitals in Latin lookup 0 subtable" y.sc
EndChar
StartChar: backslash
Encoding: 92 92 60
Width: 838
Flags: W
LayerCount: 2
Fore
SplineSet
54 1510 m 1,0,1
 64 1522 64 1522 92 1522 c 0,2,3
 156 1522 156 1522 168 1490 c 0,4,5
 780 -40 780 -40 780 -52 c 1,6,7
 778 -59 778 -59 761 -65.5 c 128,-1,8
 744 -72 744 -72 724 -72 c 0,9,10
 708 -72 708 -72 690 -63.5 c 128,-1,11
 672 -55 672 -55 664 -36 c 0,12,13
 546 262 546 262 345 772.5 c 128,-1,14
 144 1283 144 1283 54 1510 c 1,0,1
EndSplineSet
Substitution2: "'smcp' Lowercase to Small Capitals in Latin lookup 0 subtable" backslash.sc
EndChar
StartChar: b
Encoding: 98 98 66
Width: 1084
Flags: W
LayerCount: 2
Fore
SplineSet
487 -16 m 0,0,1
 428 -16 428 -16 341 7 c 128,-1,2
 254 30 254 30 235 30 c 0,3,4
 194 30 194 30 161 16 c 1,5,6
 155 16 155 16 134 36.5 c 128,-1,7
 113 57 113 57 113 66 c 1,8,9
 137 128 137 128 137 304 c 2,10,-1
 137 1116 l 2,11,12
 137 1178 137 1178 123 1212 c 0,13,14
 116 1228 116 1228 73 1238 c 128,-1,15
 30 1248 30 1248 3 1248 c 0,16,17
 -1 1248 -1 1248 -3 1262.5 c 128,-1,18
 -5 1277 -5 1277 -3.5 1292.5 c 128,-1,19
 -2 1308 -2 1308 3 1312 c 1,20,21
 66 1318 66 1318 128 1328 c 128,-1,22
 190 1338 190 1338 234.5 1348.5 c 128,-1,23
 279 1359 279 1359 314 1368.5 c 128,-1,24
 349 1378 349 1378 368.5 1384 c 128,-1,25
 388 1390 388 1390 389 1390 c 0,26,27
 397 1389 397 1389 407 1376.5 c 128,-1,28
 417 1364 417 1364 419 1356 c 1,29,30
 397 1266 397 1266 397 1154 c 2,31,-1
 397 830 l 2,32,33
 397 824 397 824 397 820.5 c 128,-1,34
 397 817 397 817 398.5 809.5 c 128,-1,35
 400 802 400 802 402 802 c 128,-1,36
 404 802 404 802 409 804 c 1,37,38
 446 834 446 834 504.5 866 c 128,-1,39
 563 898 563 898 607 898 c 0,40,41
 782 898 782 898 902.5 776.5 c 128,-1,42
 1023 655 1023 655 1023 472 c 0,43,44
 1023 379 1023 379 992 299 c 128,-1,45
 961 219 961 219 909 162 c 128,-1,46
 857 105 857 105 788 64 c 128,-1,47
 719 23 719 23 642.5 3.5 c 128,-1,48
 566 -16 566 -16 487 -16 c 0,0,1
507 750 m 0,49,50
 443 750 443 750 403 706 c 0,51,52
 397 700 397 700 397 688 c 2,53,-1
 397 196 l 2,54,55
 397 143 397 143 432.5 107.5 c 128,-1,56
 468 72 468 72 529 72 c 128,-1,57
 590 72 590 72 638.5 121.5 c 128,-1,58
 687 171 687 171 711 243.5 c 128,-1,59
 735 316 735 316 735 392 c 0,60,61
 735 584 735 584 672.5 667 c 128,-1,62
 610 750 610 750 507 750 c 0,49,50
EndSplineSet
Substitution2: "'smcp' Lowercase to Small Capitals in Latin lookup 0 subtable" b.sc
EndChar
StartChar: c
Encoding: 99 99 67
Width: 894
Flags: W
LayerCount: 2
Fore
SplineSet
826 764 m 0,0,1
 826 717 826 717 793.5 678.5 c 128,-1,2
 761 640 761 640 710 640 c 0,3,4
 695 640 695 640 681 645 c 128,-1,5
 667 650 667 650 653 662 c 128,-1,6
 639 674 639 674 631 682 c 128,-1,7
 623 690 623 690 609 707.5 c 128,-1,8
 595 725 595 725 590 730 c 0,9,10
 535 792 535 792 454 792 c 0,11,12
 412 792 412 792 379 748 c 128,-1,13
 346 704 346 704 330 641.5 c 128,-1,14
 314 579 314 579 314 516 c 0,15,16
 314 416 314 416 340.5 341.5 c 128,-1,17
 367 267 367 267 410.5 227 c 128,-1,18
 454 187 454 187 502 168.5 c 128,-1,19
 550 150 550 150 602 150 c 0,20,21
 735 150 735 150 826 250 c 1,22,23
 836 247 836 247 843 235.5 c 128,-1,24
 850 224 850 224 850 214 c 0,25,26
 850 185 850 185 844 176 c 0,27,28
 828 151 828 151 798 121.5 c 128,-1,29
 768 92 768 92 722 59 c 128,-1,30
 676 26 676 26 612.5 4 c 128,-1,31
 549 -18 549 -18 482 -18 c 0,32,33
 369 -18 369 -18 274 31 c 128,-1,34
 179 80 179 80 120.5 176.5 c 128,-1,35
 62 273 62 273 62 400 c 0,36,37
 62 490 62 490 105 580 c 128,-1,38
 148 670 148 670 219 739.5 c 128,-1,39
 290 809 290 809 386.5 852.5 c 128,-1,40
 483 896 483 896 584 896 c 0,41,42
 658 896 658 896 711.5 884.5 c 128,-1,43
 765 873 765 873 786 860 c 1,44,45
 826 816 826 816 826 764 c 0,0,1
EndSplineSet
Substitution2: "'smcp' Lowercase to Small Capitals in Latin lookup 0 subtable" c.sc
EndChar
StartChar: e
Encoding: 101 101 69
Width: 920
Flags: W
LayerCount: 2
Fore
SplineSet
326 564 m 1,0,1
 339 563 339 563 443.5 569 c 128,-1,2
 548 575 548 575 584 580 c 1,3,4
 610 582 610 582 610 612 c 0,5,6
 610 692 610 692 580 752 c 128,-1,7
 550 812 550 812 488 812 c 0,8,9
 447 812 447 812 413.5 783.5 c 128,-1,10
 380 755 380 755 362 713 c 128,-1,11
 344 671 344 671 335 632 c 128,-1,12
 326 593 326 593 326 564 c 1,0,1
324 484 m 1,13,14
 324 404 324 404 345 342 c 128,-1,15
 366 280 366 280 396.5 245 c 128,-1,16
 427 210 427 210 467 187.5 c 128,-1,17
 507 165 507 165 540 157.5 c 128,-1,18
 573 150 573 150 604 150 c 0,19,20
 737 150 737 150 828 250 c 1,21,22
 838 247 838 247 845 235.5 c 128,-1,23
 852 224 852 224 852 214 c 0,24,25
 852 185 852 185 846 176 c 0,26,27
 830 151 830 151 800 121.5 c 128,-1,28
 770 92 770 92 724 59 c 128,-1,29
 678 26 678 26 614.5 4 c 128,-1,30
 551 -18 551 -18 484 -18 c 0,31,32
 371 -18 371 -18 276 31 c 128,-1,33
 181 80 181 80 122.5 176.5 c 128,-1,34
 64 273 64 273 64 400 c 0,35,36
 64 524 64 524 126.5 638.5 c 128,-1,37
 189 753 189 753 292.5 823.5 c 128,-1,38
 396 894 396 894 508 894 c 0,39,40
 583 894 583 894 644.5 873.5 c 128,-1,41
 706 853 706 853 744.5 821 c 128,-1,42
 783 789 783 789 809.5 748 c 128,-1,43
 836 707 836 707 847 668 c 128,-1,44
 858 629 858 629 858 592 c 0,45,46
 858 559 858 559 842 534 c 128,-1,47
 826 509 826 509 804 508 c 0,48,49
 624 492 624 492 324 484 c 1,13,14
EndSplineSet
Substitution2: "'smcp' Lowercase to Small Capitals in Latin lookup 0 subtable" e.sc
EndChar
StartChar: f
Encoding: 102 102 70
Width: 710
Flags: W
LayerCount: 2
Back
SplineSet
612 1396 m 0,0,1
 670 1396 670 1396 740 1376 c 1,2,3
 818 1335 818 1335 818 1284 c 0,4,5
 818 1230 818 1230 790.5 1188 c 128,-1,6
 763 1146 763 1146 716 1146 c 0,7,8
 695 1146 695 1146 674.5 1154.5 c 128,-1,9
 654 1163 654 1163 642.5 1172 c 128,-1,10
 631 1181 631 1181 611.5 1198.5 c 128,-1,11
 592 1216 592 1216 584 1222 c 0,12,13
 547 1252 547 1252 504 1252 c 0,14,15
 480 1252 480 1252 462 1194.5 c 128,-1,16
 444 1137 444 1137 444 1068 c 0,17,18
 444 950 444 950 452 826 c 1,19,-1
 686 826 l 2,20,21
 698 826 698 826 698 800 c 0,22,23
 698 787 698 787 683 765 c 128,-1,24
 668 743 668 743 652 732 c 1,25,-1
 458 732 l 1,26,-1
 458 290 l 2,27,28
 458 145.200195312 458 145.200195312 474 102 c 0,29,30
 484 75 484 75 602 66 c 1,31,32
 609 55 609 55 608.5 28 c 128,-1,33
 608 1 608 1 602 -8 c 1,34,35
 466 6 466 6 328 6 c 128,-1,36
 190 6 190 6 54 -8 c 1,37,38
 48 1 48 1 47.5 28 c 128,-1,39
 47 55 47 55 54 66 c 1,40,41
 172 75 172 75 182 102 c 0,42,43
 198 142 198 142 198 290 c 2,44,-1
 198 732 l 1,45,-1
 56 732 l 1,46,47
 46 736 46 736 46 758 c 1,48,49
 72 794 72 794 110 826 c 1,50,-1
 198 826 l 1,51,-1
 198 886 l 2,52,53
 198 984 198 984 241.5 1080.5 c 128,-1,54
 285 1177 285 1177 348.5 1244.5 c 128,-1,55
 412 1312 412 1312 483.5 1354 c 128,-1,56
 555 1396 555 1396 612 1396 c 0,0,1
EndSplineSet
Fore
SplineSet
612 1396 m 0,0,1
 808 1396 808 1396 818 1284 c 0,2,3
 822.873882683 1237.4437481 822.873882683 1237.4437481 790.5 1188 c 0,4,5
 763 1146 763 1146 711 1146 c 128,-1,6
 659 1146 659 1146 611.5 1198.5 c 0,7,8
 600 1210 600 1210 584 1222 c 0,9,10
 547 1252 547 1252 504 1252 c 0,11,12
 480 1252 480 1252 462 1194.5 c 128,-1,13
 444 1137 444 1137 444 1068 c 0,14,15
 444 950 444 950 452 826 c 1,16,-1
 686 826 l 2,17,18
 698 826 698 826 698 800 c 0,19,20
 698 787 698 787 683 765 c 128,-1,21
 668 743 668 743 652 732 c 1,22,-1
 458 732 l 1,23,-1
 458 290 l 2,24,25
 458 145.200195312 458 145.200195312 474 102 c 0,26,27
 484 75 484 75 602 66 c 1,28,29
 609 55 609 55 608.5 28 c 128,-1,30
 608 1 608 1 602 -8 c 1,31,32
 466 6 466 6 328 6 c 128,-1,33
 190 6 190 6 54 -8 c 1,34,35
 48 1 48 1 47.5 28 c 128,-1,36
 47 55 47 55 54 66 c 1,37,38
 172 75 172 75 182 102 c 0,39,40
 198 142 198 142 198 290 c 2,41,-1
 198 732 l 1,42,-1
 56 732 l 1,43,44
 46 736 46 736 46 758 c 1,45,46
 72 794 72 794 110 826 c 1,47,-1
 198 826 l 1,48,-1
 198 886 l 2,49,50
 198 984 198 984 241.5 1080.5 c 128,-1,51
 285 1177 285 1177 348.5 1244.5 c 128,-1,52
 412 1312 412 1312 483.5 1354 c 128,-1,53
 555 1396 555 1396 612 1396 c 0,0,1
EndSplineSet
Substitution2: "'smcp' Lowercase to Small Capitals in Latin lookup 0 subtable" f.sc
EndChar
StartChar: g
Encoding: 103 103 71
Width: 956
Flags: W
LayerCount: 2
Fore
SplineSet
430 812 m 0,0,1
 393 812 393 812 369.5 795 c 128,-1,2
 346 778 346 778 336 745 c 128,-1,3
 326 712 326 712 323 684 c 128,-1,4
 320 656 320 656 320 614 c 0,5,6
 320 553 320 553 333 500.5 c 128,-1,7
 346 448 346 448 379.5 409 c 128,-1,8
 413 370 413 370 462 370 c 0,9,10
 484 370 484 370 500.5 377 c 128,-1,11
 517 384 517 384 527.5 393.5 c 128,-1,12
 538 403 538 403 545.5 422 c 128,-1,13
 553 441 553 441 556.5 453.5 c 128,-1,14
 560 466 560 466 562 492.5 c 128,-1,15
 564 519 564 519 564 530.5 c 128,-1,16
 564 542 564 542 564 570 c 0,17,18
 564 631 564 631 553 682.5 c 128,-1,19
 542 734 542 734 510.5 773 c 128,-1,20
 479 812 479 812 430 812 c 0,0,1
520 -28 m 2,21,-1
 300 -28 l 1,22,23
 268 -65 268 -65 268 -116 c 0,24,25
 268 -213 268 -213 334.5 -268.5 c 128,-1,26
 401 -324 401 -324 508 -324 c 0,27,28
 576 -324 576 -324 625 -308 c 128,-1,29
 674 -292 674 -292 698.5 -265.5 c 128,-1,30
 723 -239 723 -239 733.5 -212.5 c 128,-1,31
 744 -186 744 -186 744 -158 c 0,32,33
 744 -97 744 -97 681.5 -62.5 c 128,-1,34
 619 -28 619 -28 520 -28 c 2,21,-1
652 192 m 0,35,36
 717 188 717 188 770.5 163 c 128,-1,37
 824 138 824 138 854.5 103.5 c 128,-1,38
 885 69 885 69 901.5 34 c 128,-1,39
 918 -1 918 -1 918 -28 c 0,40,41
 918 -145 918 -145 840.5 -240 c 128,-1,42
 763 -335 763 -335 641 -385.5 c 128,-1,43
 519 -436 519 -436 382 -436 c 0,44,45
 235 -436 235 -436 141.5 -372 c 128,-1,46
 48 -308 48 -308 48 -206 c 0,47,48
 48 -151 48 -151 100.5 -97.5 c 128,-1,49
 153 -44 153 -44 218 -12 c 1,50,51
 168 1 168 1 133 60 c 128,-1,52
 98 119 98 119 98 184 c 0,53,54
 98 209 98 209 149.5 252 c 128,-1,55
 201 295 201 295 264 330 c 1,56,57
 178 365 178 365 128 434 c 128,-1,58
 78 503 78 503 78 588 c 0,59,60
 78 713 78 713 182.5 799.5 c 128,-1,61
 287 886 287 886 440 886 c 0,62,63
 580 886 580 886 654 836 c 1,64,65
 660 830 660 830 666 830 c 2,66,-1
 916 854 l 1,67,68
 938 847 938 847 938 832 c 0,69,70
 938 820 938 820 920 781 c 128,-1,71
 902 742 902 742 888 732 c 1,72,73
 850 735 850 735 776 744 c 1,74,75
 764 744 764 744 764 738 c 1,76,77
 806 680 806 680 806 598 c 0,78,79
 806 472 806 472 701.5 384 c 128,-1,80
 597 296 597 296 444 296 c 0,81,82
 393 296 393 296 340 306 c 1,83,84
 292 267 292 267 292 244 c 0,85,86
 292 222 292 222 321 208 c 128,-1,87
 350 194 350 194 388 194 c 0,88,89
 617 194 617 194 652 192 c 0,35,36
EndSplineSet
Substitution2: "'smcp' Lowercase to Small Capitals in Latin lookup 0 subtable" g.sc
EndChar
StartChar: h
Encoding: 104 104 72
Width: 1166
Flags: W
LayerCount: 2
Fore
SplineSet
735 892 m 0,0,1
 803 892 803 892 851 872.5 c 128,-1,2
 899 853 899 853 929.5 817.5 c 128,-1,3
 960 782 960 782 977 722 c 128,-1,4
 994 662 994 662 1000.5 591.5 c 128,-1,5
 1007 521 1007 521 1007 420 c 2,6,-1
 1007 290 l 2,7,8
 1007 142 1007 142 1023 102 c 0,9,10
 1033 75 1033 75 1151 66 c 1,11,12
 1158 55 1158 55 1157.5 28 c 128,-1,13
 1157 1 1157 1 1151 -8 c 1,14,15
 1014 6 1014 6 877 6 c 0,16,17
 764 6 764 6 627 -8 c 1,18,19
 621 1 621 1 620.5 28 c 128,-1,20
 620 55 620 55 627 66 c 1,21,22
 720 73 720 73 731 102 c 0,23,24
 747 142 747 142 747 290 c 2,25,-1
 747 448 l 2,26,27
 747 730 747 730 613 730 c 0,28,29
 556 730 556 730 496.5 690 c 128,-1,30
 437 650 437 650 437 618 c 2,31,-1
 437 290 l 2,32,33
 437 142 437 142 453 102 c 0,34,35
 464 74 464 74 567 66 c 1,36,37
 574 55 574 55 573.5 28 c 128,-1,38
 573 1 573 1 567 -8 c 1,39,40
 430 6 430 6 307 6 c 0,41,42
 170 6 170 6 33 -8 c 1,43,44
 27 1 27 1 26.5 28 c 128,-1,45
 26 55 26 55 33 66 c 1,46,47
 151 75 151 75 161 102 c 0,48,49
 177 142 177 142 177 290 c 2,50,-1
 177 1116 l 2,51,52
 177 1178 177 1178 163 1212 c 0,53,54
 156 1228 156 1228 113 1238 c 128,-1,55
 70 1248 70 1248 43 1248 c 0,56,57
 39 1248 39 1248 37 1262.5 c 128,-1,58
 35 1277 35 1277 36.5 1292.5 c 128,-1,59
 38 1308 38 1308 43 1312 c 1,60,61
 106 1318 106 1318 168 1328 c 128,-1,62
 230 1338 230 1338 274.5 1348.5 c 128,-1,63
 319 1359 319 1359 354 1368.5 c 128,-1,64
 389 1378 389 1378 408.5 1384 c 128,-1,65
 428 1390 428 1390 429 1390 c 0,66,67
 437 1389 437 1389 447 1376.5 c 128,-1,68
 457 1364 457 1364 459 1356 c 1,69,70
 437 1232 437 1232 437 1152 c 2,71,-1
 437 744 l 2,72,73
 437 734 437 734 439 732 c 1,74,75
 443 732 443 732 453 742 c 0,76,77
 499 795 499 795 584.5 843.5 c 128,-1,78
 670 892 670 892 735 892 c 0,0,1
EndSplineSet
Substitution2: "'smcp' Lowercase to Small Capitals in Latin lookup 0 subtable" h.sc
EndChar
StartChar: k
Encoding: 107 107 75
Width: 1180
Flags: W
LayerCount: 2
Fore
SplineSet
437 290 m 2,0,1
 437 142 437 142 453 102 c 0,2,3
 463 75 463 75 581 66 c 1,4,5
 588 55 588 55 587.5 28 c 128,-1,6
 587 1 587 1 581 -8 c 1,7,8
 444 6 444 6 307 6 c 128,-1,9
 170 6 170 6 33 -8 c 1,10,11
 27 1 27 1 26.5 28 c 128,-1,12
 26 55 26 55 33 66 c 1,13,14
 151 75 151 75 161 102 c 0,15,16
 177 142 177 142 177 290 c 2,17,-1
 177 1116 l 2,18,19
 177 1178 177 1178 163 1212 c 0,20,21
 156 1228 156 1228 113 1238 c 128,-1,22
 70 1248 70 1248 43 1248 c 0,23,24
 39 1248 39 1248 37 1262.5 c 128,-1,25
 35 1277 35 1277 36.5 1292.5 c 128,-1,26
 38 1308 38 1308 43 1312 c 1,27,28
 106 1318 106 1318 168 1328 c 128,-1,29
 230 1338 230 1338 274.5 1348.5 c 128,-1,30
 319 1359 319 1359 354 1368.5 c 128,-1,31
 389 1378 389 1378 408.5 1384 c 128,-1,32
 428 1390 428 1390 429 1390 c 0,33,34
 437 1389 437 1389 447 1376.5 c 128,-1,35
 457 1364 457 1364 459 1356 c 1,36,37
 437 1232 437 1232 437 1152 c 2,38,-1
 435 472 l 1,39,40
 488 491 488 491 585 574 c 0,41,42
 688 662 688 662 724.5 702.5 c 128,-1,43
 761 743 761 743 761 766 c 0,44,45
 761 782 761 782 715 795 c 128,-1,46
 669 808 669 808 633 810 c 1,47,48
 628 823 628 823 629 849 c 128,-1,49
 630 875 630 875 637 878 c 1,50,51
 815 870 815 870 899 870 c 0,52,53
 931 870 931 870 964.5 871.5 c 128,-1,54
 998 873 998 873 1043.5 876 c 128,-1,55
 1089 879 1089 879 1121 880 c 1,56,57
 1130 865 1130 865 1127 840 c 128,-1,58
 1124 815 1124 815 1115 810 c 1,59,60
 989 798 989 798 917 748 c 0,61,62
 899 735 899 735 861.5 701.5 c 128,-1,63
 824 668 824 668 762 611 c 128,-1,64
 700 554 700 554 653 512 c 1,65,66
 735 416 735 416 819 325 c 128,-1,67
 903 234 903 234 937 196 c 0,68,69
 976 152 976 152 1010 125.5 c 128,-1,70
 1044 99 1044 99 1075 88 c 128,-1,71
 1106 77 1106 77 1125 74.5 c 128,-1,72
 1144 72 1144 72 1175 72 c 1,73,74
 1182 51 1182 51 1180.5 35 c 128,-1,75
 1179 19 1179 19 1175 12 c 1,76,77
 1150 3 1150 3 1089.5 -4.5 c 128,-1,78
 1029 -12 1029 -12 973 -12 c 0,79,80
 888 -12 888 -12 816.5 20 c 128,-1,81
 745 52 745 52 699 106 c 1,82,83
 561 254 561 254 463 376 c 0,84,85
 459 381 459 381 452.5 387.5 c 128,-1,86
 446 394 446 394 441.5 398 c 2,87,-1
 437 402 l 1,88,-1
 437 290 l 2,0,1
EndSplineSet
Substitution2: "'smcp' Lowercase to Small Capitals in Latin lookup 0 subtable" k.sc
EndChar
StartChar: l
Encoding: 108 108 76
Width: 612
Flags: W
LayerCount: 2
Fore
SplineSet
177 1116 m 2,0,1
 177 1178 177 1178 163 1212 c 0,2,3
 156 1228 156 1228 113 1238 c 128,-1,4
 70 1248 70 1248 43 1248 c 0,5,6
 39 1248 39 1248 37 1262.5 c 128,-1,7
 35 1277 35 1277 36.5 1292.5 c 128,-1,8
 38 1308 38 1308 43 1312 c 1,9,10
 106 1318 106 1318 168 1328 c 128,-1,11
 230 1338 230 1338 274.5 1348.5 c 128,-1,12
 319 1359 319 1359 354 1368.5 c 128,-1,13
 389 1378 389 1378 408.5 1384 c 128,-1,14
 428 1390 428 1390 429 1390 c 0,15,16
 437 1389 437 1389 447 1376.5 c 128,-1,17
 457 1364 457 1364 459 1356 c 1,18,19
 437 1232 437 1232 437 1152 c 2,20,-1
 437 290 l 2,21,22
 437 142 437 142 453 102 c 0,23,24
 463 75 463 75 581 66 c 1,25,26
 588 55 588 55 587.5 28 c 128,-1,27
 587 1 587 1 581 -8 c 1,28,29
 444 6 444 6 307 6 c 128,-1,30
 170 6 170 6 33 -8 c 1,31,32
 27 1 27 1 26.5 28 c 128,-1,33
 26 55 26 55 33 66 c 1,34,35
 151 75 151 75 161 102 c 0,36,37
 177 142 177 142 177 290 c 2,38,-1
 177 1116 l 2,0,1
EndSplineSet
Substitution2: "'smcp' Lowercase to Small Capitals in Latin lookup 0 subtable" l.sc
EndChar
StartChar: m
Encoding: 109 109 77
Width: 1766
Flags: W
LayerCount: 2
Fore
SplineSet
761 892 m 0,0,1
 858 892 858 892 914.5 853.5 c 128,-1,2
 971 815 971 815 1007 720 c 1,3,4
 1075 787 1075 787 1171.5 839.5 c 128,-1,5
 1268 892 1268 892 1335 892 c 0,6,7
 1403 892 1403 892 1451 872.5 c 128,-1,8
 1499 853 1499 853 1529.5 817.5 c 128,-1,9
 1560 782 1560 782 1577 722 c 128,-1,10
 1594 662 1594 662 1600.5 591.5 c 128,-1,11
 1607 521 1607 521 1607 420 c 2,12,-1
 1607 290 l 2,13,14
 1607 142 1607 142 1623 102 c 0,15,16
 1633 75 1633 75 1751 66 c 1,17,18
 1758 55 1758 55 1757.5 28 c 128,-1,19
 1757 1 1757 1 1751 -8 c 1,20,21
 1614 6 1614 6 1477 6 c 0,22,23
 1364 6 1364 6 1227 -8 c 1,24,25
 1221 1 1221 1 1220.5 28 c 128,-1,26
 1220 55 1220 55 1227 66 c 1,27,28
 1320 73 1320 73 1331 102 c 0,29,30
 1347 142 1347 142 1347 290 c 2,31,-1
 1347 448 l 2,32,33
 1347 730 1347 730 1213 730 c 0,34,35
 1155 730 1155 730 1090 690.5 c 128,-1,36
 1025 651 1025 651 1025 620 c 2,37,-1
 1025 608 l 1,38,39
 1033 496 1033 496 1033 420 c 2,40,-1
 1033 290 l 2,41,42
 1033 142 1033 142 1049 102 c 0,43,44
 1059 75 1059 75 1173 66 c 1,45,46
 1180 55 1180 55 1179.5 28 c 128,-1,47
 1179 1 1179 1 1173 -8 c 1,48,49
 1036 6 1036 6 903 6 c 0,50,51
 786 6 786 6 649 -8 c 1,52,53
 643 1 643 1 642.5 28 c 128,-1,54
 642 55 642 55 649 66 c 1,55,56
 746 73 746 73 757 102 c 0,57,58
 773 142 773 142 773 290 c 2,59,-1
 773 448 l 2,60,61
 773 730 773 730 639 730 c 0,62,63
 582 730 582 730 522.5 690 c 128,-1,64
 463 650 463 650 463 618 c 2,65,-1
 463 290 l 2,66,67
 463 142 463 142 479 102 c 0,68,69
 490 74 490 74 593 66 c 1,70,71
 600 55 600 55 599.5 28 c 128,-1,72
 599 1 599 1 593 -8 c 1,73,74
 456 6 456 6 333 6 c 0,75,76
 196 6 196 6 59 -8 c 1,77,78
 53 1 53 1 52.5 28 c 128,-1,79
 52 55 52 55 59 66 c 1,80,81
 177 75 177 75 187 102 c 0,82,83
 203 142 203 142 203 290 c 2,84,-1
 203 520 l 2,85,86
 203 650 203 650 185 684 c 0,87,88
 175 703 175 703 128.5 713.5 c 128,-1,89
 82 724 82 724 59 724 c 1,90,91
 54 727 54 727 54 756.5 c 128,-1,92
 54 786 54 786 61 786 c 0,93,94
 165 794 165 794 274.5 826 c 128,-1,95
 384 858 384 858 451 892 c 1,96,97
 461 889 461 889 473 876 c 128,-1,98
 485 863 485 863 485 858 c 1,99,100
 481 847 481 847 472 796.5 c 128,-1,101
 463 746 463 746 465 744 c 1,102,103
 465 734 465 734 467 732 c 1,104,105
 471 732 471 732 481 742 c 0,106,107
 528 795 528 795 612.5 843.5 c 128,-1,108
 697 892 697 892 761 892 c 0,0,1
EndSplineSet
Substitution2: "'smcp' Lowercase to Small Capitals in Latin lookup 0 subtable" m.sc
EndChar
StartChar: n
Encoding: 110 110 78
Width: 1192
Flags: W
LayerCount: 2
Fore
SplineSet
761 892 m 0,0,1
 829 892 829 892 877 872.5 c 128,-1,2
 925 853 925 853 955.5 817.5 c 128,-1,3
 986 782 986 782 1003 722 c 128,-1,4
 1020 662 1020 662 1026.5 591.5 c 128,-1,5
 1033 521 1033 521 1033 420 c 2,6,-1
 1033 290 l 2,7,8
 1033 142 1033 142 1049 102 c 0,9,10
 1059 75 1059 75 1177 66 c 1,11,12
 1184 55 1184 55 1183.5 28 c 128,-1,13
 1183 1 1183 1 1177 -8 c 1,14,15
 1040 6 1040 6 903 6 c 0,16,17
 790 6 790 6 653 -8 c 1,18,19
 647 1 647 1 646.5 28 c 128,-1,20
 646 55 646 55 653 66 c 1,21,22
 746 73 746 73 757 102 c 0,23,24
 773 142 773 142 773 290 c 2,25,-1
 773 448 l 2,26,27
 773 730 773 730 639 730 c 0,28,29
 582 730 582 730 522.5 690 c 128,-1,30
 463 650 463 650 463 618 c 2,31,-1
 463 290 l 2,32,33
 463 142 463 142 479 102 c 0,34,35
 490 74 490 74 593 66 c 1,36,37
 600 55 600 55 599.5 28 c 128,-1,38
 599 1 599 1 593 -8 c 1,39,40
 456 6 456 6 333 6 c 0,41,42
 196 6 196 6 59 -8 c 1,43,44
 53 1 53 1 52.5 28 c 128,-1,45
 52 55 52 55 59 66 c 1,46,47
 177 75 177 75 187 102 c 0,48,49
 203 142 203 142 203 290 c 2,50,-1
 203 520 l 2,51,52
 203 650 203 650 185 684 c 0,53,54
 175 703 175 703 128.5 713.5 c 128,-1,55
 82 724 82 724 59 724 c 1,56,57
 54 727 54 727 54 756.5 c 128,-1,58
 54 786 54 786 61 786 c 0,59,60
 165 794 165 794 274.5 826 c 128,-1,61
 384 858 384 858 451 892 c 1,62,63
 460 892 460 892 472.5 879 c 128,-1,64
 485 866 485 866 485 858 c 1,65,66
 483 851 483 851 478 823 c 128,-1,67
 473 795 473 795 469 770 c 128,-1,68
 465 745 465 745 465 744 c 0,69,70
 465 734 465 734 467 732 c 1,71,72
 471 732 471 732 481 742 c 0,73,74
 528 795 528 795 612.5 843.5 c 128,-1,75
 697 892 697 892 761 892 c 0,0,1
EndSplineSet
Substitution2: "'smcp' Lowercase to Small Capitals in Latin lookup 0 subtable" n.sc
EndChar
StartChar: o
Encoding: 111 111 79
Width: 1064
Flags: W
LayerCount: 2
Fore
SplineSet
508 812 m 3,0,1
 456 812 456 812 422 781.5 c 128,-1,2
 388 751 388 751 373 695.5 c 128,-1,3
 358 640 358 640 353 590 c 128,-1,4
 348 540 348 540 348 474 c 0,5,6
 348 379 348 379 368 290.5 c 128,-1,7
 388 202 388 202 436.5 136 c 128,-1,8
 485 70 485 70 554 70 c 0,9,10
 596 70 596 70 627 91.5 c 128,-1,11
 658 113 658 113 674.5 145 c 128,-1,12
 691 177 691 177 701 225 c 128,-1,13
 711 273 711 273 713.5 313 c 128,-1,14
 716 353 716 353 716 404 c 0,15,16
 716 500 716 500 695.5 589.5 c 128,-1,17
 675 679 675 679 626 745.5 c 128,-1,18
 577 812 577 812 508 812 c 3,0,1
530 894 m 0,19,20
 736 894 736 894 868 768 c 128,-1,21
 1000 642 1000 642 1000 450 c 0,22,23
 1000 325 1000 325 939 218.5 c 128,-1,24
 878 112 878 112 770.5 49 c 128,-1,25
 663 -14 663 -14 534 -14 c 0,26,27
 328 -14 328 -14 196 114.5 c 128,-1,28
 64 243 64 243 64 434 c 0,29,30
 64 624 64 624 199.5 759 c 128,-1,31
 335 894 335 894 530 894 c 0,19,20
EndSplineSet
Substitution2: "'smcp' Lowercase to Small Capitals in Latin lookup 0 subtable" o.sc
EndChar
StartChar: t
Encoding: 116 116 84
Width: 684
Flags: W
LayerCount: 2
Fore
SplineSet
424 856 m 1,0,1
 652 856 l 2,2,3
 664 856 664 856 664 830 c 0,4,5
 664 817 664 817 649 795 c 128,-1,6
 634 773 634 773 618 762 c 1,7,-1
 424 762 l 1,8,-1
 424 266 l 2,9,10
 424 187 424 187 450 150.5 c 128,-1,11
 476 114 476 114 532 114 c 0,12,13
 563 114 563 114 594.5 132 c 128,-1,14
 626 150 626 150 638 162 c 1,15,16
 652 148 652 148 652 134 c 0,17,18
 652 127 652 127 646 113.5 c 128,-1,19
 640 100 640 100 636 96 c 0,20,21
 620 78 620 78 596 57.5 c 128,-1,22
 572 37 572 37 521.5 11.5 c 128,-1,23
 471 -14 471 -14 424 -14 c 0,24,25
 385 -14 385 -14 349.5 -5.5 c 128,-1,26
 314 3 314 3 279.5 24.5 c 128,-1,27
 245 46 245 46 220 78.5 c 128,-1,28
 195 111 195 111 179.5 162 c 128,-1,29
 164 213 164 213 164 278 c 2,30,-1
 164 762 l 1,31,-1
 22 762 l 1,32,33
 12 766 12 766 12 788 c 1,34,35
 38 824 38 824 76 856 c 1,36,-1
 164 856 l 1,37,-1
 164 962 l 1,38,39
 209 1000 209 1000 290 1085.5 c 128,-1,40
 371 1171 371 1171 374 1174 c 1,41,42
 391 1184 391 1184 406.5 1183.5 c 128,-1,43
 422 1183 422 1183 424 1174 c 1,44,-1
 424 856 l 1,0,1
EndSplineSet
Substitution2: "'smcp' Lowercase to Small Capitals in Latin lookup 0 subtable" t.sc
EndChar
StartChar: u
Encoding: 117 117 85
Width: 1132
Flags: W
LayerCount: 2
Fore
SplineSet
711 520 m 2,0,1
 711 650 711 650 693 684 c 0,2,3
 683 703 683 703 636.5 713.5 c 128,-1,4
 590 724 590 724 567 724 c 1,5,6
 562 727 562 727 562 756.5 c 128,-1,7
 562 786 562 786 569 786 c 0,8,9
 673 794 673 794 782.5 826 c 128,-1,10
 892 858 892 858 959 892 c 1,11,12
 969 889 969 889 981 876 c 128,-1,13
 993 863 993 863 993 858 c 1,14,15
 989 846 989 846 982 805.5 c 128,-1,16
 975 765 975 765 973 744 c 1,17,18
 971 700 971 700 971 618 c 2,19,-1
 971 216 l 2,20,21
 971 160 971 160 989 140 c 128,-1,22
 1007 120 1007 120 1079 120 c 1,23,24
 1085 114 1085 114 1085 94 c 128,-1,25
 1085 74 1085 74 1073 56 c 1,26,27
 1022 51 1022 51 941 33.5 c 128,-1,28
 860 16 860 16 799.5 1 c 128,-1,29
 739 -14 739 -14 729 -14 c 0,30,31
 722 -14 722 -14 716.5 -0.5 c 128,-1,32
 711 13 711 13 711 34 c 2,33,-1
 711 66 l 2,34,35
 711 80 711 80 705 76 c 0,36,37
 681 60 681 60 648.5 43 c 128,-1,38
 616 26 616 26 551.5 8 c 128,-1,39
 487 -10 487 -10 423 -10 c 0,40,41
 353 -10 353 -10 301.5 19 c 128,-1,42
 250 48 250 48 221.5 99.5 c 128,-1,43
 193 151 193 151 180 212.5 c 128,-1,44
 167 274 167 274 167 348 c 2,45,-1
 167 520 l 2,46,47
 167 650 167 650 149 684 c 0,48,49
 139 703 139 703 92.5 713.5 c 128,-1,50
 46 724 46 724 23 724 c 1,51,52
 18 727 18 727 18 756.5 c 128,-1,53
 18 786 18 786 25 786 c 0,54,55
 129 794 129 794 238.5 826 c 128,-1,56
 348 858 348 858 415 892 c 1,57,58
 425 889 425 889 437 876 c 128,-1,59
 449 863 449 863 449 858 c 1,60,61
 445 846 445 846 438 805.5 c 128,-1,62
 431 765 431 765 429 744 c 1,63,64
 427 700 427 700 427 618 c 2,65,-1
 427 438 l 2,66,67
 427 269 427 269 460.5 190.5 c 128,-1,68
 494 112 494 112 583 112 c 0,69,70
 624 112 624 112 667.5 137.5 c 128,-1,71
 711 163 711 163 711 186 c 2,72,-1
 711 520 l 2,0,1
EndSplineSet
Substitution2: "'smcp' Lowercase to Small Capitals in Latin lookup 0 subtable" u.sc
EndChar
StartChar: z
Encoding: 122 122 90
Width: 920
Flags: W
LayerCount: 2
Fore
SplineSet
300 856 m 2,0,-1
 576 856 l 2,1,2
 703 856 703 856 834 872 c 1,3,4
 840 862 840 862 840 824 c 1,5,-1
 354 92 l 1,6,-1
 582 92 l 2,7,8
 664 92 664 92 720.5 157.5 c 128,-1,9
 777 223 777 223 792 294 c 0,10,11
 795 308 795 308 818 308 c 0,12,13
 828 308 828 308 840 303 c 128,-1,14
 852 298 852 298 859 294 c 128,-1,15
 866 290 866 290 868 288 c 1,16,17
 856 253 856 253 836 181 c 128,-1,18
 816 109 816 109 802 54.5 c 2,19,-1
 788 0 l 1,20,-1
 78 0 l 1,21,22
 58 16 58 16 58 34 c 128,-1,23
 58 52 58 52 66 68 c 1,24,-1
 514 762 l 1,25,26
 370 764 370 764 306 764 c 0,27,28
 277 764 277 764 252 750 c 128,-1,29
 227 736 227 736 211.5 718.5 c 128,-1,30
 196 701 196 701 181 671.5 c 128,-1,31
 166 642 166 642 159.5 623.5 c 128,-1,32
 153 605 153 605 144 576 c 0,33,34
 140 562 140 562 98 562 c 0,35,36
 74 562 74 562 74 570 c 1,37,38
 101 716 101 716 110 868 c 1,39,40
 228 856 228 856 300 856 c 2,0,-1
EndSplineSet
Substitution2: "'smcp' Lowercase to Small Capitals in Latin lookup 0 subtable" z.sc
EndChar
StartChar: braceleft
Encoding: 123 123 91
Width: 596
Flags: W
LayerCount: 2
Fore
SplineSet
214 848 m 0,0,1
 214 869 214 869 210 893 c 128,-1,2
 206 917 206 917 203 929.5 c 128,-1,3
 200 942 200 942 191 971.5 c 128,-1,4
 182 1001 182 1001 180 1008 c 0,5,6
 160 1073 160 1073 160 1132 c 128,-1,7
 160 1191 160 1191 189 1251 c 128,-1,8
 218 1311 218 1311 262 1356.5 c 128,-1,9
 306 1402 306 1402 357 1439 c 128,-1,10
 408 1476 408 1476 454 1497 c 128,-1,11
 500 1518 500 1518 530 1520 c 0,12,13
 536 1520 536 1520 544 1499.5 c 128,-1,14
 552 1479 552 1479 544 1468 c 1,15,16
 488 1438 488 1438 438 1371.5 c 128,-1,17
 388 1305 388 1305 388 1218 c 0,18,19
 388 1202 388 1202 388.5 1187.5 c 128,-1,20
 389 1173 389 1173 391.5 1159.5 c 128,-1,21
 394 1146 394 1146 395 1138.5 c 128,-1,22
 396 1131 396 1131 400.5 1118 c 128,-1,23
 405 1105 405 1105 406 1102 c 128,-1,24
 407 1099 407 1099 413 1084 c 128,-1,25
 419 1069 419 1069 419 1068 c 0,26,27
 444 1003 444 1003 444 918 c 0,28,29
 444 857 444 857 415.5 798 c 128,-1,30
 387 739 387 739 347 701 c 128,-1,31
 307 663 307 663 265.5 639.5 c 128,-1,32
 224 616 224 616 196 616 c 1,33,34
 224 616 224 616 265.5 592.5 c 128,-1,35
 307 569 307 569 347 531 c 128,-1,36
 387 493 387 493 415.5 434 c 128,-1,37
 444 375 444 375 444 314 c 0,38,39
 444 229 444 229 419 164 c 0,40,41
 418 161 418 161 413.5 150 c 128,-1,42
 409 139 409 139 407.5 135 c 128,-1,43
 406 131 406 131 402.5 120.5 c 128,-1,44
 399 110 399 110 397.5 104 c 128,-1,45
 396 98 396 98 394 86.5 c 128,-1,46
 392 75 392 75 391 65 c 128,-1,47
 390 55 390 55 389 41.5 c 128,-1,48
 388 28 388 28 388 14 c 0,49,50
 388 -73 388 -73 438 -139.5 c 128,-1,51
 488 -206 488 -206 544 -236 c 1,52,53
 552 -247 552 -247 544 -267.5 c 128,-1,54
 536 -288 536 -288 530 -288 c 0,55,56
 500 -286 500 -286 454 -265 c 128,-1,57
 408 -244 408 -244 357 -207 c 128,-1,58
 306 -170 306 -170 262 -124.5 c 128,-1,59
 218 -79 218 -79 189 -19 c 128,-1,60
 160 41 160 41 160 100 c 0,61,62
 160 162 160 162 188 252 c 0,63,64
 214 336 214 336 214 384 c 0,65,66
 214 458 214 458 161 515 c 128,-1,67
 108 572 108 572 38 594 c 1,68,69
 32 600 32 600 32 616 c 128,-1,70
 32 632 32 632 38 638 c 1,71,72
 108 660 108 660 161 717 c 128,-1,73
 214 774 214 774 214 848 c 0,0,1
EndSplineSet
Substitution2: "'smcp' Lowercase to Small Capitals in Latin lookup 0 subtable" braceleft.sc
EndChar
StartChar: bar
Encoding: 124 124 92
Width: 404
Flags: W
LayerCount: 2
Fore
SplineSet
255 -216 m 2,0,1
 255 -226 255 -226 212.5 -236 c 128,-1,2
 170 -246 170 -246 159 -246 c 0,3,4
 154 -246 154 -246 151.5 -244.5 c 128,-1,5
 149 -243 149 -243 148.5 -241.5 c 128,-1,6
 148 -240 148 -240 148.5 -235.5 c 128,-1,7
 149 -231 149 -231 149 -230 c 2,8,-1
 149 1514 l 1,9,10
 147 1526 147 1526 159 1530 c 0,11,12
 193 1540 193 1540 237 1540 c 0,13,14
 245 1540 245 1540 249 1537 c 128,-1,15
 253 1534 253 1534 253 1531 c 2,16,-1
 253 1528 l 1,17,-1
 255 -216 l 2,0,1
EndSplineSet
Substitution2: "'smcp' Lowercase to Small Capitals in Latin lookup 0 subtable" bar.sc
EndChar
StartChar: asciitilde
Encoding: 126 126 94
Width: 1100
Flags: W
LayerCount: 2
Fore
SplineSet
522 546 m 0,0,1
 517 548 517 548 487.5 560 c 128,-1,2
 458 572 458 572 447.5 576 c 128,-1,3
 437 580 437 580 410.5 589 c 128,-1,4
 384 598 384 598 367.5 601.5 c 128,-1,5
 351 605 351 605 327.5 608.5 c 128,-1,6
 304 612 304 612 282 612 c 0,7,8
 230 612 230 612 182 581 c 128,-1,9
 134 550 134 550 110 518 c 1,10,11
 99 522 99 522 96 534 c 1,12,13
 96 596 96 596 176 664 c 128,-1,14
 256 732 256 732 342 732 c 0,15,16
 385 732 385 732 436 719.5 c 128,-1,17
 487 707 487 707 512 697 c 128,-1,18
 537 687 537 687 590 664 c 0,19,20
 594 663 594 663 615.5 653.5 c 128,-1,21
 637 644 637 644 644 641.5 c 128,-1,22
 651 639 651 639 671.5 631 c 128,-1,23
 692 623 692 623 702.5 620 c 128,-1,24
 713 617 713 617 732 611.5 c 128,-1,25
 751 606 751 606 764.5 604 c 128,-1,26
 778 602 778 602 796 600 c 128,-1,27
 814 598 814 598 830 598 c 0,28,29
 882 598 882 598 930 629 c 128,-1,30
 978 660 978 660 1002 692 c 1,31,32
 1013 688 1013 688 1016 676 c 1,33,34
 1016 614 1016 614 936 546 c 128,-1,35
 856 478 856 478 770 478 c 0,36,37
 747 478 747 478 722.5 481.5 c 128,-1,38
 698 485 698 485 680.5 489 c 128,-1,39
 663 493 663 493 636 502 c 128,-1,40
 609 511 609 511 597.5 515.5 c 128,-1,41
 586 520 586 520 557 532 c 128,-1,42
 528 544 528 544 522 546 c 0,0,1
EndSplineSet
EndChar
StartChar: exclamdown
Encoding: 161 161 96
Width: 494
Flags: W
LayerCount: 2
Fore
SplineSet
98 738 m 0,0,1
 98 798 98 798 141.5 842 c 128,-1,2
 185 886 185 886 246 886 c 0,3,4
 309 886 309 886 353.5 841 c 128,-1,5
 398 796 398 796 398 732 c 0,6,7
 398 672 398 672 354 629 c 128,-1,8
 310 586 310 586 248 586 c 128,-1,9
 186 586 186 586 142 631.5 c 128,-1,10
 98 677 98 677 98 738 c 0,0,1
240 -420 m 0,11,12
 190 -420 190 -420 153 -383 c 128,-1,13
 116 -346 116 -346 116 -284 c 0,14,15
 116 -244 116 -244 147.5 18.5 c 128,-1,16
 179 281 179 281 200 422 c 1,17,18
 213 465 213 465 240 474 c 1,19,20
 248 474 248 474 263 464 c 128,-1,21
 278 454 278 454 286 440 c 1,22,23
 306 318 306 318 339 50.5 c 128,-1,24
 372 -217 372 -217 372 -286 c 0,25,26
 372 -347 372 -347 334 -383.5 c 128,-1,27
 296 -420 296 -420 240 -420 c 0,11,12
EndSplineSet
Substitution2: "'smcp' Lowercase to Small Capitals in Latin lookup 0 subtable" exclamdown.sc
EndChar
StartChar: cent
Encoding: 162 162 97
Width: 964
Flags: W
LayerCount: 2
Fore
SplineSet
562 962 m 17,0,1
 632 962 632 962 632 946 c 1,2,-1
 466 -76 l 1,3,4
 448 -76 448 -76 424 -71 c 0,5,6
 400 -66 400 -66 396 -58 c 1,7,-1
 562 962 l 17,0,1
EndSplineSet
Refer: 67 99 N 1 0 0 1 26 0 2
EndChar
StartChar: yen
Encoding: 165 165 100
Width: 1384
UnlinkRmOvrlpSave: 1
Flags: W
LayerCount: 2
Fore
SplineSet
365 382 m 2,0,1
 997 382 l 1,2,3
 1011 370 1011 370 1007 352 c 128,-1,4
 1003 334 1003 334 993.5 318.5 c 128,-1,5
 984 303 984 303 977 298 c 1,6,-1
 325 298 l 1,7,8
 316 307 316 307 334 344.5 c 128,-1,9
 352 382 352 382 365 382 c 2,0,1
365 542 m 2,10,-1
 997 542 l 1,11,12
 1011 530 1011 530 1007 512 c 128,-1,13
 1003 494 1003 494 993.5 478.5 c 128,-1,14
 984 463 984 463 977 458 c 1,15,-1
 325 458 l 1,16,17
 316 467 316 467 334 504.5 c 128,-1,18
 352 542 352 542 365 542 c 2,10,-1
523 290 m 2,19,-1
 523 528 l 2,20,21
 523 542 523 542 516 560 c 0,22,23
 498 602 498 602 434 721 c 128,-1,24
 370 840 370 840 315.5 938 c 2,25,-1
 261 1036 l 1,26,27
 228 1098 228 1098 199 1146 c 0,28,29
 180 1178 180 1178 138 1193.5 c 128,-1,30
 96 1209 96 1209 63 1212 c 1,31,32
 56 1223 56 1223 56.5 1250 c 128,-1,33
 57 1277 57 1277 63 1286 c 1,34,35
 200 1272 200 1272 349 1272 c 0,36,37
 494 1272 494 1272 631 1286 c 1,38,39
 637 1277 637 1277 637.5 1250 c 128,-1,40
 638 1223 638 1223 631 1212 c 0,41,42
 630 1212 630 1212 620 1211.5 c 128,-1,43
 610 1211 610 1211 605 1210.5 c 128,-1,44
 600 1210 600 1210 588 1208.5 c 128,-1,45
 576 1207 576 1207 569 1205 c 128,-1,46
 562 1203 562 1203 551.5 1200.5 c 128,-1,47
 541 1198 541 1198 534.5 1194 c 128,-1,48
 528 1190 528 1190 521.5 1185 c 128,-1,49
 515 1180 515 1180 512 1173 c 128,-1,50
 509 1166 509 1166 509 1158 c 128,-1,51
 509 1150 509 1150 523 1126 c 2,52,-1
 763 684 l 1,53,54
 770 677 770 677 848.5 815.5 c 128,-1,55
 927 954 927 954 1015 1118 c 0,56,57
 1025 1138 1025 1138 1025 1164 c 0,58,59
 1025 1201 1025 1201 877 1212 c 1,60,61
 870 1223 870 1223 870.5 1250 c 128,-1,62
 871 1277 871 1277 877 1286 c 1,63,64
 1042 1272 1042 1272 1103 1272 c 0,65,66
 1154 1272 1154 1272 1227.5 1278.5 c 128,-1,67
 1301 1285 1301 1285 1327 1286 c 1,68,69
 1333 1277 1333 1277 1333.5 1250 c 128,-1,70
 1334 1223 1334 1223 1327 1212 c 1,71,-1
 1314.5 1211 l 2,72,73
 1302 1210 1302 1210 1296.5 1209.5 c 128,-1,74
 1291 1209 1291 1209 1277 1207.5 c 128,-1,75
 1263 1206 1263 1206 1254 1203.5 c 128,-1,76
 1245 1201 1245 1201 1232.5 1197.5 c 128,-1,77
 1220 1194 1220 1194 1211 1189 c 128,-1,78
 1202 1184 1202 1184 1193 1177 c 128,-1,79
 1184 1170 1184 1170 1179 1162 c 0,80,81
 1134 1096 1134 1096 992 864 c 128,-1,82
 850 632 850 632 814 556 c 0,83,84
 805 536 805 536 805 518 c 2,85,-1
 803 290 l 2,86,87
 801 146 801 146 819 102 c 0,88,89
 829 75 829 75 947 66 c 1,90,91
 954 55 954 55 953.5 28 c 128,-1,92
 953 1 953 1 947 -8 c 1,93,94
 810 6 810 6 661 6 c 0,95,96
 516 6 516 6 379 -8 c 1,97,98
 373 1 373 1 372.5 28 c 128,-1,99
 372 55 372 55 379 66 c 1,100,101
 497 75 497 75 507 102 c 0,102,103
 510 109 510 109 512 116 c 128,-1,104
 514 123 514 123 515.5 132.5 c 128,-1,105
 517 142 517 142 518 149 c 128,-1,106
 519 156 519 156 520 169 c 128,-1,107
 521 182 521 182 521.5 189 c 128,-1,108
 522 196 522 196 522 212.5 c 128,-1,109
 522 229 522 229 522.5 236 c 128,-1,110
 523 243 523 243 523 263 c 128,-1,111
 523 283 523 283 523 290 c 2,19,-1
EndSplineSet
EndChar
StartChar: brokenbar
Encoding: 166 166 101
Width: 420
Flags: W
LayerCount: 2
Fore
SplineSet
265 800 m 1,0,1
 264 790 264 790 222 780 c 128,-1,2
 180 770 180 770 169 770 c 0,3,4
 164 770 164 770 161.5 771.5 c 128,-1,5
 159 773 159 773 158.5 774.5 c 128,-1,6
 158 776 158 776 158.5 780.5 c 128,-1,7
 159 785 159 785 159 786 c 2,8,-1
 159 1514 l 1,9,10
 157 1526 157 1526 169 1530 c 0,11,12
 203 1540 203 1540 249 1540 c 0,13,14
 257 1540 257 1540 261 1537 c 128,-1,15
 265 1534 265 1534 265 1531 c 2,16,-1
 265 1528 l 1,17,-1
 265 800 l 1,0,1
159 -230 m 2,18,-1
 159 498 l 1,19,20
 157 510 157 510 169 514 c 0,21,22
 203 524 203 524 249 524 c 0,23,24
 257 524 257 524 261 521 c 128,-1,25
 265 518 265 518 265 515 c 2,26,-1
 265 512 l 1,27,-1
 265 -216 l 1,28,29
 264 -226 264 -226 222 -236 c 128,-1,30
 180 -246 180 -246 169 -246 c 0,31,32
 164 -246 164 -246 161.5 -244.5 c 128,-1,33
 159 -243 159 -243 158.5 -241.5 c 128,-1,34
 158 -240 158 -240 158.5 -235.5 c 128,-1,35
 159 -231 159 -231 159 -230 c 2,18,-1
EndSplineSet
EndChar
StartChar: section
Encoding: 167 167 102
Width: 934
UnlinkRmOvrlpSave: 1
Flags: W
LayerCount: 2
Fore
SplineSet
642 1306 m 0,0,1
 480 1306 480 1306 365 1201.5 c 128,-1,2
 250 1097 250 1097 250 972 c 0,3,4
 250 939 250 939 262.5 905 c 128,-1,5
 275 871 275 871 290.5 846 c 128,-1,6
 306 821 306 821 337 787.5 c 128,-1,7
 368 754 368 754 387 736 c 128,-1,8
 406 718 406 718 444 684.5 c 128,-1,9
 482 651 482 651 494 640 c 0,10,11
 535 602 535 602 560 577.5 c 128,-1,12
 585 553 585 553 619 512 c 128,-1,13
 653 471 653 471 672.5 436 c 128,-1,14
 692 401 692 401 706 354.5 c 128,-1,15
 720 308 720 308 720 260 c 0,16,17
 720 200 720 200 702 162.5 c 128,-1,18
 684 125 684 125 642 74 c 1,19,20
 600 30 600 30 586 -6 c 1,21,22
 580 -9 580 -9 581 -36 c 128,-1,23
 582 -63 582 -63 582 -68 c 1,24,25
 613 -47 613 -47 658.5 0.5 c 128,-1,26
 704 48 704 48 750.5 109 c 128,-1,27
 797 170 797 170 829.5 241.5 c 128,-1,28
 862 313 862 313 862 368 c 0,29,30
 862 407 862 407 854.5 443 c 128,-1,31
 847 479 847 479 838 506 c 128,-1,32
 829 533 829 533 806.5 566.5 c 128,-1,33
 784 600 784 600 771.5 618 c 128,-1,34
 759 636 759 636 724.5 670.5 c 128,-1,35
 690 705 690 705 677 717.5 c 128,-1,36
 664 730 664 730 622 768 c 0,37,38
 366 1002 366 1002 366 1098 c 0,39,40
 366 1150 366 1150 414.5 1178 c 128,-1,41
 463 1206 463 1206 518 1206 c 0,42,43
 567 1206 567 1206 596 1180 c 0,44,45
 641 1140 641 1140 678 1140 c 0,46,47
 756 1140 756 1140 756 1220 c 0,48,49
 756 1252 756 1252 742 1280 c 1,50,51
 681 1306 681 1306 642 1306 c 0,0,1
292 -184 m 0,52,53
 454 -184 454 -184 569 -79.5 c 128,-1,54
 684 25 684 25 684 150 c 0,55,56
 684 183 684 183 671.5 217 c 128,-1,57
 659 251 659 251 643.5 276 c 128,-1,58
 628 301 628 301 597 334.5 c 128,-1,59
 566 368 566 368 547 386 c 128,-1,60
 528 404 528 404 490 437.5 c 128,-1,61
 452 471 452 471 440 482 c 0,62,63
 399 520 399 520 374 544.5 c 128,-1,64
 349 569 349 569 315 610 c 128,-1,65
 281 651 281 651 261.5 686 c 128,-1,66
 242 721 242 721 228 767.5 c 128,-1,67
 214 814 214 814 214 862 c 0,68,69
 214 923 214 923 230.5 958 c 128,-1,70
 247 993 247 993 292 1046 c 1,71,72
 334 1092 334 1092 348 1128 c 1,73,74
 354 1131 354 1131 353 1158 c 128,-1,75
 352 1185 352 1185 352 1190 c 1,76,77
 321 1169 321 1169 275.5 1121.5 c 128,-1,78
 230 1074 230 1074 183.5 1013 c 128,-1,79
 137 952 137 952 104.5 880.5 c 128,-1,80
 72 809 72 809 72 754 c 0,81,82
 72 715 72 715 79.5 679 c 128,-1,83
 87 643 87 643 96 616 c 128,-1,84
 105 589 105 589 127.5 555.5 c 128,-1,85
 150 522 150 522 162.5 504 c 128,-1,86
 175 486 175 486 209.5 451.5 c 128,-1,87
 244 417 244 417 257 404.5 c 128,-1,88
 270 392 270 392 312 354 c 0,89,90
 568 120 568 120 568 24 c 0,91,92
 568 -28 568 -28 519.5 -56 c 128,-1,93
 471 -84 471 -84 416 -84 c 0,94,95
 366 -84 366 -84 344 -62 c 0,96,97
 300 -18 300 -18 258 -18 c 0,98,99
 217 -18 217 -18 197.5 -42.5 c 128,-1,100
 178 -67 178 -67 178 -104 c 0,101,102
 178 -132 178 -132 192 -156 c 1,103,104
 248 -184 248 -184 292 -184 c 0,52,53
EndSplineSet
EndChar
StartChar: ordfeminine
Encoding: 170 170 105
Width: 774
Flags: W
LayerCount: 2
Fore
SplineSet
372 592 m 0,0,1
 392 592 392 592 411 603.5 c 128,-1,2
 430 615 430 615 430 622 c 2,3,-1
 430 798 l 1,4,5
 353 770 353 770 332 758 c 0,6,7
 282 728 282 728 282 674 c 1,8,9
 283 634 283 634 311 613 c 128,-1,10
 339 592 339 592 372 592 c 0,0,1
402 1114 m 0,11,12
 493 1114 493 1114 556.5 1054 c 128,-1,13
 620 994 620 994 620 904 c 2,14,-1
 620 654 l 2,15,16
 620 629 620 629 630.5 616.5 c 128,-1,17
 641 604 641 604 656 604 c 0,18,19
 665 604 665 604 675 608 c 128,-1,20
 685 612 685 612 693 617 c 128,-1,21
 701 622 701 622 702 622 c 0,22,23
 706 621 706 621 711 610.5 c 128,-1,24
 716 600 716 600 716 594 c 0,25,26
 716 582 716 582 708 570 c 1,27,28
 683 548 683 548 637.5 523 c 128,-1,29
 592 498 592 498 552 498 c 0,30,31
 517 498 517 498 484 516.5 c 128,-1,32
 451 535 451 535 440 560 c 1,33,34
 420 545 420 545 365.5 520.5 c 128,-1,35
 311 496 311 496 278 496 c 0,36,37
 198 496 198 496 142 547 c 128,-1,38
 86 598 86 598 86 660 c 0,39,40
 86 697 86 697 109.5 729 c 128,-1,41
 133 761 133 761 162 772 c 0,42,43
 364 847 364 847 430 870 c 1,44,-1
 430 890 l 1,45,-1
 430 926 l 2,46,47
 430 978 430 978 406.5 1016 c 128,-1,48
 383 1054 383 1054 346 1054 c 0,49,50
 308 1054 308 1054 291.5 1027.5 c 128,-1,51
 275 1001 275 1001 262 946 c 1,52,53
 247 888 247 888 180 888 c 0,54,55
 149 888 149 888 126.5 906 c 128,-1,56
 104 924 104 924 104 952 c 128,-1,57
 104 980 104 980 124 1010 c 1,58,59
 149 1035 149 1035 234 1074.5 c 128,-1,60
 319 1114 319 1114 402 1114 c 0,11,12
EndSplineSet
EndChar
StartChar: macron
Encoding: 175 175 109
Width: 938
Flags: W
LayerCount: 2
Fore
SplineSet
1124 1112 m 0,0,1
 1124 1117 1124 1117 1125 1127 c 128,-1,2
 1126 1137 1126 1137 1128 1154 c 128,-1,3
 1130 1171 1130 1171 1135 1182.5 c 128,-1,4
 1140 1194 1140 1194 1148 1194 c 2,5,-1
 1578 1194 l 2,6,7
 1588 1194 1588 1194 1588 1180 c 0,8,9
 1588 1151 1588 1151 1576 1108 c 0,10,11
 1574 1103 1574 1103 1570.5 1099.5 c 128,-1,12
 1567 1096 1567 1096 1564.5 1095 c 2,13,-1
 1562 1094 l 1,14,-1
 1136 1094 l 2,15,16
 1135 1094 1135 1094 1133 1094 c 128,-1,17
 1131 1094 1131 1094 1127.5 1098.5 c 128,-1,18
 1124 1103 1124 1103 1124 1112 c 0,0,1
EndSplineSet
EndChar
StartChar: degree
Encoding: 176 176 110
Width: 580
Flags: W
LayerCount: 2
Fore
SplineSet
162 1074 m 128,-1,1
 162 1020 162 1020 199 981 c 128,-1,2
 236 942 236 942 290 942 c 128,-1,3
 344 942 344 942 382 981 c 128,-1,4
 420 1020 420 1020 420 1074 c 128,-1,5
 420 1128 420 1128 382 1166 c 128,-1,6
 344 1204 344 1204 290 1204 c 128,-1,7
 236 1204 236 1204 199 1166 c 128,-1,0
 162 1128 162 1128 162 1074 c 128,-1,1
68 1074 m 0,8,9
 68 1165 68 1165 133 1229.5 c 128,-1,10
 198 1294 198 1294 290 1294 c 128,-1,11
 382 1294 382 1294 447 1229.5 c 128,-1,12
 512 1165 512 1165 512 1074 c 0,13,14
 512 982 512 982 446.5 916 c 128,-1,15
 381 850 381 850 290 850 c 128,-1,16
 199 850 199 850 133.5 916 c 128,-1,17
 68 982 68 982 68 1074 c 0,8,9
EndSplineSet
EndChar
StartChar: uni00B3
Encoding: 179 179 113
Width: 676
Flags: W
LayerCount: 2
Fore
SplineSet
358 1284 m 0,0,1
 425 1284 425 1284 487.5 1241 c 128,-1,2
 550 1198 550 1198 550 1116 c 0,3,4
 550 1073 550 1073 534 1041 c 128,-1,5
 518 1009 518 1009 492.5 991.5 c 128,-1,6
 467 974 467 974 446 966 c 128,-1,7
 425 958 425 958 404 954 c 1,8,9
 418 953 418 953 440.5 947 c 128,-1,10
 463 941 463 941 493 925.5 c 128,-1,11
 523 910 523 910 548 888.5 c 128,-1,12
 573 867 573 867 590.5 831.5 c 128,-1,13
 608 796 608 796 608 754 c 0,14,15
 608 690 608 690 575.5 638 c 128,-1,16
 543 586 543 586 490.5 554.5 c 128,-1,17
 438 523 438 523 377.5 506.5 c 128,-1,18
 317 490 317 490 256 490 c 0,19,20
 200 490 200 490 155 502.5 c 128,-1,21
 110 515 110 515 90 532 c 1,22,23
 72 559 72 559 72 586 c 0,24,25
 72 611 72 611 89.5 633.5 c 128,-1,26
 107 656 107 656 136 656 c 0,27,28
 176 656 176 656 216 594 c 0,29,30
 230 571 230 571 255.5 557.5 c 128,-1,31
 281 544 281 544 306 544 c 0,32,33
 364 544 364 544 396 585.5 c 128,-1,34
 428 627 428 627 428 708 c 0,35,36
 428 779 428 779 386 832.5 c 128,-1,37
 344 886 344 886 284 886 c 0,38,39
 240 886 240 886 220 880 c 1,40,41
 208 898 208 898 208 910 c 0,42,43
 208 926 208 926 212 934 c 1,44,45
 239 938 239 938 266.5 946 c 128,-1,46
 294 954 294 954 323.5 970 c 128,-1,47
 353 986 353 986 371.5 1013.5 c 128,-1,48
 390 1041 390 1041 390 1076 c 0,49,50
 390 1126 390 1126 357 1159 c 128,-1,51
 324 1192 324 1192 270 1192 c 0,52,53
 240 1192 240 1192 209.5 1176.5 c 128,-1,54
 179 1161 179 1161 164 1148 c 128,-1,55
 149 1135 149 1135 142 1126 c 1,56,57
 132 1128 132 1128 121.5 1137.5 c 128,-1,58
 111 1147 111 1147 114 1160 c 1,59,60
 151 1209 151 1209 220.5 1246.5 c 128,-1,61
 290 1284 290 1284 358 1284 c 0,0,1
EndSplineSet
EndChar
StartChar: periodcentered
Encoding: 183 183 117
Width: 482
Flags: W
LayerCount: 2
Fore
SplineSet
94 530 m 0,0,1
 94 590 94 590 137.5 633 c 128,-1,2
 181 676 181 676 242 676 c 0,3,4
 302 676 302 676 345 633 c 128,-1,5
 388 590 388 590 388 530 c 0,6,7
 388 469 388 469 346.5 423.5 c 128,-1,8
 305 378 305 378 246 378 c 0,9,10
 184 378 184 378 139 423.5 c 128,-1,11
 94 469 94 469 94 530 c 0,0,1
EndSplineSet
EndChar
StartChar: uni00B9
Encoding: 185 185 119
Width: 582
Flags: W
LayerCount: 2
Fore
SplineSet
228 1022 m 2,0,1
 228 1063 228 1063 218 1089.5 c 128,-1,2
 208 1116 208 1116 190 1116 c 0,3,4
 170 1116 170 1116 100 1084 c 1,5,6
 93 1085 93 1085 85.5 1098.5 c 128,-1,7
 78 1112 78 1112 78 1124 c 128,-1,8
 78 1136 78 1136 80 1138 c 1,9,10
 142 1164 142 1164 220 1200.5 c 128,-1,11
 298 1237 298 1237 344.5 1259.5 c 128,-1,12
 391 1282 391 1282 392 1282 c 2,13,-1
 394 1282 l 2,14,15
 399 1282 399 1282 411.5 1265 c 128,-1,16
 424 1248 424 1248 426 1242 c 1,17,18
 402 1154 402 1154 402 1072 c 2,19,-1
 402 692 l 2,20,21
 402 602 402 602 422 582 c 1,22,23
 432 570 432 570 466.5 563 c 128,-1,24
 501 556 501 556 516 556 c 0,25,26
 519 556 519 556 518.5 531 c 128,-1,27
 518 506 518 506 516 504 c 1,28,29
 324 512 324 512 316 512 c 0,30,31
 304 512 304 512 112 504 c 1,32,33
 108 508 108 508 108 532 c 128,-1,34
 108 556 108 556 112 556 c 0,35,36
 128 556 128 556 163.5 564.5 c 128,-1,37
 199 573 199 573 208 584 c 0,38,39
 215 592 215 592 221.5 633 c 128,-1,40
 228 674 228 674 228 694 c 2,41,-1
 228 1022 l 2,0,1
EndSplineSet
EndChar
StartChar: onehalf
Encoding: 189 189 123
Width: 1496
Flags: W
LayerCount: 2
Fore
SplineSet
1175 772 m 0,0,1
 1283 772 1283 772 1345 718.5 c 128,-1,2
 1407 665 1407 665 1407 564 c 0,3,4
 1407 491 1407 491 1362.5 426 c 128,-1,5
 1318 361 1318 361 1245 294 c 0,6,7
 1143 202 1143 202 1055 138 c 1,8,-1
 1279 138 l 2,9,10
 1293 138 1293 138 1306 144 c 128,-1,11
 1319 150 1319 150 1327 156 c 128,-1,12
 1335 162 1335 162 1344.5 177 c 128,-1,13
 1354 192 1354 192 1357.5 199 c 128,-1,14
 1361 206 1361 206 1369.5 225.5 c 128,-1,15
 1378 245 1378 245 1379 248 c 0,16,17
 1382 258 1382 258 1401 258 c 128,-1,18
 1420 258 1420 258 1429 252 c 1,19,20
 1420 213 1420 213 1390.5 115 c 128,-1,21
 1361 17 1361 17 1353 -4 c 1,22,-1
 899 -4 l 1,23,24
 892 3 892 3 885 24 c 1,25,26
 1021 174 1021 174 1123 306 c 0,27,28
 1174 372 1174 372 1195.5 426 c 128,-1,29
 1217 480 1217 480 1217 538 c 128,-1,30
 1217 596 1217 596 1179.5 631 c 128,-1,31
 1142 666 1142 666 1089 666 c 0,32,33
 1059 666 1059 666 1031 651.5 c 128,-1,34
 1003 637 1003 637 989 621.5 c 128,-1,35
 975 606 975 606 961 587 c 2,36,-1
 947 568 l 1,37,38
 942 568 942 568 935.5 569.5 c 128,-1,39
 929 571 929 571 922 578 c 128,-1,40
 915 585 915 585 915 596 c 1,41,42
 925 617 925 617 946 643.5 c 128,-1,43
 967 670 967 670 1000 700.5 c 128,-1,44
 1033 731 1033 731 1079.5 751.5 c 128,-1,45
 1126 772 1126 772 1175 772 c 0,0,1
391 1072 m 2,46,-1
 391 692 l 2,47,48
 391 602 391 602 411 582 c 1,49,50
 421 570 421 570 455.5 563 c 128,-1,51
 490 556 490 556 505 556 c 0,52,53
 508 556 508 556 507.5 531 c 128,-1,54
 507 506 507 506 505 504 c 1,55,56
 313 512 313 512 305 512 c 0,57,58
 293 512 293 512 101 504 c 1,59,60
 96 508 96 508 96 532 c 128,-1,61
 96 556 96 556 101 556 c 0,62,63
 117 556 117 556 152.5 564.5 c 128,-1,64
 188 573 188 573 197 584 c 0,65,66
 204 592 204 592 210.5 633 c 128,-1,67
 217 674 217 674 217 694 c 2,68,-1
 217 1022 l 2,69,70
 217 1063 217 1063 207 1089.5 c 128,-1,71
 197 1116 197 1116 179 1116 c 0,72,73
 159 1116 159 1116 89 1084 c 1,74,75
 82 1085 82 1085 74 1106 c 128,-1,76
 66 1127 66 1127 69 1138 c 1,77,78
 131 1164 131 1164 209.5 1200.5 c 128,-1,79
 288 1237 288 1237 335 1259.5 c 128,-1,80
 382 1282 382 1282 383 1282 c 0,81,82
 411 1254 411 1254 415 1242 c 1,83,84
 391 1154 391 1154 391 1072 c 2,46,-1
1161 1354 m 1,85,-1
 471 -22 l 2,86,87
 466 -33 466 -33 443.5 -47.5 c 128,-1,88
 421 -62 421 -62 397 -68 c 0,89,90
 384 -71 384 -71 375.5 -66.5 c 128,-1,91
 367 -62 367 -62 365 -56 c 2,92,-1
 363 -50 l 1,93,-1
 1053 1326 l 1,94,95
 1073 1356 1073 1356 1125 1368 c 0,96,97
 1138 1371 1138 1371 1148.5 1366.5 c 128,-1,98
 1159 1362 1159 1362 1161 1354 c 1,85,-1
EndSplineSet
EndChar
StartChar: threequarters
Encoding: 190 190 124
Width: 1480
Flags: W
LayerCount: 2
Fore
SplineSet
1294 772 m 0,0,1
 1302 772 1302 772 1318 759.5 c 128,-1,2
 1334 747 1334 747 1334 734 c 2,3,-1
 1334 276 l 1,4,-1
 1384 276 l 1,5,6
 1423 240 1423 240 1404 184 c 1,7,-1
 1334 184 l 1,8,-1
 1334 4 l 1,9,10
 1294 -6 1294 -6 1240 -6 c 0,11,12
 1160 -6 1160 -6 1160 10 c 2,13,-1
 1160 184 l 1,14,-1
 854 184 l 1,15,16
 845 187 845 187 837.5 197 c 128,-1,17
 830 207 830 207 830 218 c 1,18,19
 865 260 865 260 1268 756 c 0,20,21
 1281 772 1281 772 1294 772 c 0,0,1
1160 276 m 1,22,-1
 1160 524 l 1,23,24
 1135 494 1135 494 1050.5 391 c 128,-1,25
 966 288 966 288 956 276 c 0,26,-1
 955.752350336 276 l 1,27,-1
 955.596308666 276 l 1,28,-1
 955.527633528 276 l 1,29,-1
 955.542389034 276 l 1,30,-1
 955.636914571 276 l 1,31,-1
 955.807798256 276 l 1,32,-1
 956.051853582 276 l 1,33,-1
 956.366098806 276 l 1,34,-1
 956.548662289 276 l 1,35,-1
 956.963005082 276 l 1,36,-1
 957.440864364 276 l 1,37,-1
 957.7028584 276 l 1,38,-1
 958.271542818 276 l 1,39,-1
 958.577684622 276 l 1,40,-1
 959.232253061 276 l 1,41,-1
 959.580175529 276 l 1,42,-1
 960.316087132 276 l 1,43,-1
 960.703611491 276 l 1,44,-1
 961.51668039 276 l 1,45,-1
 962.379019505 276 l 1,46,-1
 962.828151579 276 l 1,47,-1
 963.761357005 276 l 1,48,-1
 964.739893927 276 l 1,49,-1
 965.762315771 276 l 1,50,-1
 966.827242144 276 l 1,51,-1
 967.933354422 276 l 1,52,-1
 968.50145909 276 l 1,53,-1
 969.667003025 276 l 1,54,-1
 970.870680732 276 l 1,55,-1
 972.111359917 276 l 1,56,-1
 972.74523385 276 l 1,57,-1
 974.039391826 276 l 1,58,-1
 974.699420216 276 l 1,59,-1
 976.044755178 276 l 1,60,-1
 976.729820589 276 l 1,61,-1
 978.124161257 276 l 1,62,-1
 978.833208583 276 l 1,63,-1
 979.550025397 276 l 1,64,-1
 981.006533892 276 l 1,65,-1
 981.746013534 276 l 1,66,-1
 983.246907231 276 l 1,67,-1
 984.008120004 276 l 1,68,-1
 984.776378683 276 l 1,69,-1
 985.551586771 276 l 1,70,-1
 987.122473016 276 l 1,71,-1
 987.917965876 276 l 1,72,-1
 988.720037467 276 l 1,73,-1
 989.528598737 276 l 1,74,-1
 991.164840892 276 l 1,75,-1
 991.992350353 276 l 1,76,-1
 992.826006574 276 l 1,77,-1
 993.665726965 276 l 1,78,-1
 994.511430128 276 l 1,79,-1
 996.220464921 276 l 1,80,-1
 997.083639405 276 l 1,81,-1
 997.952482308 276 l 1,82,-1
 998.8269177 276 l 1,83,-1
 999.706870658 276 l 1,84,-1
 1000.59226723 276 l 1,85,-1
 1002.37910018 276 l 1,86,-1
 1003.28039331 276 l 1,87,-1
 1004.18684352 276 l 1,88,-1
 1005.09838135 276 l 1,89,-1
 1006.0149382 276 l 1,90,-1
 1006.93644622 276 l 1,91,-1
 1007.86283839 276 l 1,92,-1
 1008.79404841 276 l 1,93,-1
 1009.73001074 276 l 1,94,-1
 1010.67066054 276 l 1,95,-1
 1011.61593367 276 l 1,96,-1
 1012.56576667 276 l 1,97,-1
 1013.52009671 276 l 1,98,-1
 1015.44199984 276 l 1,99,-1
 1016.40945039 276 l 1,100,-1
 1017.38115287 276 l 1,101,-1
 1018.35704747 276 l 1,102,-1
 1019.33707488 276 l 1,103,-1
 1020.32117635 276 l 1,104,-1
 1021.3092936 276 l 1,105,-1
 1022.30136888 276 l 1,106,-1
 1023.29734488 276 l 1,107,-1
 1024.29716477 276 l 1,108,-1
 1025.30077216 276 l 1,109,-1
 1026.30811105 276 l 1,110,-1
 1027.31912591 276 l 1,111,-1
 1028.33376155 276 l 1,112,-1
 1029.35196318 276 l 1,113,-1
 1030.37367638 276 l 1,114,-1
 1031.39884707 276 l 1,115,-1
 1032.42742151 276 l 1,116,-1
 1033.45934626 276 l 1,117,-1
 1034.4945682 276 l 1,118,-1
 1035.53303451 276 l 1,119,-1
 1036.57469263 276 l 1,120,-1
 1037.61949025 276 l 1,121,-1
 1038.66737534 276 l 1,122,-1
 1039.71829607 276 l 1,123,-1
 1040.77220085 276 l 1,124,-1
 1041.82903829 276 l 1,125,-1
 1042.88875717 276 l 1,126,-1
 1043.95130649 276 l 1,127,-1
 1045.01663538 276 l 1,128,-1
 1046.08469312 276 l 1,129,-1
 1047.15542914 276 l 1,130,-1
 1048.22879297 276 l 1,131,-1
 1049.30473429 276 l 1,132,-1
 1050.38320281 276 l 1,133,-1
 1051.46414838 276 l 1,134,-1
 1052.54752088 276 l 1,135,-1
 1053.63327025 276 l 1,136,-1
 1054.72134646 276 l 1,137,-1
 1055.81169951 276 l 1,138,-1
 1056.90427942 276 l 1,139,-1
 1057.99903617 276 l 1,140,-1
 1059.09591976 276 l 1,141,-1
 1060.19488011 276 l 1,142,-1
 1061.29586712 276 l 1,143,-1
 1062.39883062 276 l 1,144,-1
 1063.50372034 276 l 1,145,-1
 1064.61048593 276 l 1,146,-1
 1065.71907692 276 l 1,147,-1
 1066.82944271 276 l 1,148,-1
 1067.94153255 276 l 1,149,-1
 1069.05529554 276 l 1,150,-1
 1070.17068058 276 l 1,151,-1
 1071.28763639 276 l 1,152,-1
 1072.40611148 276 l 1,153,-1
 1073.5260541 276 l 1,154,-1
 1074.64741228 276 l 1,155,-1
 1075.77013375 276 l 1,156,-1
 1076.894166 276 l 1,157,-1
 1078.01945615 276 l 1,158,-1
 1079.14595104 276 l 1,159,-1
 1080.27359713 276 l 1,160,-1
 1081.40234054 276 l 1,161,-1
 1082.53212698 276 l 1,162,-1
 1083.66290173 276 l 1,163,-1
 1084.79460968 276 l 1,164,-1
 1085.92719522 276 l 1,165,-1
 1087.06060227 276 l 1,166,-1
 1088.19477424 276 l 1,167,-1
 1089.32965401 276 l 1,168,-1
 1090.4651839 276 l 1,169,-1
 1091.60130563 276 l 1,170,-1
 1092.73796032 276 l 1,171,-1
 1093.87508844 276 l 1,172,-1
 1095.01262978 276 l 1,173,-1
 1096.15052344 276 l 1,174,-1
 1097.28870776 276 l 1,175,-1
 1098.42712032 276 l 1,176,-1
 1099.56569791 276 l 1,177,-1
 1100.70437646 276 l 1,178,-1
 1101.84309102 276 l 1,179,-1
 1102.98177575 276 l 1,180,-1
 1104.12036382 276 l 1,181,-1
 1105.25878743 276 l 1,182,-1
 1106.39697772 276 l 1,183,-1
 1107.53486478 276 l 1,184,-1
 1108.67237751 276 l 1,185,-1
 1109.80944369 276 l 1,186,-1
 1110.94598984 276 l 1,187,-1
 1112.08194119 276 l 1,188,-1
 1113.21722165 276 l 1,189,-1
 1114.35175373 276 l 1,190,-1
 1115.48545848 276 l 1,191,-1
 1116.61825543 276 l 1,192,-1
 1117.75006252 276 l 1,193,-1
 1118.88079606 276 l 1,194,-1
 1120.01037062 276 l 1,195,-1
 1121.13869897 276 l 1,196,-1
 1122.26569199 276 l 1,197,-1
 1123.39125863 276 l 1,198,-1
 1124.51530576 276 l 1,199,-1
 1125.63773811 276 l 1,200,-1
 1126.7584582 276 l 1,201,-1
 1127.87736619 276 l 1,202,-1
 1128.9943598 276 l 1,203,-1
 1130.1093342 276 l 1,204,-1
 1131.22218186 276 l 1,205,-1
 1132.33279249 276 l 1,206,-1
 1133.44105283 276 l 1,207,-1
 1134.54684659 276 l 1,208,-1
 1135.65005421 276 l 1,209,-1
 1136.75055281 276 l 1,210,-1
 1137.84821594 276 l 1,211,-1
 1138.94291345 276 l 1,212,-1
 1140.03451128 276 l 1,213,-1
 1141.12287129 276 l 1,214,-1
 1142.20785102 276 l 1,215,-1
 1143.28930351 276 l 1,216,-1
 1144.36707701 276 l 1,217,-1
 1145.44101479 276 l 1,218,-1
 1146.51095481 276 l 1,219,-1
 1147.57672947 276 l 1,220,-1
 1148.63816531 276 l 1,221,-1
 1149.69508266 276 l 1,222,-1
 1150.74729531 276 l 1,223,-1
 1160 276 l 1,22,-1
354 1284 m 0,224,225
 421 1284 421 1284 483.5 1241 c 128,-1,226
 546 1198 546 1198 546 1116 c 0,227,228
 546 1073 546 1073 530 1041 c 128,-1,229
 514 1009 514 1009 488.5 991.5 c 128,-1,230
 463 974 463 974 442 966 c 128,-1,231
 421 958 421 958 400 954 c 1,232,233
 414 953 414 953 436.5 947 c 128,-1,234
 459 941 459 941 489 925.5 c 128,-1,235
 519 910 519 910 544 888.5 c 128,-1,236
 569 867 569 867 586.5 831.5 c 128,-1,237
 604 796 604 796 604 754 c 0,238,239
 604 690 604 690 571.5 638 c 128,-1,240
 539 586 539 586 486.5 554.5 c 128,-1,241
 434 523 434 523 373.5 506.5 c 128,-1,242
 313 490 313 490 252 490 c 0,243,244
 196 490 196 490 151 502.5 c 128,-1,245
 106 515 106 515 86 532 c 1,246,247
 68 559 68 559 68 586 c 0,248,249
 68 611 68 611 85.5 633.5 c 128,-1,250
 103 656 103 656 132 656 c 0,251,252
 172 656 172 656 212 594 c 0,253,254
 226 571 226 571 251.5 557.5 c 128,-1,255
 277 544 277 544 302 544 c 0,256,257
 360 544 360 544 392 585.5 c 128,-1,258
 424 627 424 627 424 708 c 0,259,260
 424 779 424 779 382 832.5 c 128,-1,261
 340 886 340 886 280 886 c 0,262,263
 236 886 236 886 216 880 c 1,264,265
 204 898 204 898 204 910 c 0,266,267
 204 926 204 926 208 934 c 1,268,269
 235 938 235 938 262.5 946 c 128,-1,270
 290 954 290 954 319.5 970 c 128,-1,271
 349 986 349 986 367.5 1013.5 c 128,-1,272
 386 1041 386 1041 386 1076 c 0,273,274
 386 1126 386 1126 353 1159 c 128,-1,275
 320 1192 320 1192 266 1192 c 0,276,277
 236 1192 236 1192 205.5 1176.5 c 128,-1,278
 175 1161 175 1161 160 1148 c 128,-1,279
 145 1135 145 1135 138 1126 c 1,280,281
 128 1128 128 1128 117.5 1137.5 c 128,-1,282
 107 1147 107 1147 110 1160 c 1,283,284
 147 1209 147 1209 216.5 1246.5 c 128,-1,285
 286 1284 286 1284 354 1284 c 0,224,225
1228 1354 m 1,286,-1
 538 -22 l 2,287,288
 533 -33 533 -33 510.5 -47.5 c 128,-1,289
 488 -62 488 -62 464 -68 c 0,290,291
 451 -71 451 -71 442.5 -66.5 c 128,-1,292
 434 -62 434 -62 432 -56 c 2,293,-1
 430 -50 l 1,294,-1
 1120 1326 l 1,295,296
 1140 1356 1140 1356 1192 1368 c 0,297,298
 1205 1371 1205 1371 1215.5 1366.5 c 128,-1,299
 1226 1362 1226 1362 1228 1354 c 1,286,-1
EndSplineSet
EndChar
StartChar: Eth
Encoding: 208 208 142
Width: 1530
Flags: W
LayerCount: 2
Fore
SplineSet
766 616 m 1,0,-1
 66 616 l 2,1,2
 62 616 62 616 60 632 c 0,3,4
 58 648 58 648 60 668 c 0,5,6
 62 688 62 688 68 696 c 1,7,-1
 766 696 l 2,8,9
 772 696 772 696 772 663 c 0,10,11
 772 630 772 630 766 616 c 1,0,-1
EndSplineSet
Refer: 36 68 N 1 0 0 1 8 0 2
EndChar
StartChar: multiply
Encoding: 215 215 149
Width: 930
Flags: W
LayerCount: 2
Fore
SplineSet
392 496 m 1,0,-1
 108 780 l 1,1,2
 108 801 108 801 129 831.5 c 128,-1,3
 150 862 150 862 164 862 c 0,4,5
 174 862 174 862 178 858 c 0,6,7
 468 578 468 578 472 574 c 1,8,-1
 758 858 l 2,9,10
 762 862 762 862 770 862 c 0,11,12
 783 862 783 862 802.5 826.5 c 128,-1,13
 822 791 822 791 822 774 c 1,14,15
 552 506 552 506 546 500 c 1,16,-1
 822 214 l 1,17,18
 822 190 822 190 804 159 c 128,-1,19
 786 128 786 128 770 128 c 0,20,21
 760 128 760 128 756 132 c 2,22,-1
 466 422 l 1,23,-1
 172 128 l 2,24,25
 168 124 168 124 160 124 c 0,26,27
 147 124 147 124 127.5 160.5 c 128,-1,28
 108 197 108 197 108 214 c 1,29,30
 384 488 384 488 392 496 c 1,0,-1
EndSplineSet
Substitution2: "'smcp' Lowercase to Small Capitals in Latin lookup 0 subtable" multiply.sc
EndChar
StartChar: Oslash
Encoding: 216 216 150
Width: 1518
Flags: W
LayerCount: 2
Fore
SplineSet
1082 1352 m 18,0,1
 1083 1352 1083 1352 1089 1349.5 c 0,2,3
 1095 1347 1095 1347 1099 1345.5 c 0,4,5
 1103 1344 1103 1344 1110 1341.5 c 0,6,7
 1117 1339 1117 1339 1122 1336.5 c 0,8,9
 1127 1334 1127 1334 1133 1331 c 0,10,11
 1139 1328 1139 1328 1143.5 1325.5 c 0,12,13
 1148 1323 1148 1323 1152 1320.5 c 0,14,15
 1156 1318 1156 1318 1157.5 1315 c 0,16,17
 1159 1312 1159 1312 1158 1310 c 2,18,-1
 404 -36 l 1,19,20
 324 -6 324 -6 328 8 c 1,21,-1
 1082 1352 l 18,0,1
EndSplineSet
Refer: 47 79 N 1 0 0 1 0 0 2
EndChar
StartChar: Thorn
Encoding: 222 222 156
Width: 1166
Flags: W
LayerCount: 2
Fore
SplineSet
363 1310 m 0,0,1
 508 1310 508 1310 645 1324 c 1,2,3
 651 1315 651 1315 651.5 1288 c 128,-1,4
 652 1261 652 1261 645 1250 c 1,5,6
 527 1241 527 1241 517 1214 c 1,7,8
 501 1176 501 1176 501 1078 c 2,9,-1
 501 1034 l 1,10,11
 605 1038 605 1038 671 1038 c 0,12,13
 798 1038 798 1038 899 997.5 c 128,-1,14
 1000 957 1000 957 1061.5 875 c 128,-1,15
 1123 793 1123 793 1123 682 c 0,16,17
 1123 566 1123 566 1066.5 475.5 c 128,-1,18
 1010 385 1010 385 920.5 338.5 c 128,-1,19
 831 292 831 292 729 292 c 0,20,21
 681 292 681 292 643.5 307.5 c 128,-1,22
 606 323 606 323 591 338 c 128,-1,23
 576 353 576 353 576 388 c 0,24,25
 576 402 576 402 583 402 c 1,26,27
 610 394 610 394 665 394 c 0,28,29
 739 394 739 394 789 467 c 128,-1,30
 839 540 839 540 839 654 c 0,31,32
 839 776 839 776 774 867 c 128,-1,33
 709 958 709 958 611 958 c 0,34,35
 522 958 522 958 511 934 c 0,36,37
 507 923 507 923 504.5 892.5 c 128,-1,38
 502 862 502 862 501.5 837 c 2,39,-1
 501 812 l 1,40,-1
 501 290 l 2,41,42
 501 142 501 142 517 102 c 0,43,44
 527 75 527 75 645 66 c 1,45,46
 652 55 652 55 651.5 28 c 128,-1,47
 651 1 651 1 645 -8 c 1,48,49
 508 6 508 6 359 6 c 0,50,51
 214 6 214 6 77 -8 c 1,52,53
 71 1 71 1 70.5 28 c 128,-1,54
 70 55 70 55 77 66 c 1,55,56
 195 75 195 75 205 102 c 0,57,58
 221 142 221 142 221 290 c 2,59,-1
 221 1026 l 2,60,61
 221 1174 221 1174 205 1214 c 0,62,63
 195 1241 195 1241 77 1250 c 1,64,65
 70 1261 70 1261 70.5 1288 c 128,-1,66
 71 1315 71 1315 77 1324 c 1,67,68
 214 1310 214 1310 363 1310 c 0,0,1
EndSplineSet
EndChar
StartChar: divide
Encoding: 247 247 181
Width: 1184
Flags: W
LayerCount: 2
Fore
SplineSet
466 864 m 128,-1,1
 466 915 466 915 502.5 951.5 c 128,-1,2
 539 988 539 988 590 988 c 128,-1,3
 641 988 641 988 677.5 951.5 c 128,-1,4
 714 915 714 915 714 864 c 128,-1,5
 714 813 714 813 677.5 776.5 c 128,-1,6
 641 740 641 740 590 740 c 128,-1,7
 539 740 539 740 502.5 776.5 c 128,-1,0
 466 813 466 813 466 864 c 128,-1,1
466 128 m 128,-1,9
 466 179 466 179 502.5 215.5 c 128,-1,10
 539 252 539 252 590 252 c 128,-1,11
 641 252 641 252 677.5 215.5 c 128,-1,12
 714 179 714 179 714 128 c 128,-1,13
 714 77 714 77 677.5 40.5 c 128,-1,14
 641 4 641 4 590 4 c 128,-1,15
 539 4 539 4 502.5 40.5 c 128,-1,8
 466 77 466 77 466 128 c 128,-1,9
126 446 m 2,16,17
 114 446 114 446 114 478 c 0,18,19
 114 492 114 492 119 519.5 c 128,-1,20
 124 547 124 547 136 562 c 1,21,-1
 1056 562 l 2,22,23
 1064 562 1064 562 1069 553 c 128,-1,24
 1074 544 1074 544 1074 534 c 0,25,26
 1074 481 1074 481 1046 446 c 1,27,-1
 126 446 l 2,16,17
EndSplineSet
Substitution2: "'smcp' Lowercase to Small Capitals in Latin lookup 0 subtable" divide.sc
EndChar
StartChar: Aogonek
Encoding: 260 260 380
Width: 1342
Flags: W
LayerCount: 2
Fore
SplineSet
598 450 m 0,0,1
 460 450 460 450 390 448 c 0,2,3
 381 448 381 448 376 438 c 0,4,5
 326 326 326 326 304 270 c 0,6,7
 260 160 260 160 260 138 c 0,8,9
 260 105 260 105 321.5 85.5 c 128,-1,10
 383 66 383 66 414 66 c 1,11,12
 422 54 422 54 421.5 26.5 c 128,-1,13
 421 -1 421 -1 416 -8 c 1,14,15
 276 8 276 8 200 8 c 0,16,17
 122 8 122 8 -18 -8 c 1,18,19
 -24 -2 -24 -2 -26 22.5 c 128,-1,20
 -28 47 -28 47 -22 64 c 1,21,22
 0 64 0 64 52 85 c 128,-1,23
 104 106 104 106 118 128 c 0,24,25
 152 184 152 184 188 268 c 2,26,-1
 614 1248 l 2,27,28
 624 1270 624 1270 648.5 1297 c 128,-1,29
 673 1324 673 1324 688 1324 c 0,30,31
 713 1324 713 1324 722 1310 c 1,32,-1
 1132 296 l 2,33,34
 1146 263 1146 263 1163 217.5 c 128,-1,35
 1180 172 1180 172 1188 152 c 0,36,37
 1200 124 1200 124 1224 104.5 c 128,-1,38
 1248 85 1248 85 1275 78 c 128,-1,39
 1302 71 1302 71 1318 68.5 c 128,-1,40
 1334 66 1334 66 1346 66 c 1,41,42
 1353 53 1353 53 1354.5 25.5 c 128,-1,43
 1356 -2 1356 -2 1350 -8 c 1,44,45
 1320 -7 1320 -7 1260.5 -2 c 128,-1,46
 1201 3 1201 3 1186 4 c 1,47,48
 1137 -25 1137 -25 1114.5 -39.5 c 128,-1,49
 1092 -54 1092 -54 1054 -83.5 c 128,-1,50
 1016 -113 1016 -113 999 -142 c 128,-1,51
 982 -171 982 -171 982 -202 c 0,52,53
 982 -239 982 -239 1005.5 -267.5 c 128,-1,54
 1029 -296 1029 -296 1080 -296 c 0,55,56
 1132 -296 1132 -296 1230 -218 c 1,57,58
 1242 -218 1242 -218 1242 -240 c 0,59,60
 1242 -248 1242 -248 1237 -266 c 128,-1,61
 1232 -284 1232 -284 1228 -290 c 0,62,63
 1214 -308 1214 -308 1192 -329.5 c 128,-1,64
 1170 -351 1170 -351 1137 -376.5 c 128,-1,65
 1104 -402 1104 -402 1062.5 -419 c 128,-1,66
 1021 -436 1021 -436 982 -436 c 0,67,68
 926 -436 926 -436 880 -394 c 128,-1,69
 834 -352 834 -352 834 -280 c 0,70,71
 834 -199 834 -199 920 -109.5 c 128,-1,72
 1006 -20 1006 -20 1100 8 c 1,73,-1
 1090 8 l 2,74,75
 1049 8 1049 8 993 5 c 128,-1,76
 937 2 937 2 872 -2.5 c 128,-1,77
 807 -7 807 -7 788 -8 c 1,78,79
 780 -0 780 -0 780 33 c 128,-1,80
 780 66 780 66 788 66 c 0,81,82
 817 66 817 66 851.5 75.5 c 128,-1,83
 886 85 886 85 906 102 c 0,84,85
 924 117 924 117 924 136 c 0,86,87
 924 144 924 144 894 220 c 128,-1,88
 864 296 864 296 834 368 c 2,89,-1
 804 440 l 1,90,91
 796 448 796 448 790 448 c 0,92,93
 752 450 752 450 598 450 c 0,0,1
590 546 m 0,94,95
 688 546 688 546 750 550 c 0,96,97
 752 550 752 550 753.5 552.5 c 128,-1,98
 755 555 755 555 755.5 557.5 c 2,99,-1
 756 560 l 1,100,-1
 590 952 l 1,101,-1
 420 560 l 1,102,103
 420 552 420 552 424 552 c 0,104,105
 484 546 484 546 590 546 c 0,94,95
EndSplineSet
EndChar
StartChar: aogonek
Encoding: 261 261 381
Width: 944
Flags: W
LayerCount: 2
Fore
SplineSet
908 92 m 1,0,1
 853 46 853 46 812 22 c 0,2,3
 807 19 807 19 785.5 6.5 c 128,-1,4
 764 -6 764 -6 752.5 -13.5 c 128,-1,5
 741 -21 741 -21 718 -35 c 128,-1,6
 695 -49 695 -49 681 -60 c 128,-1,7
 667 -71 667 -71 647 -86 c 128,-1,8
 627 -101 627 -101 615 -114.5 c 128,-1,9
 603 -128 603 -128 591 -143 c 128,-1,10
 579 -158 579 -158 573.5 -173 c 128,-1,11
 568 -188 568 -188 568 -202 c 0,12,13
 568 -239 568 -239 591.5 -267.5 c 128,-1,14
 615 -296 615 -296 666 -296 c 0,15,16
 718 -296 718 -296 816 -218 c 1,17,18
 828 -218 828 -218 828 -240 c 0,19,20
 828 -248 828 -248 823 -266 c 128,-1,21
 818 -284 818 -284 814 -290 c 0,22,23
 800 -308 800 -308 778 -329.5 c 128,-1,24
 756 -351 756 -351 723 -376.5 c 128,-1,25
 690 -402 690 -402 648.5 -419 c 128,-1,26
 607 -436 607 -436 568 -436 c 0,27,28
 512 -436 512 -436 466 -394 c 128,-1,29
 420 -352 420 -352 420 -280 c 0,30,31
 420 -228 420 -228 460.5 -169.5 c 128,-1,32
 501 -111 501 -111 550.5 -70 c 128,-1,33
 600 -29 600 -29 652 0 c 1,34,35
 625 6 625 6 592 35 c 128,-1,36
 559 64 559 64 550 88 c 1,37,38
 525 66 525 66 448 25 c 128,-1,39
 371 -16 371 -16 324 -16 c 0,40,41
 214 -16 214 -16 138 59.5 c 128,-1,42
 62 135 62 135 62 228 c 0,43,44
 62 284 62 284 93.5 329.5 c 128,-1,45
 125 375 125 375 166 388 c 0,46,47
 199 399 199 399 267 424.5 c 128,-1,48
 335 450 335 450 417.5 482 c 128,-1,49
 500 514 500 514 536 528 c 1,50,-1
 536 570 l 1,51,-1
 536 622 l 2,52,53
 536 700 536 700 502.5 761 c 128,-1,54
 469 822 469 822 418 822 c 0,55,56
 396 822 396 822 378.5 812.5 c 128,-1,57
 361 803 361 803 350 789.5 c 128,-1,58
 339 776 339 776 329.5 751 c 128,-1,59
 320 726 320 726 314.5 706.5 c 128,-1,60
 309 687 309 687 302 654 c 0,61,62
 283 566 283 566 190 566 c 0,63,64
 148 566 148 566 117 593.5 c 128,-1,65
 86 621 86 621 86 662 c 0,66,67
 86 695 86 695 114 744 c 1,68,69
 152 782 152 782 267.5 840 c 128,-1,70
 383 898 383 898 496 898 c 0,71,72
 622 898 622 898 709 811.5 c 128,-1,73
 796 725 796 725 796 592 c 2,74,-1
 796 218 l 2,75,76
 796 179 796 179 809.5 157.5 c 128,-1,77
 823 136 823 136 844 136 c 0,78,79
 854 136 854 136 864 139 c 128,-1,80
 874 142 874 142 880 144.5 c 128,-1,81
 886 147 886 147 894 151.5 c 2,82,-1
 902 156 l 1,83,84
 916 149 916 149 916 122 c 0,85,86
 916 105 916 105 908 92 c 1,0,1
454 124 m 0,87,88
 488 124 488 124 512 139.5 c 128,-1,89
 536 155 536 155 536 166 c 2,90,-1
 536 446 l 1,91,92
 530 443 530 443 479 420 c 128,-1,93
 428 397 428 397 404 382 c 0,94,95
 328 333 328 333 332 248 c 1,96,97
 333 189 333 189 371 156.5 c 128,-1,98
 409 124 409 124 454 124 c 0,87,88
EndSplineSet
Substitution2: "'smcp' Lowercase to Small Capitals in Latin lookup 0 subtable" aogonek.sc
EndChar
StartChar: Eogonek
Encoding: 280 280 383
Width: 1204
Flags: W
LayerCount: 2
Fore
SplineSet
363 1314 m 0,0,1
 411 1314 411 1314 693.5 1320.5 c 128,-1,2
 976 1327 976 1327 1013 1328 c 1,3,4
 1019 1283 1019 1283 1029 1233 c 128,-1,5
 1039 1183 1039 1183 1052.5 1120.5 c 128,-1,6
 1066 1058 1066 1058 1071 1032 c 1,7,8
 1061 1022 1061 1022 1025 1022 c 0,9,10
 999 1022 999 1022 993 1038 c 0,11,12
 975 1085 975 1085 958 1117 c 128,-1,13
 941 1149 941 1149 915.5 1179.5 c 128,-1,14
 890 1210 890 1210 855.5 1225 c 128,-1,15
 821 1240 821 1240 777 1240 c 2,16,-1
 611 1240 l 2,17,18
 522 1240 522 1240 511 1216 c 0,19,20
 501 1192 501 1192 501 1094 c 2,21,-1
 501 736 l 2,22,23
 501 727 501 727 527.5 720.5 c 128,-1,24
 554 714 554 714 587 714 c 2,25,-1
 693 714 l 2,26,27
 781 714 781 714 813 740 c 128,-1,28
 845 766 845 766 869 854 c 1,29,30
 872 870 872 870 893 870 c 0,31,32
 921 870 921 870 931 860 c 1,33,-1
 931 476 l 1,34,35
 923 468 923 468 895 468 c 0,36,37
 870 468 870 468 867 484 c 1,38,39
 841 586 841 586 797 606 c 1,40,41
 763 620 763 620 645 620 c 0,42,43
 501 620 501 620 501 592 c 2,44,-1
 501 282 l 2,45,46
 501 164 501 164 517 124 c 0,47,48
 525 105 525 105 564 94.5 c 128,-1,49
 603 84 603 84 647 84 c 2,50,-1
 779 84 l 2,51,52
 899 84 899 84 965 150 c 0,53,54
 1023 208 1023 208 1073 340 c 1,55,56
 1076 352 1076 352 1101 352 c 0,57,58
 1117 352 1117 352 1137 348 c 128,-1,59
 1157 344 1157 344 1161 340 c 1,60,61
 1157 328 1157 328 1137.5 274 c 128,-1,62
 1118 220 1118 220 1109.5 195 c 128,-1,63
 1101 170 1101 170 1087 127 c 128,-1,64
 1073 84 1073 84 1065 52.5 c 128,-1,65
 1057 21 1057 21 1053 -4 c 1,66,67
 968 -27 968 -27 887.5 -84.5 c 128,-1,68
 807 -142 807 -142 807 -202 c 0,69,70
 807 -239 807 -239 830.5 -267.5 c 128,-1,71
 854 -296 854 -296 905 -296 c 0,72,73
 958 -296 958 -296 1055 -218 c 1,74,75
 1067 -218 1067 -218 1067 -240 c 0,76,77
 1067 -248 1067 -248 1062 -266 c 128,-1,78
 1057 -284 1057 -284 1053 -290 c 0,79,80
 1039 -308 1039 -308 1017 -329.5 c 128,-1,81
 995 -351 995 -351 962 -376.5 c 128,-1,82
 929 -402 929 -402 887.5 -419 c 128,-1,83
 846 -436 846 -436 807 -436 c 0,84,85
 751 -436 751 -436 705 -394 c 128,-1,86
 659 -352 659 -352 659 -280 c 0,87,88
 659 -203 659 -203 739 -120 c 128,-1,89
 819 -37 819 -37 913 -4 c 1,90,-1
 334 -4 l 2,91,92
 127 -4 127 -4 77 -6 c 1,93,94
 71 3 71 3 70.5 30 c 128,-1,95
 70 57 70 57 77 68 c 1,96,97
 195 77 195 77 205 102 c 0,98,99
 221 142 221 142 221 290 c 2,100,-1
 221 1026 l 2,101,102
 221 1174 221 1174 205 1214 c 0,103,104
 196 1237 196 1237 77 1246 c 1,105,106
 70 1257 70 1257 70.5 1284 c 128,-1,107
 71 1311 71 1311 77 1320 c 1,108,109
 167 1314 167 1314 363 1314 c 0,0,1
EndSplineSet
EndChar
StartChar: eogonek
Encoding: 281 281 384
Width: 920
Flags: W
LayerCount: 2
Fore
SplineSet
746 74 m 1,0,1
 644 -6 644 -6 606 -68.5 c 128,-1,2
 568 -131 568 -131 568 -202 c 0,3,4
 568 -239 568 -239 591.5 -267.5 c 128,-1,5
 615 -296 615 -296 666 -296 c 0,6,7
 718 -296 718 -296 816 -218 c 1,8,9
 828 -218 828 -218 828 -240 c 0,10,11
 828 -248 828 -248 823 -266 c 128,-1,12
 818 -284 818 -284 814 -290 c 0,13,14
 800 -308 800 -308 778 -329.5 c 128,-1,15
 756 -351 756 -351 723 -376.5 c 128,-1,16
 690 -402 690 -402 648.5 -419 c 128,-1,17
 607 -436 607 -436 568 -436 c 0,18,19
 512 -436 512 -436 466 -394 c 128,-1,20
 420 -352 420 -352 420 -280 c 0,21,22
 420 -203 420 -203 460.5 -130.5 c 128,-1,23
 501 -58 501 -58 554 -12 c 1,24,25
 521 -18 521 -18 484 -18 c 0,26,27
 371 -18 371 -18 276 31 c 128,-1,28
 181 80 181 80 122.5 176.5 c 128,-1,29
 64 273 64 273 64 400 c 0,30,31
 64 524 64 524 126.5 638.5 c 128,-1,32
 189 753 189 753 292.5 823.5 c 128,-1,33
 396 894 396 894 508 894 c 0,34,35
 583 894 583 894 644.5 873.5 c 128,-1,36
 706 853 706 853 744.5 821 c 128,-1,37
 783 789 783 789 809.5 748 c 128,-1,38
 836 707 836 707 847 668 c 128,-1,39
 858 629 858 629 858 592 c 0,40,41
 858 559 858 559 842 534 c 128,-1,42
 826 509 826 509 804 508 c 0,43,44
 624 492 624 492 324 484 c 1,45,46
 324 404 324 404 345 342 c 128,-1,47
 366 280 366 280 396.5 245 c 128,-1,48
 427 210 427 210 467 187.5 c 128,-1,49
 507 165 507 165 540 157.5 c 128,-1,50
 573 150 573 150 604 150 c 0,51,52
 737 150 737 150 828 250 c 1,53,54
 838 247 838 247 845 235.5 c 128,-1,55
 852 224 852 224 852 214 c 0,56,57
 852 185 852 185 846 176 c 0,58,59
 811 123 811 123 746 74 c 1,0,1
326 564 m 1,60,61
 339 563 339 563 443.5 569 c 128,-1,62
 548 575 548 575 584 580 c 1,63,64
 610 582 610 582 610 612 c 0,65,66
 610 692 610 692 580 752 c 128,-1,67
 550 812 550 812 488 812 c 0,68,69
 447 812 447 812 413.5 783.5 c 128,-1,70
 380 755 380 755 362 713 c 128,-1,71
 344 671 344 671 335 632 c 128,-1,72
 326 593 326 593 326 564 c 1,60,61
EndSplineSet
Substitution2: "'smcp' Lowercase to Small Capitals in Latin lookup 0 subtable" eogonek.sc
EndChar
StartChar: kgreenlandic
Encoding: 312 312 391
Width: 1206
Flags: W
LayerCount: 2
Fore
SplineSet
463 472 m 1,0,1
 512 489 512 489 611 574 c 0,2,3
 714 662 714 662 750.5 702.5 c 128,-1,4
 787 743 787 743 787 766 c 0,5,6
 787 782 787 782 741 795 c 128,-1,7
 695 808 695 808 659 810 c 1,8,9
 654 823 654 823 655 849 c 128,-1,10
 656 875 656 875 663 878 c 1,11,12
 841 870 841 870 925 870 c 0,13,14
 957 870 957 870 990.5 871.5 c 128,-1,15
 1024 873 1024 873 1069.5 876 c 128,-1,16
 1115 879 1115 879 1147 880 c 1,17,18
 1156 865 1156 865 1153 840 c 128,-1,19
 1150 815 1150 815 1141 810 c 1,20,21
 1015 798 1015 798 943 748 c 0,22,23
 925 735 925 735 887.5 701.5 c 128,-1,24
 850 668 850 668 788 611 c 128,-1,25
 726 554 726 554 679 512 c 1,26,27
 761 416 761 416 845 325 c 128,-1,28
 929 234 929 234 963 196 c 0,29,30
 1002 152 1002 152 1036 125.5 c 128,-1,31
 1070 99 1070 99 1101 88 c 128,-1,32
 1132 77 1132 77 1151 74.5 c 128,-1,33
 1170 72 1170 72 1201 72 c 1,34,35
 1208 51 1208 51 1206.5 35 c 128,-1,36
 1205 19 1205 19 1201 12 c 1,37,38
 1176 3 1176 3 1115.5 -4.5 c 128,-1,39
 1055 -12 1055 -12 999 -12 c 0,40,41
 914 -12 914 -12 842.5 20 c 128,-1,42
 771 52 771 52 725 106 c 1,43,44
 587 254 587 254 489 376 c 0,45,46
 485 381 485 381 478.5 387.5 c 128,-1,47
 472 394 472 394 467.5 398 c 2,48,-1
 463 402 l 1,49,-1
 463 290 l 2,50,51
 463 142 463 142 479 102 c 0,52,53
 489 75 489 75 607 66 c 1,54,55
 614 55 614 55 613.5 28 c 128,-1,56
 613 1 613 1 607 -8 c 1,57,58
 470 6 470 6 333 6 c 128,-1,59
 196 6 196 6 59 -8 c 1,60,61
 53 1 53 1 52.5 28 c 128,-1,62
 52 55 52 55 59 66 c 1,63,64
 177 75 177 75 187 102 c 0,65,66
 203 142 203 142 203 290 c 2,67,-1
 203 520 l 2,68,69
 203 650 203 650 185 684 c 0,70,71
 175 703 175 703 128.5 713.5 c 128,-1,72
 82 724 82 724 59 724 c 1,73,74
 54 727 54 727 54 756.5 c 128,-1,75
 54 786 54 786 61 786 c 0,76,77
 165 794 165 794 274.5 826 c 128,-1,78
 384 858 384 858 451 892 c 1,79,80
 461 889 461 889 473 876 c 128,-1,81
 485 863 485 863 485 858 c 1,82,83
 481 846 481 846 474 805.5 c 128,-1,84
 467 765 467 765 465 744 c 1,85,86
 463 700 463 700 463 472 c 1,0,1
EndSplineSet
Substitution2: "'smcp' Lowercase to Small Capitals in Latin lookup 0 subtable" kgreenlandic.sc
EndChar
StartChar: Lslash
Encoding: 321 321 392
Width: 1168
Flags: W
LayerCount: 2
Fore
SplineSet
80 360 m 1,0,1
 33 415 33 415 42 424 c 1,2,-1
 746 912 l 1,3,4
 798 860 798 860 786 848 c 1,5,-1
 80 360 l 1,0,1
EndSplineSet
Refer: 44 76 N 1 0 0 1 10 0 2
EndChar
StartChar: lslash
Encoding: 322 322 393
Width: 624
Flags: W
LayerCount: 2
Fore
SplineSet
72 420 m 1,0,1
 25 475 25 475 34 484 c 1,2,-1
 606 886 l 1,3,4
 658 834 658 834 646 822 c 1,5,-1
 72 420 l 1,0,1
EndSplineSet
Refer: 76 108 N 1 0 0 1 2 0 2
Substitution2: "'smcp' Lowercase to Small Capitals in Latin lookup 0 subtable" lslash.sc
EndChar
StartChar: Eng
Encoding: 330 330 394
Width: 1518
Flags: W
LayerCount: 2
Fore
SplineSet
1287 278 m 2,0,1
 1287 -60 1287 -60 1127 -248 c 128,-1,2
 967 -436 967 -436 691 -436 c 0,3,4
 664 -436 664 -436 628 -424 c 128,-1,5
 592 -412 592 -412 577 -400 c 0,6,7
 576 -398 576 -398 571 -391 c 128,-1,8
 566 -384 566 -384 564.5 -380.5 c 128,-1,9
 563 -377 563 -377 559 -370 c 128,-1,10
 555 -363 555 -363 553 -358 c 128,-1,11
 551 -353 551 -353 549 -345.5 c 128,-1,12
 547 -338 547 -338 546 -330.5 c 128,-1,13
 545 -323 545 -323 545 -314 c 0,14,15
 545 -262 545 -262 581.5 -221 c 128,-1,16
 618 -180 618 -180 665 -180 c 0,17,18
 695 -180 695 -180 726.5 -201 c 128,-1,19
 758 -222 758 -222 779.5 -247 c 128,-1,20
 801 -272 801 -272 827 -293 c 128,-1,21
 853 -314 853 -314 873 -314 c 0,22,23
 970 -314 970 -314 1036.5 -189.5 c 128,-1,24
 1103 -65 1103 -65 1103 136 c 1,25,-1
 369 1048 l 1,26,-1
 369 282 l 2,27,28
 369 148 369 148 379 120 c 0,29,30
 388 96 388 96 456 82 c 128,-1,31
 524 68 524 68 555 68 c 1,32,33
 563 55 563 55 563 29.5 c 128,-1,34
 563 4 563 4 559 -8 c 1,35,36
 536 -7 536 -7 447 0.5 c 128,-1,37
 358 8 358 8 307 8 c 128,-1,38
 256 8 256 8 177.5 1 c 128,-1,39
 99 -6 99 -6 63 -8 c 1,40,41
 58 0 58 0 57.5 18.5 c 128,-1,42
 57 37 57 37 59 51.5 c 128,-1,43
 61 66 61 66 63 66 c 0,44,45
 96 66 96 66 159.5 80.5 c 128,-1,46
 223 95 223 95 233 118 c 0,47,48
 247 148 247 148 247 288 c 2,49,-1
 247 1074 l 2,50,51
 247 1172 247 1172 217 1216 c 0,52,53
 208 1230 208 1230 157 1240 c 128,-1,54
 106 1250 106 1250 79 1250 c 0,55,56
 71 1250 71 1250 69.5 1283 c 128,-1,57
 68 1316 68 1316 75 1324 c 1,58,59
 93 1323 93 1323 136 1319 c 128,-1,60
 179 1315 179 1315 219.5 1312.5 c 128,-1,61
 260 1310 260 1310 301 1310 c 0,62,63
 407 1310 407 1310 519 1324 c 1,64,65
 553 1254 553 1254 650 1126.5 c 128,-1,66
 747 999 747 999 914 794 c 128,-1,67
 1081 589 1081 589 1161 486 c 1,68,69
 1165 500 1165 500 1165 568 c 2,70,-1
 1165 1044 l 2,71,72
 1165 1184 1165 1184 1151 1214 c 0,73,74
 1141 1237 1141 1237 1077.5 1251.5 c 128,-1,75
 1014 1266 1014 1266 981 1266 c 0,76,77
 979 1266 979 1266 977 1280.5 c 128,-1,78
 975 1295 975 1295 975.5 1313.5 c 128,-1,79
 976 1332 976 1332 981 1340 c 1,80,81
 1017 1338 1017 1338 1095.5 1331 c 128,-1,82
 1174 1324 1174 1324 1225 1324 c 128,-1,83
 1276 1324 1276 1324 1365 1331.5 c 128,-1,84
 1454 1339 1454 1339 1477 1340 c 1,85,86
 1481 1328 1481 1328 1481 1302.5 c 128,-1,87
 1481 1277 1481 1277 1473 1264 c 1,88,89
 1442 1264 1442 1264 1374 1250 c 128,-1,90
 1306 1236 1306 1236 1297 1212 c 0,91,92
 1287 1184 1287 1184 1287 1050 c 2,93,-1
 1287 278 l 2,0,1
EndSplineSet
EndChar
StartChar: OE
Encoding: 338 338 396
Width: 2030
Flags: W
LayerCount: 2
Fore
SplineSet
1188 1314 m 0,0,1
 1236 1314 1236 1314 1518.5 1320.5 c 128,-1,2
 1801 1327 1801 1327 1838 1328 c 1,3,4
 1844 1283 1844 1283 1854 1233 c 128,-1,5
 1864 1183 1864 1183 1877.5 1120.5 c 128,-1,6
 1891 1058 1891 1058 1896 1032 c 1,7,8
 1886 1022 1886 1022 1850 1022 c 0,9,10
 1824 1022 1824 1022 1818 1038 c 0,11,12
 1800 1085 1800 1085 1783 1117 c 128,-1,13
 1766 1149 1766 1149 1740.5 1179.5 c 128,-1,14
 1715 1210 1715 1210 1680.5 1225 c 128,-1,15
 1646 1240 1646 1240 1602 1240 c 2,16,-1
 1436 1240 l 2,17,18
 1347 1240 1347 1240 1336 1216 c 0,19,20
 1326 1192 1326 1192 1326 1094 c 2,21,-1
 1326 736 l 2,22,23
 1326 727 1326 727 1352 720.5 c 128,-1,24
 1378 714 1378 714 1412 714 c 2,25,-1
 1518 714 l 2,26,27
 1606 714 1606 714 1638 740 c 128,-1,28
 1670 766 1670 766 1694 854 c 1,29,30
 1697 870 1697 870 1718 870 c 0,31,32
 1746 870 1746 870 1756 860 c 1,33,-1
 1756 476 l 1,34,35
 1748 468 1748 468 1720 468 c 0,36,37
 1695 468 1695 468 1692 484 c 1,38,39
 1666 586 1666 586 1622 606 c 1,40,41
 1588 620 1588 620 1470 620 c 0,42,43
 1326 620 1326 620 1326 592 c 2,44,-1
 1326 282 l 2,45,46
 1326 164 1326 164 1342 124 c 0,47,48
 1350 105 1350 105 1389 94.5 c 128,-1,49
 1428 84 1428 84 1472 84 c 2,50,-1
 1604 84 l 2,51,52
 1724 84 1724 84 1790 150 c 0,53,54
 1848 208 1848 208 1898 340 c 1,55,56
 1901 352 1901 352 1926 352 c 0,57,58
 1942 352 1942 352 1962 348 c 128,-1,59
 1982 344 1982 344 1986 340 c 1,60,61
 1982 328 1982 328 1962.5 274 c 128,-1,62
 1943 220 1943 220 1934.5 195 c 128,-1,63
 1926 170 1926 170 1912 127 c 128,-1,64
 1898 84 1898 84 1890 52.5 c 128,-1,65
 1882 21 1882 21 1878 -4 c 1,66,67
 1446 -4 1446 -4 1176 -5 c 0,68,69
 1116 -5 1116 -5 1054 -5.5 c 128,-1,70
 992 -6 992 -6 951 -6 c 128,-1,71
 910 -6 910 -6 902 -6 c 2,72,-1
 901.125855999 -6 l 1,73,-1
 900.336210342 -6 l 1,74,-1
 899.003736966 -6 l 1,75,-1
 898.457123635 -6 l 1,76,-1
 897.59248485 -6 l 1,77,-1
 897.269783637 -6 l 1,78,-1
 896.831100745 -6 l 1,79,-1
 896.650395659 -6 l 1,80,-1
 896.705777941 -6 l 1,81,-1
 896.975016104 -6 l 1,82,-1
 897.436011701 -6 l 1,83,-1
 897.731649806 -6 l 1,84,-1
 898.440108647 -6 l 1,85,-1
 898.847881088 -6 l 1,86,-1
 899.758444412 -6 l 1,87,-1
 900.780552106 -6 l 1,88,-1
 901.897229446 -6 l 1,89,-1
 903.092909353 -6 l 1,90,-1
 903.715895654 -6 l 1,91,-1
 905.003956178 -6 l 1,92,-1
 905.665998975 -6 l 1,93,-1
 907.019130666 -6 l 1,94,-1
 907.707657145 -6 l 1,95,-1
 909.10276531 -6 l 1,96,-1
 909.807204534 -6 l 1,97,-1
 910.514912069 -6 l 1,98,-1
 911.936525871 -6 l 1,99,-1
 912.648768699 -6 l 1,100,-1
 914.072357572 -6 l 1,101,-1
 914.782340944 -6 l 1,102,-1
 916.195610381 -6 l 1,103,-1
 916.897788903 -6 l 1,104,-1
 917.596321038 -6 l 1,105,-1
 918.980627554 -6 l 1,106,-1
 919.665572407 -6 l 1,107,-1
 921.0191914 -6 l 1,108,-1
 921.687204716 -6 l 1,109,-1
 923.004169696 -6 l 1,110,-1
 923.652600617 -6 l 1,111,-1
 924.928208796 -6 l 1,112,-1
 925.55498121 -6 l 1,113,-1
 926.785575504 -6 l 1,114,-1
 927.984561475 -6 l 1,115,-1
 928.571874257 -6 l 1,116,-1
 929.721591959 -6 l 1,117,-1
 930.837495628 -6 l 1,118,-1
 931.91899563 -6 l 1,119,-1
 932.96563885 -6 l 1,120,-1
 933.977091511 -6 l 1,121,-1
 934.95312403 -6 l 1,122,-1
 935.893597686 -6 l 1,123,-1
 936.798452869 -6 l 1,124,-1
 937.667698735 -6 l 1,125,-1
 938.501404108 -6 l 1,126,-1
 939.299689451 -6 l 1,127,-1
 939.685599623 -6 l 1,128,-1
 940.431076604 -6 l 1,129,-1
 940.790698621 -6 l 1,130,-1
 941.483862194 -6 l 1,131,-1
 941.817469918 -6 l 1,132,-1
 942.458914016 -6 l 1,133,-1
 942.766825133 -6 l 1,134,-1
 943.357221142 -6 l 1,135,-1
 943.639787384 -6 l 1,136,-1
 944.179866378 -6 l 1,137,-1
 944.686829607 -6 l 1,138,-1
 945.161032522 -6 l 1,139,-1
 945.602838754 -6 l 1,140,-1
 946.012618277 -6 l 1,141,-1
 946.390745801 -6 l 1,142,-1
 946.568058106 -6 l 1,143,-1
 946.899417151 -6 l 1,144,-1
 947.200072873 -6 l 1,145,-1
 947.470406562 -6 l 1,146,-1
 947.594321723 -6 l 1,147,-1
 947.819886305 -6 l 1,148,-1
 948.016078906 -6 l 1,149,-1
 948.183276465 -6 l 1,150,-1
 948.321853316 -6 l 1,151,-1
 948.432180729 -6 l 1,152,-1
 948.514626515 -6 l 1,153,-1
 948.569554696 -6 l 1,154,-1
 948.597325221 -6 l 1,155,-1
 948.598293728 -6 l 1,156,-1
 948.572811349 -6 l 1,157,-1
 948.521224551 -6 l 1,158,-1
 948.485748956 -6 l 1,159,-1
 948.395644629 -6 l 1,160,-1
 948.280280846 -6 l 1,161,-1
 948.139986891 -6 l 1,162,-1
 947.975086997 -6 l 1,163,-1
 947.785900316 -6 l 1,164,-1
 947.572740908 -6 l 1,165,-1
 947.457268182 -6 l 1,166,-1
 947.208727406 -6 l 1,167,-1
 946.9369768 -6 l 1,168,-1
 946.642312678 -6 l 1,169,-1
 946.486479275 -6 l 1,170,-1
 946.157989525 -6 l 1,171,-1
 945.807305234 -6 l 1,172,-1
 945.434705398 -6 l 1,173,-1
 945.040464182 -6 l 1,174,-1
 944.624850982 -6 l 1,175,-1
 944.409112788 -6 l 1,176,-1
 943.961936463 -6 l 1,177,-1
 943.494041221 -6 l 1,178,-1
 943.005680297 -6 l 1,179,-1
 942.497102471 -6 l 1,180,-1
 941.96855214 -6 l 1,181,-1
 941.420269391 -6 l 1,182,-1
 940.852490079 -6 l 1,183,-1
 940.265445901 -6 l 1,184,-1
 939.659364476 -6 l 1,185,-1
 939.349254828 -6 l 1,186,-1
 938.71503557 -6 l 1,187,-1
 938.390980396 -6 l 1,188,-1
 937.729113253 -6 l 1,189,-1
 937.391354294 -6 l 1,190,-1
 936.702316392 -6 l 1,191,-1
 936.351089076 -6 l 1,192,-1
 935.635345097 -6 l 1,193,-1
 935.27087872 -6 l 1,194,-1
 934.528881273 -6 l 1,195,-1
 934.151399187 -6 l 1,196,-1
 933.383589165 -6 l 1,197,-1
 932.598810078 -6 l 1,198,-1
 932.200115892 -6 l 1,199,-1
 931.390233984 -6 l 1,200,-1
 930.563846052 -6 l 1,201,-1
 930.144518607 -6 l 1,202,-1
 929.293707639 -6 l 1,203,-1
 928.426834224 -6 l 1,204,-1
 927.544070565 -6 l 1,205,-1
 927.096782914 -6 l 1,206,-1
 926.190500456 -6 l 1,207,-1
 925.268745733 -6 l 1,208,-1
 924.331681079 -6 l 1,209,-1
 923.379466139 -6 l 1,210,-1
 922.412257927 -6 l 1,211,-1
 921.430210875 -6 l 1,212,-1
 920.433476893 -6 l 1,213,-1
 919.422205417 -6 l 1,214,-1
 918.396543461 -6 l 1,215,-1
 917.356635669 -6 l 1,216,-1
 916.302624361 -6 l 1,217,-1
 915.234649585 -6 l 1,218,-1
 914.152849158 -6 l 1,219,-1
 913.057358717 -6 l 1,220,-1
 911.948311761 -6 l 1,221,-1
 911.388745735 -6 l 1,222,-1
 910.259609748 -6 l 1,223,-1
 909.117241928 -6 l 1,224,-1
 907.961768628 -6 l 1,225,-1
 907.379156376 -6 l 1,226,-1
 906.204257522 -6 l 1,227,-1
 905.016560639 -6 l 1,228,-1
 904.417950416 -6 l 1,229,-1
 903.211280367 -6 l 1,230,-1
 901.99210816 -6 l 1,231,-1
 901.377869826 -6 l 1,232,-1
 900.140159909 -6 l 1,233,-1
 898.890232697 -6 l 1,234,-1
 898.260722352 -6 l 1,235,-1
 896.99267678 -6 l 1,236,-1
 896.354168686 -6 l 1,237,-1
 895.068248963 -6 l 1,238,-1
 894.420863872 -6 l 1,239,-1
 893.117308853 -6 l 1,240,-1
 892.461164885 -6 l 1,241,-1
 891.140208226 -6 l 1,242,-1
 890.475420936 -6 l 1,243,-1
 889.137291249 -6 l 1,244,-1
 888.463973708 -6 l 1,245,-1
 887.108894699 -6 l 1,246,-1
 886.427157559 -6 l 1,247,-1
 885.055348176 -6 l 1,248,-1
 884.365299745 -6 l 1,249,-1
 882.976974306 -6 l 1,250,-1
 882.278720611 -6 l 1,251,-1
 880.87408894 -6 l 1,252,-1
 880.167733791 -6 l 1,253,-1
 879.458700853 -6 l 1,254,-1
 878.032646397 -6 l 1,255,-1
 877.31564708 -6 l 1,256,-1
 875.873759198 -6 l 1,257,-1
 875.148892381 -6 l 1,258,-1
 874.421424685 -6 l 1,259,-1
 872.958729344 -6 l 1,260,-1
 872.223522857 -6 l 1,261,-1
 871.485757814 -6 l 1,262,-1
 870.002593597 -6 l 1,263,-1
 869.257215018 -6 l 1,264,-1
 867.758915886 -6 l 1,265,-1
 867.006015519 -6 l 1,266,-1
 866.25062796 -6 l 1,267,-1
 865.492763136 -6 l 1,268,-1
 863.969641064 -6 l 1,269,-1
 863.20440334 -6 l 1,270,-1
 862.4367274 -6 l 1,271,-1
 860.894099217 -6 l 1,272,-1
 860.119165993 -6 l 1,273,-1
 859.341832587 -6 l 1,274,-1
 857.780002592 -6 l 1,275,-1
 856.99552453 -6 l 1,276,-1
 856.208683345 -6 l 1,277,-1
 855.419488152 -6 l 1,278,-1
 853.83407191 -6 l 1,279,-1
 853.037868803 -6 l 1,280,-1
 852.239347569 -6 l 1,281,-1
 851.438517037 -6 l 1,282,-1
 849.829963113 -6 l 1,283,-1
 849.022257099 -6 l 1,284,-1
 848.212276544 -6 l 1,285,-1
 847.400030001 -6 l 1,286,-1
 845.768772896 -6 l 1,287,-1
 844.949779175 -6 l 1,288,-1
 844.128553146 -6 l 1,289,-1
 843.305103099 -6 l 1,290,-1
 842.479437273 -6 l 1,291,-1
 840.82149098 -6 l 1,292,-1
 839.989226737 -6 l 1,293,-1
 839.154779162 -6 l 1,294,-1
 838.318156243 -6 l 1,295,-1
 837.479365918 -6 l 1,296,-1
 835.795314569 -6 l 1,297,-1
 834.950069182 -6 l 1,298,-1
 834.102687665 -6 l 1,299,-1
 833.253177721 -6 l 1,300,-1
 832.401547003 -6 l 1,301,-1
 830.691953635 -6 l 1,302,-1
 829.834006066 -6 l 1,303,-1
 828.973967886 -6 l 1,304,-1
 828.111846522 -6 l 1,305,-1
 827.247649359 -6 l 1,306,-1
 826.381383738 -6 l 1,307,-1
 824.642676261 -6 l 1,308,-1
 823.770248871 -6 l 1,309,-1
 822.895781952 -6 l 1,310,-1
 822.019282631 -6 l 1,311,-1
 821.140757991 -6 l 1,312,-1
 820.260215078 -6 l 1,313,-1
 819.377660893 -6 l 1,314,-1
 818.493102397 -6 l 1,315,-1
 816.71800012 -6 l 1,316,-1
 815.827470061 -6 l 1,317,-1
 814.934963138 -6 l 1,318,-1
 814.040486113 -6 l 1,319,-1
 813.144045711 -6 l 1,320,-1
 812.245648617 -6 l 1,321,-1
 811.345301479 -6 l 1,322,-1
 810.443010905 -6 l 1,323,-1
 808.632625704 -6 l 1,324,-1
 807.724544109 -6 l 1,325,-1
 806.814545144 -6 l 1,326,-1
 805.902635233 -6 l 1,327,-1
 804.988820764 -6 l 1,328,-1
 804.073108091 -6 l 1,329,-1
 803.15550353 -6 l 1,330,-1
 802.236013363 -6 l 1,331,-1
 801.314643835 -6 l 1,332,-1
 800.39140116 -6 l 1,333,-1
 799.466291513 -6 l 1,334,-1
 797.610495844 -6 l 1,335,-1
 796.679822005 -6 l 1,336,-1
 795.747305565 -6 l 1,337,-1
 794.812952532 -6 l 1,338,-1
 793.87676888 -6 l 1,339,-1
 792.938760554 -6 l 1,340,-1
 791.998933463 -6 l 1,341,-1
 791.057293486 -6 l 1,342,-1
 790.113846469 -6 l 1,343,-1
 789.168598227 -6 l 1,344,-1
 788.221554543 -6 l 1,345,-1
 787.272721169 -6 l 1,346,-1
 786.322103825 -6 l 1,347,-1
 785.369708202 -6 l 1,348,-1
 784.415539959 -6 l 1,349,-1
 783.459604726 -6 l 1,350,-1
 781.542455653 -6 l 1,351,-1
 780.581252922 -6 l 1,352,-1
 779.618305419 -6 l 1,353,-1
 778.653618623 -6 l 1,354,-1
 777.687197988 -6 l 1,355,-1
 776.719048935 -6 l 1,356,-1
 775.74917686 -6 l 1,357,-1
 774.777587128 -6 l 1,358,-1
 773.804285078 -6 l 1,359,-1
 772.829276019 -6 l 1,360,-1
 771.852565233 -6 l 1,361,-1
 770.874157976 -6 l 1,362,-1
 769.894059474 -6 l 1,363,-1
 768.912274928 -6 l 1,364,-1
 767.928809511 -6 l 1,365,-1
 758 -6 l 2,366,367
 583 -6 583 -6 427.5 80.5 c 128,-1,368
 272 167 272 167 176 320.5 c 128,-1,369
 80 474 80 474 80 656 c 128,-1,370
 80 838 80 838 175 993.5 c 128,-1,371
 270 1149 270 1149 425 1237.5 c 128,-1,372
 580 1326 580 1326 754 1326 c 0,373,374
 867 1326 867 1326 1013.5 1320 c 128,-1,375
 1160 1314 1160 1314 1188 1314 c 0,0,1
706 1244 m 0,376,377
 621 1244 621 1244 556.5 1198 c 128,-1,378
 492 1152 492 1152 455 1075 c 128,-1,379
 418 998 418 998 400 910 c 128,-1,380
 382 822 382 822 382 726 c 0,381,382
 382 631 382 631 396 540.5 c 128,-1,383
 410 450 410 450 442 364.5 c 128,-1,384
 474 279 474 279 521 215 c 128,-1,385
 568 151 568 151 639 112.5 c 128,-1,386
 710 74 710 74 796 74 c 0,387,388
 854 74 854 74 916 90 c 128,-1,389
 978 106 978 106 1004 138 c 0,390,391
 1046 189 1046 189 1046 298 c 2,392,-1
 1046 962 l 2,393,394
 1046 1095 1046 1095 980 1164 c 0,395,396
 904 1244 904 1244 706 1244 c 0,376,377
EndSplineSet
EndChar
StartChar: oe
Encoding: 339 339 397
Width: 1572
Flags: W
LayerCount: 2
Fore
SplineSet
1140 812 m 3,0,1
 1099 812 1099 812 1065.5 783.5 c 128,-1,2
 1032 755 1032 755 1014 713 c 128,-1,3
 996 671 996 671 987 632 c 128,-1,4
 978 593 978 593 978 564 c 1,5,6
 991 563 991 563 1095.5 569 c 128,-1,7
 1200 575 1200 575 1236 580 c 1,8,9
 1262 582 1262 582 1262 612 c 0,10,11
 1262 692 1262 692 1232 752 c 128,-1,12
 1202 812 1202 812 1140 812 c 3,0,1
508 812 m 3,13,14
 456 812 456 812 422 781.5 c 128,-1,15
 388 751 388 751 373 695.5 c 128,-1,16
 358 640 358 640 353 590 c 128,-1,17
 348 540 348 540 348 474 c 0,18,19
 348 379 348 379 368 290.5 c 128,-1,20
 388 202 388 202 436.5 136 c 128,-1,21
 485 70 485 70 554 70 c 0,22,23
 596 70 596 70 627 91.5 c 128,-1,24
 658 113 658 113 674.5 145 c 128,-1,25
 691 177 691 177 701 225 c 128,-1,26
 711 273 711 273 713.5 313 c 128,-1,27
 716 353 716 353 716 404 c 0,28,29
 716 500 716 500 695.5 589.5 c 128,-1,30
 675 679 675 679 626 745.5 c 128,-1,31
 577 812 577 812 508 812 c 3,13,14
1256 150 m 0,32,33
 1389 150 1389 150 1480 250 c 1,34,35
 1490 247 1490 247 1497 235.5 c 128,-1,36
 1504 224 1504 224 1504 214 c 0,37,38
 1504 185 1504 185 1498 176 c 0,39,40
 1482 151 1482 151 1452 121.5 c 128,-1,41
 1422 92 1422 92 1376 59 c 128,-1,42
 1330 26 1330 26 1266.5 4 c 128,-1,43
 1203 -18 1203 -18 1136 -18 c 0,44,45
 960 -18 960 -18 838 98 c 1,46,47
 706 -14 706 -14 534 -14 c 0,48,49
 328 -14 328 -14 196 114.5 c 128,-1,50
 64 243 64 243 64 434 c 0,51,52
 64 624 64 624 199.5 759 c 128,-1,53
 335 894 335 894 530 894 c 0,54,55
 739 894 739 894 872 764 c 1,56,57
 931 825 931 825 1006.5 859.5 c 128,-1,58
 1082 894 1082 894 1160 894 c 0,59,60
 1235 894 1235 894 1296.5 873.5 c 128,-1,61
 1358 853 1358 853 1396.5 821 c 128,-1,62
 1435 789 1435 789 1461.5 748 c 128,-1,63
 1488 707 1488 707 1499 668 c 128,-1,64
 1510 629 1510 629 1510 592 c 0,65,66
 1510 559 1510 559 1494 534 c 128,-1,67
 1478 509 1478 509 1456 508 c 0,68,69
 1276 492 1276 492 976 484 c 1,70,71
 976 404 976 404 997 342 c 128,-1,72
 1018 280 1018 280 1048.5 245 c 128,-1,73
 1079 210 1079 210 1119 187.5 c 128,-1,74
 1159 165 1159 165 1192 157.5 c 128,-1,75
 1225 150 1225 150 1256 150 c 0,32,33
EndSplineSet
Substitution2: "'smcp' Lowercase to Small Capitals in Latin lookup 0 subtable" oe.sc
EndChar
StartChar: Tbar
Encoding: 358 358 398
Width: 1268
Flags: W
LayerCount: 2
Fore
SplineSet
984 616 m 1,0,-1
 284 616 l 2,1,2
 280 616 280 616 278 632 c 0,3,4
 276 648 276 648 278 668 c 0,5,6
 280 688 280 688 286 696 c 1,7,-1
 984 696 l 2,8,9
 990 696 990 696 990 663 c 0,10,11
 990 630 990 630 984 616 c 1,0,-1
EndSplineSet
Refer: 52 84 N 1 0 0 1 0 0 3
EndChar
StartChar: tbar
Encoding: 359 359 399
Width: 688
Flags: W
LayerCount: 2
Fore
SplineSet
654 546 m 1,0,-1
 26 546 l 2,1,2
 22 546 22 546 20 560.5 c 0,3,4
 18 575 18 575 20 593.5 c 0,5,6
 22 612 22 612 28 620 c 1,7,-1
 654 620 l 2,8,9
 660 620 660 620 660 590 c 0,10,11
 660 560 660 560 654 546 c 1,0,-1
EndSplineSet
Refer: 84 116 N 1 0 0 1 0 0 2
Substitution2: "'smcp' Lowercase to Small Capitals in Latin lookup 0 subtable" tbar.sc
EndChar
StartChar: Ohorn
Encoding: 416 416 617
Width: 1520
Flags: W
LayerCount: 2
Fore
SplineSet
694 1222 m 0,0,1
 613 1222 613 1222 553 1179 c 128,-1,2
 493 1136 493 1136 459.5 1060.5 c 128,-1,3
 426 985 426 985 410 895.5 c 128,-1,4
 394 806 394 806 394 700 c 0,5,6
 394 635 394 635 402 568.5 c 128,-1,7
 410 502 410 502 426.5 432.5 c 128,-1,8
 443 363 443 363 472 303 c 128,-1,9
 501 243 501 243 539.5 195 c 128,-1,10
 578 147 578 147 633.5 119.5 c 128,-1,11
 689 92 689 92 756 92 c 0,12,13
 833 92 833 92 892.5 135.5 c 128,-1,14
 952 179 952 179 986.5 254.5 c 128,-1,15
 1021 330 1021 330 1038.5 421.5 c 128,-1,16
 1056 513 1056 513 1056 618 c 0,17,18
 1056 689 1056 689 1049 756 c 128,-1,19
 1042 823 1042 823 1026.5 893 c 128,-1,20
 1011 963 1011 963 983.5 1020.5 c 128,-1,21
 956 1078 956 1078 917 1124.5 c 128,-1,22
 878 1171 878 1171 821 1196.5 c 128,-1,23
 764 1222 764 1222 694 1222 c 0,0,1
724 1334 m 0,24,25
 780 1334 780 1334 837.5 1322.5 c 128,-1,26
 895 1311 895 1311 921.5 1301.5 c 128,-1,27
 948 1292 948 1292 960 1286 c 1,28,29
 1167 1206 1167 1206 1228 1206 c 0,30,31
 1300 1206 1300 1206 1300 1244 c 0,32,33
 1300 1256 1300 1256 1278 1289 c 128,-1,34
 1256 1322 1256 1322 1256 1348 c 0,35,36
 1256 1376 1256 1376 1275.5 1395.5 c 128,-1,37
 1295 1415 1295 1415 1327 1424 c 128,-1,38
 1359 1433 1359 1433 1387 1436.5 c 128,-1,39
 1415 1440 1415 1440 1444 1440 c 1,40,41
 1458 1426 1458 1426 1470 1384.5 c 128,-1,42
 1482 1343 1482 1343 1482 1304 c 0,43,44
 1482 1223 1482 1223 1404 1167.5 c 128,-1,45
 1326 1112 1326 1112 1240 1112 c 0,46,47
 1210 1112 1210 1112 1190 1122 c 1,48,49
 1274 1029 1274 1029 1321 908.5 c 128,-1,50
 1368 788 1368 788 1368 656 c 0,51,52
 1368 518 1368 518 1316.5 393 c 128,-1,53
 1265 268 1265 268 1178.5 177.5 c 128,-1,54
 1092 87 1092 87 973 33.5 c 128,-1,55
 854 -20 854 -20 724 -20 c 0,56,57
 551 -20 551 -20 403 70.5 c 128,-1,58
 255 161 255 161 168.5 316.5 c 128,-1,59
 82 472 82 472 82 656 c 0,60,61
 82 841 82 841 166 996.5 c 128,-1,62
 250 1152 250 1152 397.5 1243 c 128,-1,63
 545 1334 545 1334 724 1334 c 0,24,25
EndSplineSet
EndChar
StartChar: uni01EA
Encoding: 490 490 457
Width: 1454
Flags: W
LayerCount: 2
Back
SplineSet
1068.98632812 86 m 0,0,1
 1205.99455035 177.84946762 1205.99455035 177.84946762 1286.99727517 328.657113699 c 0,2,3
 1368 479.464759779 1368 479.464759779 1368 656 c 0
EndSplineSet
Fore
SplineSet
698 1222 m 0,0,1
 617 1222 617 1222 557 1179 c 128,-1,2
 497 1136 497 1136 463.5 1060.5 c 128,-1,3
 430 985 430 985 414 895.5 c 128,-1,4
 398 806 398 806 398 700 c 0,5,6
 398 635 398 635 406 568.5 c 128,-1,7
 414 502 414 502 430.5 432.5 c 128,-1,8
 447 363 447 363 476 303 c 128,-1,9
 505 243 505 243 543.5 195 c 128,-1,10
 582 147 582 147 637.5 119.5 c 128,-1,11
 693 92 693 92 760 92 c 0,12,13
 837 92 837 92 896.5 135.5 c 128,-1,14
 956 179 956 179 990.5 254.5 c 128,-1,15
 1025 330 1025 330 1042.5 421.5 c 128,-1,16
 1060 513 1060 513 1060 618 c 0,17,18
 1060 689 1060 689 1053 756 c 128,-1,19
 1046 823 1046 823 1030.5 893 c 128,-1,20
 1015 963 1015 963 987.5 1020.5 c 128,-1,21
 960 1078 960 1078 921 1124.5 c 128,-1,22
 882 1171 882 1171 825 1196.5 c 128,-1,23
 768 1222 768 1222 698 1222 c 0,0,1
728 1334 m 128,-1,25
 901 1334 901 1334 1049.5 1243 c 128,-1,26
 1198 1152 1198 1152 1285 996 c 128,-1,27
 1372 840 1372 840 1372 656 c 0,28,29
 1372 481 1372 481 1296.5 337.5 c 128,-1,30
 1221 194 1221 194 1088 96 c 0,31,32
 1000 32 1000 32 940 -54.5 c 128,-1,33
 880 -141 880 -141 880 -220 c 0,34,35
 880 -250 880 -250 904 -267 c 128,-1,36
 928 -284 928 -284 962 -284 c 0,37,38
 1000 -284 1000 -284 1048.5 -261.5 c 128,-1,39
 1097 -239 1097 -239 1122 -218 c 0,40,41
 1123 -218 1123 -218 1125.5 -223.5 c 128,-1,42
 1128 -229 1128 -229 1130 -238 c 128,-1,43
 1132 -247 1132 -247 1132 -254 c 0,44,45
 1132 -282 1132 -282 1120 -298 c 0,46,47
 1085 -342 1085 -342 1016 -389 c 128,-1,48
 947 -436 947 -436 874 -436 c 0,49,50
 816 -436 816 -436 764 -394.5 c 128,-1,51
 712 -353 712 -353 712 -280 c 0,52,53
 712 -214 712 -214 763.5 -131 c 128,-1,54
 815 -48 815 -48 886 2 c 1,55,56
 826 -20 826 -20 728 -20 c 0,57,58
 555 -20 555 -20 407 70.5 c 128,-1,59
 259 161 259 161 172.5 316.5 c 128,-1,60
 86 472 86 472 86 656 c 128,-1,61
 86 840 86 840 172.5 996 c 128,-1,62
 259 1152 259 1152 407 1243 c 128,-1,24
 555 1334 555 1334 728 1334 c 128,-1,25
EndSplineSet
EndChar
StartChar: uni01EB
Encoding: 491 491 458
Width: 1044
Flags: W
LayerCount: 2
Fore
SplineSet
520 898 m 128,-1,1
 716 898 716 898 853 764.5 c 128,-1,2
 990 631 990 631 990 442 c 0,3,4
 990 285 990 285 896 166 c 0,5,6
 882 148 882 148 847 104 c 128,-1,7
 812 60 812 60 797 41 c 128,-1,8
 782 22 782 22 755 -14.5 c 128,-1,9
 728 -51 728 -51 716 -72.5 c 128,-1,10
 704 -94 704 -94 689 -122.5 c 128,-1,11
 674 -151 674 -151 668 -174.5 c 128,-1,12
 662 -198 662 -198 662 -220 c 0,13,14
 662 -250 662 -250 686 -267 c 128,-1,15
 710 -284 710 -284 744 -284 c 0,16,17
 782 -284 782 -284 830.5 -261.5 c 128,-1,18
 879 -239 879 -239 904 -218 c 0,19,20
 905 -218 905 -218 907.5 -223.5 c 128,-1,21
 910 -229 910 -229 912 -238 c 128,-1,22
 914 -247 914 -247 914 -254 c 0,23,24
 914 -282 914 -282 902 -298 c 0,25,26
 867 -342 867 -342 798 -389 c 128,-1,27
 729 -436 729 -436 656 -436 c 0,28,29
 598 -436 598 -436 546 -394.5 c 128,-1,30
 494 -353 494 -353 494 -280 c 0,31,32
 494 -218 494 -218 544.5 -132.5 c 128,-1,33
 595 -47 595 -47 662 6 c 1,34,35
 599 -14 599 -14 520 -14 c 0,36,37
 324 -14 324 -14 187 119.5 c 128,-1,38
 50 253 50 253 50 442 c 128,-1,39
 50 631 50 631 187 764.5 c 128,-1,0
 324 898 324 898 520 898 c 128,-1,1
492 788 m 0,40,41
 447 788 447 788 414.5 762 c 128,-1,42
 382 736 382 736 365.5 692.5 c 128,-1,43
 349 649 349 649 341.5 602.5 c 128,-1,44
 334 556 334 556 334 504 c 0,45,46
 334 96 334 96 540 96 c 0,47,48
 584 96 584 96 617 121 c 128,-1,49
 650 146 650 146 668 188 c 128,-1,50
 686 230 686 230 694 276 c 128,-1,51
 702 322 702 322 702 372 c 0,52,53
 702 788 702 788 492 788 c 0,40,41
EndSplineSet
EndChar
StartChar: uni02BE
Encoding: 702 702 625
Width: 374
Flags: W
LayerCount: 2
Fore
SplineSet
60 1402 m 1,0,1
 138 1402 138 1402 198.5 1360 c 128,-1,2
 259 1318 259 1318 286.5 1261.5 c 128,-1,3
 314 1205 314 1205 314 1148 c 0,4,5
 314 1050 314 1050 244 971 c 128,-1,6
 174 892 174 892 60 892 c 1,7,8
 56 907 56 907 56 931 c 128,-1,9
 56 955 56 955 60 970 c 1,10,11
 123 970 123 970 161.5 1024 c 128,-1,12
 200 1078 200 1078 200 1148 c 0,13,14
 200 1219 200 1219 161.5 1272.5 c 128,-1,15
 123 1326 123 1326 60 1326 c 1,16,17
 48 1366 48 1366 60 1402 c 1,0,1
EndSplineSet
EndChar
StartChar: gravecomb
Encoding: 768 768 190
Width: 0
GlyphClass: 4
Flags: W
LayerCount: 2
Fore
SplineSet
-710 1266 m 0,0,1
 -710 1284 -710 1284 -687 1304 c 128,-1,2
 -664 1324 -664 1324 -618 1324 c 0,3,4
 -568 1324 -568 1324 -550 1306 c 1,5,6
 -516 1267 -516 1267 -470.5 1200.5 c 128,-1,7
 -425 1134 -425 1134 -394.5 1084.5 c 128,-1,8
 -364 1035 -364 1035 -364 1030 c 0,9,10
 -364 1021 -364 1021 -376 1007.5 c 128,-1,11
 -388 994 -388 994 -398 994 c 0,12,13
 -410 994 -410 994 -485.5 1045 c 128,-1,14
 -561 1096 -561 1096 -635.5 1163.5 c 128,-1,15
 -710 1231 -710 1231 -710 1266 c 0,0,1
EndSplineSet
EndChar
StartChar: acutecomb
Encoding: 769 769 191
Width: 0
GlyphClass: 4
Flags: W
LayerCount: 2
Fore
SplineSet
-430 1326 m 0,0,1
 -384 1326 -384 1326 -361 1306 c 128,-1,2
 -338 1286 -338 1286 -338 1268 c 0,3,4
 -338 1233 -338 1233 -412.5 1165.5 c 128,-1,5
 -487 1098 -487 1098 -562.5 1047 c 128,-1,6
 -638 996 -638 996 -650 996 c 0,7,8
 -660 996 -660 996 -672 1009.5 c 128,-1,9
 -684 1023 -684 1023 -684 1032 c 0,10,11
 -684 1037 -684 1037 -653.5 1086.5 c 128,-1,12
 -623 1136 -623 1136 -577.5 1202.5 c 128,-1,13
 -532 1269 -532 1269 -498 1308 c 1,14,15
 -480 1326 -480 1326 -430 1326 c 0,0,1
EndSplineSet
EndChar
StartChar: uni0302
Encoding: 770 770 243
Width: 0
GlyphClass: 4
Flags: W
LayerCount: 2
Fore
SplineSet
-290 994 m 1,0,1
 -306 999 -306 999 -387 1053.5 c 128,-1,2
 -468 1108 -468 1108 -508 1142 c 1,3,4
 -548 1108 -548 1108 -625.5 1056 c 128,-1,5
 -703 1004 -703 1004 -726 994 c 1,6,7
 -733 997 -733 997 -738.5 1011 c 128,-1,8
 -744 1025 -744 1025 -744 1040 c 1,9,10
 -696 1088 -696 1088 -612 1196 c 0,11,12
 -570 1251 -570 1251 -534 1310 c 1,13,14
 -523 1330 -523 1330 -508 1330 c 0,15,16
 -504 1330 -504 1330 -500.5 1328.5 c 128,-1,17
 -497 1327 -497 1327 -495.5 1325 c 128,-1,18
 -494 1323 -494 1323 -490 1318 c 128,-1,19
 -486 1313 -486 1313 -484 1310 c 0,20,21
 -478 1302 -478 1302 -454.5 1267.5 c 128,-1,22
 -431 1233 -431 1233 -410 1206 c 0,23,24
 -322 1090 -322 1090 -272 1040 c 1,25,26
 -272 1025 -272 1025 -277.5 1011 c 128,-1,27
 -283 997 -283 997 -290 994 c 1,0,1
EndSplineSet
EndChar
StartChar: uni0305
Encoding: 773 773 261
Width: 1126
GlyphClass: 4
Flags: W
LayerCount: 2
Fore
SplineSet
-32 1488 m 0,0,1
 -32 1510 -32 1510 -25 1561 c 128,-1,2
 -18 1612 -18 1612 -4 1612 c 2,3,-1
 1160 1612 l 2,4,5
 1172 1612 1172 1612 1172 1594 c 0,6,7
 1172 1546 1172 1546 1156 1482 c 0,8,9
 1154 1477 1154 1477 1150 1473.5 c 128,-1,10
 1146 1470 1146 1470 1143 1469 c 2,11,-1
 1140 1468 l 1,12,-1
 -20 1468 l 2,13,14
 -32 1468 -32 1468 -32 1488 c 0,0,1
EndSplineSet
EndChar
StartChar: uni0308
Encoding: 776 776 265
Width: 0
GlyphClass: 4
Flags: W
LayerCount: 2
Fore
SplineSet
-302 1274 m 128,-1,1
 -245 1274 -245 1274 -203.5 1233.5 c 128,-1,2
 -162 1193 -162 1193 -162 1136 c 128,-1,3
 -162 1079 -162 1079 -203.5 1037.5 c 128,-1,4
 -245 996 -245 996 -302 996 c 128,-1,5
 -359 996 -359 996 -399.5 1037.5 c 128,-1,6
 -440 1079 -440 1079 -440 1136 c 128,-1,7
 -440 1193 -440 1193 -399.5 1233.5 c 128,-1,0
 -359 1274 -359 1274 -302 1274 c 128,-1,1
-678 1274 m 128,-1,9
 -621 1274 -621 1274 -580.5 1233.5 c 128,-1,10
 -540 1193 -540 1193 -540 1136 c 128,-1,11
 -540 1079 -540 1079 -580.5 1037.5 c 128,-1,12
 -621 996 -621 996 -678 996 c 128,-1,13
 -735 996 -735 996 -776.5 1037.5 c 128,-1,14
 -818 1079 -818 1079 -818 1136 c 128,-1,15
 -818 1193 -818 1193 -776.5 1233.5 c 128,-1,8
 -735 1274 -735 1274 -678 1274 c 128,-1,9
EndSplineSet
EndChar
StartChar: hookabovecomb
Encoding: 777 777 268
Width: 0
GlyphClass: 4
Flags: W
LayerCount: 2
Fore
SplineSet
-470 1348 m 0,0,1
 -410 1348 -410 1348 -371 1315 c 128,-1,2
 -332 1282 -332 1282 -332 1232 c 0,3,4
 -332 1180 -332 1180 -361 1141 c 128,-1,5
 -390 1102 -390 1102 -434 1084 c 0,6,7
 -488.572181671 1060.61192214 -488.572181671 1060.61192214 -498.110725309 1050.03652263 c 0,8,9
 -506 1041.2896704 -506 1041.2896704 -506 1030 c 0,10,11
 -506 1020 -506 1020 -504 1014 c 1,12,13
 -504 1009 -504 1009 -532.5 1002.5 c 128,-1,14
 -561 996 -561 996 -582 996 c 1,15,16
 -589 1000 -589 1000 -595.5 1012.5 c 128,-1,17
 -602 1025 -602 1025 -602 1030 c 0,18,19
 -602 1056 -602 1056 -584.5 1077.5 c 128,-1,20
 -567 1099 -567 1099 -552 1107.5 c 128,-1,21
 -537 1116 -537 1116 -512 1128 c 1,22,23
 -440 1159 -440 1159 -440 1212 c 0,24,25
 -440 1272 -440 1272 -490 1272 c 0,26,27
 -523 1272 -523 1272 -539.5 1251.5 c 128,-1,28
 -556 1231 -556 1231 -556 1200 c 0,29,30
 -556 1177 -556 1177 -581 1166.5 c 128,-1,31
 -606 1156 -606 1156 -634 1156 c 0,32,33
 -649 1156 -649 1156 -663.5 1165 c 128,-1,34
 -678 1174 -678 1174 -678 1190 c 0,35,36
 -678 1262 -678 1262 -614.5 1305 c 128,-1,37
 -551 1348 -551 1348 -470 1348 c 0,0,1
EndSplineSet
EndChar
StartChar: uni0312
Encoding: 786 786 272
Width: 0
GlyphClass: 4
Flags: W
LayerCount: 2
Fore
SplineSet
-512 996 m 0,0,1
 -556 996 -556 996 -592 1014 c 1,2,3
 -618 1047 -618 1047 -618 1092 c 0,4,5
 -618 1172 -618 1172 -544 1242 c 128,-1,6
 -470 1312 -470 1312 -368 1346 c 1,7,8
 -354 1343 -354 1343 -342 1333.5 c 128,-1,9
 -330 1324 -330 1324 -330 1318 c 1,10,11
 -370 1301 -370 1301 -415 1265.5 c 128,-1,12
 -460 1230 -460 1230 -460 1192 c 0,13,14
 -460 1179 -460 1179 -446 1168.5 c 128,-1,15
 -432 1158 -432 1158 -416 1150.5 c 128,-1,16
 -400 1143 -400 1143 -386 1124.5 c 128,-1,17
 -372 1106 -372 1106 -372 1080 c 0,18,19
 -372 1071 -372 1071 -378.5 1058.5 c 128,-1,20
 -385 1046 -385 1046 -399.5 1031.5 c 128,-1,21
 -414 1017 -414 1017 -443.5 1006.5 c 128,-1,22
 -473 996 -473 996 -512 996 c 0,0,1
EndSplineSet
EndChar
StartChar: uni0315
Encoding: 789 789 274
Width: 0
GlyphClass: 4
Flags: W
LayerCount: 2
Fore
SplineSet
-490 1474 m 0,0,1
 -467 1474 -467 1474 -430 1460 c 1,2,3
 -392 1408 -392 1408 -392 1334 c 0,4,5
 -392 1253 -392 1253 -445.5 1162 c 128,-1,6
 -499 1071 -499 1071 -584 992 c 1,7,8
 -597 992 -597 992 -615.5 1001 c 128,-1,9
 -634 1010 -634 1010 -634 1018 c 1,10,11
 -550 1109 -550 1109 -550 1200 c 0,12,13
 -550 1236 -550 1236 -562 1262 c 128,-1,14
 -574 1288 -574 1288 -588 1300.5 c 128,-1,15
 -602 1313 -602 1313 -614 1333 c 128,-1,16
 -626 1353 -626 1353 -626 1378 c 0,17,18
 -626 1411 -626 1411 -587.5 1442.5 c 128,-1,19
 -549 1474 -549 1474 -490 1474 c 0,0,1
EndSplineSet
EndChar
StartChar: dotbelowcomb
Encoding: 803 803 275
Width: 0
GlyphClass: 4
Flags: W
LayerCount: 2
Fore
SplineSet
-656 -236 m 128,-1,1
 -656 -174 -656 -174 -613 -131 c 128,-1,2
 -570 -88 -570 -88 -508 -88 c 128,-1,3
 -446 -88 -446 -88 -403 -131 c 128,-1,4
 -360 -174 -360 -174 -360 -236 c 128,-1,5
 -360 -298 -360 -298 -403 -341 c 128,-1,6
 -446 -384 -446 -384 -508 -384 c 128,-1,7
 -570 -384 -570 -384 -613 -341 c 128,-1,0
 -656 -298 -656 -298 -656 -236 c 128,-1,1
EndSplineSet
EndChar
StartChar: uni0326
Encoding: 806 806 273
Width: 0
GlyphClass: 4
Flags: W
LayerCount: 2
Fore
SplineSet
-508 -86 m 0,0,1
 -464 -86 -464 -86 -428 -104 c 1,2,3
 -402 -137 -402 -137 -402 -182 c 0,4,5
 -402 -262 -402 -262 -476 -332 c 128,-1,6
 -550 -402 -550 -402 -652 -436 c 1,7,8
 -666 -433 -666 -433 -678 -423.5 c 128,-1,9
 -690 -414 -690 -414 -690 -408 c 1,10,11
 -650 -391 -650 -391 -605 -355.5 c 128,-1,12
 -560 -320 -560 -320 -560 -282 c 0,13,14
 -560 -269 -560 -269 -574 -258.5 c 128,-1,15
 -588 -248 -588 -248 -604 -240.5 c 128,-1,16
 -620 -233 -620 -233 -634 -214.5 c 128,-1,17
 -648 -196 -648 -196 -648 -170 c 0,18,19
 -648 -161 -648 -161 -641.5 -148.5 c 128,-1,20
 -635 -136 -635 -136 -620.5 -121.5 c 128,-1,21
 -606 -107 -606 -107 -576.5 -96.5 c 128,-1,22
 -547 -86 -547 -86 -508 -86 c 0,0,1
EndSplineSet
EndChar
StartChar: uni0327
Encoding: 807 807 257
Width: 0
GlyphClass: 4
Flags: W
LayerCount: 2
Fore
SplineSet
-496 -56 m 1,0,1
 -472 -54 -472 -54 -458 -54 c 0,2,3
 -415 -54 -415 -54 -382.5 -85.5 c 128,-1,4
 -350 -117 -350 -117 -350 -156 c 0,5,6
 -350 -227 -350 -227 -401.5 -269.5 c 128,-1,7
 -453 -312 -453 -312 -544 -312 c 0,8,9
 -574 -312 -574 -312 -601 -302 c 128,-1,10
 -628 -292 -628 -292 -640 -280 c 1,11,12
 -644 -268 -644 -268 -644 -246 c 0,13,14
 -644 -236 -644 -236 -639.5 -227 c 128,-1,15
 -635 -218 -635 -218 -630 -218 c 0,16,17
 -629 -218 -629 -218 -592.5 -233 c 128,-1,18
 -556 -248 -556 -248 -530 -248 c 0,19,20
 -491 -248 -491 -248 -471.5 -231 c 128,-1,21
 -452 -214 -452 -214 -452 -190 c 0,22,23
 -452 -167 -452 -167 -464 -150.5 c 128,-1,24
 -476 -134 -476 -134 -500 -134 c 0,25,26
 -530 -134 -530 -134 -560 -146 c 1,27,28
 -564 -146 -564 -146 -577.5 -132.5 c 128,-1,29
 -591 -119 -591 -119 -588 -114 c 0,30,31
 -578 -98 -578 -98 -558.5 -57.5 c 128,-1,32
 -539 -17 -539 -17 -532 -4 c 1,33,-1
 -468 -4 l 1,34,-1
 -496 -56 l 1,0,1
EndSplineSet
EndChar
StartChar: tonos
Encoding: 900 900 627
Width: 400
VWidth: 2000
Flags: W
LayerCount: 2
Fore
SplineSet
258 1408 m 0,0,1
 288 1408 288 1408 308 1394 c 128,-1,2
 328 1380 328 1380 328 1362 c 0,3,4
 328 1298 328 1298 243 1158 c 128,-1,5
 158 1018 158 1018 126 986 c 0,6,7
 122 982 122 982 116 982 c 0,8,9
 109 982 109 982 98.5 990.5 c 128,-1,10
 88 999 88 999 88 1006 c 0,11,12
 88 1028 88 1028 114 1156 c 128,-1,13
 140 1284 140 1284 166 1358 c 0,14,15
 172 1374 172 1374 202 1391 c 128,-1,16
 232 1408 232 1408 258 1408 c 0,0,1
EndSplineSet
EndChar
StartChar: uni2011
Encoding: 8209 8209 198
Width: 748
Flags: W
LayerCount: 2
Fore
SplineSet
114 408 m 0,0,1
 114 452 114 452 119 482.5 c 128,-1,2
 124 513 124 513 129 523.5 c 128,-1,3
 134 534 134 534 138 534 c 2,4,-1
 140 534 l 1,5,-1
 622 558 l 1,6,-1
 624 558 l 2,7,8
 636 558 636 558 636 540 c 0,9,10
 636 496 636 496 629.5 463 c 128,-1,11
 623 430 623 430 616.5 419 c 2,12,-1
 610 408 l 1,13,-1
 128 386 l 2,14,15
 126 386 126 386 124 386 c 128,-1,16
 122 386 122 386 118 391.5 c 128,-1,17
 114 397 114 397 114 408 c 0,0,1
EndSplineSet
EndChar
StartChar: figuredash
Encoding: 8210 8210 199
Width: 1114
Flags: W
LayerCount: 2
Fore
SplineSet
112 406 m 0,0,1
 112 429 112 429 119 482.5 c 128,-1,2
 126 536 126 536 140 536 c 2,3,-1
 990 536 l 2,4,5
 1002 536 1002 536 1002 518 c 0,6,7
 1002 474 1002 474 984 402 c 0,8,9
 982 397 982 397 978.5 393.5 c 128,-1,10
 975 390 975 390 972.5 389 c 2,11,-1
 970 388 l 1,12,-1
 124 388 l 2,13,14
 123 388 123 388 121 388 c 128,-1,15
 119 388 119 388 115.5 392.5 c 128,-1,16
 112 397 112 397 112 406 c 0,0,1
EndSplineSet
EndChar
StartChar: emdash
Encoding: 8212 8212 201
Width: 1888
Flags: W
LayerCount: 2
Fore
SplineSet
116 406 m 0,0,1
 116 429 116 429 123 482.5 c 128,-1,2
 130 536 130 536 144 536 c 2,3,-1
 1764 536 l 2,4,5
 1776 536 1776 536 1776 518 c 0,6,7
 1776 474 1776 474 1758 402 c 0,8,9
 1756 397 1756 397 1752.5 393.5 c 128,-1,10
 1749 390 1749 390 1746.5 389 c 2,11,-1
 1744 388 l 1,12,-1
 128 388 l 2,13,14
 127 388 127 388 125 388 c 128,-1,15
 123 388 123 388 119.5 392.5 c 128,-1,16
 116 397 116 397 116 406 c 0,0,1
EndSplineSet
EndChar
StartChar: uni2015
Encoding: 8213 8213 202
Width: 2276
Flags: W
LayerCount: 2
Fore
SplineSet
116 406 m 0,0,1
 116 429 116 429 123 482.5 c 128,-1,2
 130 536 130 536 144 536 c 2,3,-1
 2152 536 l 2,4,5
 2164 536 2164 536 2164 518 c 0,6,7
 2164 474 2164 474 2146 402 c 0,8,9
 2144 397 2144 397 2140.5 393.5 c 128,-1,10
 2137 390 2137 390 2134.5 389 c 2,11,-1
 2132 388 l 1,12,-1
 128 388 l 2,13,14
 127 388 127 388 125 388 c 128,-1,15
 123 388 123 388 119.5 392.5 c 128,-1,16
 116 397 116 397 116 406 c 0,0,1
EndSplineSet
EndChar
StartChar: quoteleft
Encoding: 8216 8216 203
Width: 420
Flags: W
LayerCount: 2
Fore
SplineSet
90 1096 m 0,0,1
 90 1224 90 1224 176 1322 c 0,2,3
 252 1406 252 1406 314 1443 c 0,4,5
 342 1459 342 1459 350 1458 c 0,6,7
 364 1458 364 1458 378.5 1446 c 128,-1,8
 393 1434 393 1434 400 1415 c 1,9,10
 260 1329 260 1329 260 1238 c 0,11,12
 260 1161 260 1161 308 1108 c 0,13,14
 361 1050 361 1050 361 1022 c 0,15,16
 361 978 361 978 316 940 c 128,-1,17
 271 902 271 902 215 902 c 0,18,19
 161 902 161 902 126 928 c 1,20,21
 90 980 90 980 90 1096 c 0,0,1
EndSplineSet
EndChar
StartChar: daggerdbl
Encoding: 8225 8225 210
Width: 834
Flags: W
LayerCount: 2
Fore
SplineSet
518 546 m 1,0,1
 505 514 505 514 481.5 467 c 128,-1,2
 458 420 458 420 452 406 c 1,3,4
 452 387 452 387 469 368.5 c 128,-1,5
 486 350 486 350 508 350 c 0,6,7
 611 353 611 353 670 412 c 1,8,9
 701 412 701 412 723.5 384.5 c 128,-1,10
 746 357 746 357 746 324 c 128,-1,11
 746 291 746 291 723 260.5 c 128,-1,12
 700 230 700 230 670 230 c 1,13,14
 600 300 600 300 508 300 c 0,15,16
 474 300 474 300 448 266 c 1,17,18
 448 208 448 208 465 130 c 128,-1,19
 482 52 482 52 508 26 c 1,20,21
 508 -4 508 -4 479.5 -26 c 128,-1,22
 451 -48 451 -48 418 -48 c 0,23,24
 382 -48 382 -48 353 -26.5 c 128,-1,25
 324 -5 324 -5 324 26 c 1,26,27
 350 52 350 52 367 130 c 128,-1,28
 384 208 384 208 384 266 c 1,29,30
 369 286 369 286 357 293 c 128,-1,31
 345 300 345 300 326 300 c 0,32,33
 234 300 234 300 164 230 c 1,34,35
 134 230 134 230 111 260.5 c 128,-1,36
 88 291 88 291 88 324 c 128,-1,37
 88 357 88 357 110.5 384.5 c 128,-1,38
 133 412 133 412 164 412 c 1,39,40
 223 353 223 353 326 350 c 0,41,42
 347 350 347 350 363.5 368.5 c 128,-1,43
 380 387 380 387 380 406 c 1,44,45
 373 423 373 423 349 472 c 128,-1,46
 325 521 325 521 314 546 c 1,47,48
 334 563 334 563 352 595 c 128,-1,49
 370 627 370 627 370 640 c 0,50,51
 370 652 370 652 348.5 684.5 c 128,-1,52
 327 717 327 717 314 730 c 1,53,54
 325 755 325 755 349 804 c 128,-1,55
 373 853 373 853 380 870 c 1,56,57
 380 889 380 889 363.5 907.5 c 128,-1,58
 347 926 347 926 326 926 c 0,59,60
 223 923 223 923 164 864 c 1,61,62
 133 864 133 864 110.5 891.5 c 128,-1,63
 88 919 88 919 88 952 c 128,-1,64
 88 985 88 985 111 1015.5 c 128,-1,65
 134 1046 134 1046 164 1046 c 1,66,67
 234 976 234 976 326 976 c 0,68,69
 345 976 345 976 357 983 c 128,-1,70
 369 990 369 990 384 1010 c 1,71,72
 384 1068 384 1068 367 1146 c 128,-1,73
 350 1224 350 1224 324 1250 c 1,74,75
 324 1281 324 1281 353 1302.5 c 128,-1,76
 382 1324 382 1324 418 1324 c 0,77,78
 451 1324 451 1324 479.5 1302 c 128,-1,79
 508 1280 508 1280 508 1250 c 1,80,81
 482 1224 482 1224 465 1146 c 128,-1,82
 448 1068 448 1068 448 1010 c 1,83,84
 474 976 474 976 508 976 c 0,85,86
 600 976 600 976 670 1046 c 1,87,88
 700 1046 700 1046 723 1015.5 c 128,-1,89
 746 985 746 985 746 952 c 128,-1,90
 746 919 746 919 723.5 891.5 c 128,-1,91
 701 864 701 864 670 864 c 1,92,93
 611 923 611 923 508 926 c 0,94,95
 486 926 486 926 469 907.5 c 128,-1,96
 452 889 452 889 452 870 c 1,97,98
 458 856 458 856 481.5 809 c 128,-1,99
 505 762 505 762 518 730 c 1,100,101
 505 717 505 717 483.5 684 c 128,-1,102
 462 651 462 651 462 640 c 0,103,104
 462 627 462 627 480 595 c 128,-1,105
 498 563 498 563 518 546 c 1,0,1
EndSplineSet
EndChar
StartChar: bullet
Encoding: 8226 8226 211
Width: 842
Flags: W
LayerCount: 2
Fore
SplineSet
142 526 m 128,-1,1
 142 642 142 642 224.5 725 c 128,-1,2
 307 808 307 808 422 808 c 128,-1,3
 537 808 537 808 618.5 725 c 128,-1,4
 700 642 700 642 700 526 c 128,-1,5
 700 410 700 410 618.5 328 c 128,-1,6
 537 246 537 246 422 246 c 0,7,8
 306 246 306 246 224 328 c 128,-1,0
 142 410 142 410 142 526 c 128,-1,1
EndSplineSet
EndChar
StartChar: perthousand
Encoding: 8240 8240 214
Width: 2050
Flags: W
LayerCount: 2
Fore
SplineSet
1658 548 m 3,0,1
 1623 548 1623 548 1600.5 528 c 128,-1,2
 1578 508 1578 508 1568 471.5 c 128,-1,3
 1558 435 1558 435 1555 402.5 c 128,-1,4
 1552 370 1552 370 1552 326 c 0,5,6
 1552 263 1552 263 1565.5 205.5 c 128,-1,7
 1579 148 1579 148 1611.5 105 c 128,-1,8
 1644 62 1644 62 1690 62 c 0,9,10
 1725 62 1725 62 1748 81.5 c 128,-1,11
 1771 101 1771 101 1781 137 c 128,-1,12
 1791 173 1791 173 1794.5 205 c 128,-1,13
 1798 237 1798 237 1798 280 c 0,14,15
 1798 343 1798 343 1784 402 c 128,-1,16
 1770 461 1770 461 1737 504.5 c 128,-1,17
 1704 548 1704 548 1658 548 c 3,0,1
1674 608 m 0,18,19
 1811 608 1811 608 1899.5 523 c 128,-1,20
 1988 438 1988 438 1988 310 c 0,21,22
 1988 183 1988 183 1897.5 91.5 c 128,-1,23
 1807 0 1807 0 1676 0 c 0,24,25
 1538 0 1538 0 1450 86 c 128,-1,26
 1362 172 1362 172 1362 300 c 0,27,28
 1362 427 1362 427 1452.5 517.5 c 128,-1,29
 1543 608 1543 608 1674 608 c 0,18,19
1258 1270 m 1,30,-1
 226 -10 l 2,31,32
 219 -20 219 -20 193.5 -30 c 128,-1,33
 168 -40 168 -40 144 -40 c 0,34,35
 131 -40 131 -40 123.5 -34 c 128,-1,36
 116 -28 116 -28 115 -22 c 2,37,-1
 114 -16 l 1,38,-1
 1146 1264 l 1,39,40
 1176 1290 1176 1290 1226 1290 c 0,41,42
 1239 1290 1239 1290 1248.5 1284 c 128,-1,43
 1258 1278 1258 1278 1258 1270 c 1,30,-1
980 548 m 3,44,45
 945 548 945 548 922.5 528 c 128,-1,46
 900 508 900 508 890 471.5 c 128,-1,47
 880 435 880 435 877 402.5 c 128,-1,48
 874 370 874 370 874 326 c 0,49,50
 874 263 874 263 887.5 205.5 c 128,-1,51
 901 148 901 148 933.5 105 c 128,-1,52
 966 62 966 62 1012 62 c 0,53,54
 1047 62 1047 62 1070 81.5 c 128,-1,55
 1093 101 1093 101 1103 137 c 128,-1,56
 1113 173 1113 173 1116.5 205 c 128,-1,57
 1120 237 1120 237 1120 280 c 0,58,59
 1120 343 1120 343 1106 402 c 128,-1,60
 1092 461 1092 461 1059 504.5 c 128,-1,61
 1026 548 1026 548 980 548 c 3,44,45
996 608 m 0,62,63
 1133 608 1133 608 1221.5 523 c 128,-1,64
 1310 438 1310 438 1310 310 c 0,65,66
 1310 183 1310 183 1219.5 91.5 c 128,-1,67
 1129 0 1129 0 998 0 c 0,68,69
 860 0 860 0 772 86 c 128,-1,70
 684 172 684 172 684 300 c 0,71,72
 684 427 684 427 774.5 517.5 c 128,-1,73
 865 608 865 608 996 608 c 0,62,63
386 1222 m 3,74,75
 351 1222 351 1222 328.5 1202 c 128,-1,76
 306 1182 306 1182 296 1145.5 c 128,-1,77
 286 1109 286 1109 283 1076.5 c 128,-1,78
 280 1044 280 1044 280 1000 c 0,79,80
 280 937 280 937 293.5 879.5 c 128,-1,81
 307 822 307 822 339.5 779 c 128,-1,82
 372 736 372 736 418 736 c 0,83,84
 453 736 453 736 476 755.5 c 128,-1,85
 499 775 499 775 509 811 c 128,-1,86
 519 847 519 847 522.5 879 c 128,-1,87
 526 911 526 911 526 954 c 0,88,89
 526 1017 526 1017 512 1076 c 128,-1,90
 498 1135 498 1135 465 1178.5 c 128,-1,91
 432 1222 432 1222 386 1222 c 3,74,75
402 1282 m 0,92,93
 539 1282 539 1282 627.5 1197 c 128,-1,94
 716 1112 716 1112 716 984 c 0,95,96
 716 857 716 857 625.5 765.5 c 128,-1,97
 535 674 535 674 404 674 c 0,98,99
 266 674 266 674 178 760 c 128,-1,100
 90 846 90 846 90 974 c 0,101,102
 90 1101 90 1101 180.5 1191.5 c 128,-1,103
 271 1282 271 1282 402 1282 c 0,92,93
EndSplineSet
EndChar
StartChar: minute
Encoding: 8242 8242 215
Width: 334
Flags: W
LayerCount: 2
Fore
SplineSet
208 1398 m 0,0,1
 241 1398 241 1398 269.5 1380 c 128,-1,2
 298 1362 298 1362 298 1334 c 0,3,4
 298 1270 298 1270 244.5 1161 c 128,-1,5
 191 1052 191 1052 142 988 c 0,6,7
 126 968 126 968 114 968 c 0,8,9
 105 968 105 968 97.5 975 c 128,-1,10
 90 982 90 982 90 992 c 0,11,12
 90 998 90 998 94 1056.5 c 128,-1,13
 98 1115 98 1115 105.5 1199.5 c 128,-1,14
 113 1284 113 1284 120 1332 c 0,15,16
 123 1351 123 1351 152 1374.5 c 128,-1,17
 181 1398 181 1398 208 1398 c 0,0,1
EndSplineSet
EndChar
StartChar: second
Encoding: 8243 8243 216
Width: 604
Flags: W
LayerCount: 2
Fore
SplineSet
478 1398 m 0,0,1
 511 1398 511 1398 538.5 1380 c 128,-1,2
 566 1362 566 1362 566 1334 c 0,3,4
 566 1270 566 1270 513 1160.5 c 128,-1,5
 460 1051 460 1051 412 988 c 0,6,7
 396 968 396 968 384 968 c 0,8,9
 375 968 375 968 367.5 975 c 128,-1,10
 360 982 360 982 360 992 c 0,11,12
 360 998 360 998 364 1056.5 c 128,-1,13
 368 1115 368 1115 375.5 1199.5 c 128,-1,14
 383 1284 383 1284 390 1332 c 0,15,16
 393 1351 393 1351 422 1374.5 c 128,-1,17
 451 1398 451 1398 478 1398 c 0,0,1
208 1398 m 0,18,19
 241 1398 241 1398 268.5 1380 c 128,-1,20
 296 1362 296 1362 296 1334 c 0,21,22
 296 1270 296 1270 243 1160.5 c 128,-1,23
 190 1051 190 1051 142 988 c 0,24,25
 126 968 126 968 114 968 c 0,26,27
 105 968 105 968 97.5 975 c 128,-1,28
 90 982 90 982 90 992 c 0,29,30
 90 998 90 998 94 1056.5 c 128,-1,31
 98 1115 98 1115 105.5 1199.5 c 128,-1,32
 113 1284 113 1284 120 1332 c 0,33,34
 123 1351 123 1351 152 1374.5 c 128,-1,35
 181 1398 181 1398 208 1398 c 0,18,19
EndSplineSet
EndChar
StartChar: Euro
Encoding: 8364 8364 221
Width: 1432
UnlinkRmOvrlpSave: 1
Flags: W
LayerCount: 2
Fore
SplineSet
121 588 m 2,0,1
 867 588 l 1,2,3
 881 576 881 576 877 558 c 128,-1,4
 873 540 873 540 863.5 524.5 c 128,-1,5
 854 509 854 509 847 504 c 1,6,-1
 81 504 l 1,7,8
 72 513 72 513 90 550.5 c 128,-1,9
 108 588 108 588 121 588 c 2,0,1
121 800 m 2,10,-1
 867 800 l 1,11,12
 881 788 881 788 877 770 c 128,-1,13
 873 752 873 752 863.5 736.5 c 128,-1,14
 854 721 854 721 847 716 c 1,15,-1
 81 716 l 1,16,17
 72 725 72 725 90 762.5 c 128,-1,18
 108 800 108 800 121 800 c 2,10,-1
1341 370 m 1,19,20
 1341 342 1341 342 1310.5 213 c 128,-1,21
 1280 84 1280 84 1261 76 c 1,22,23
 1174 45 1174 45 1130 31 c 128,-1,24
 1086 17 1086 17 1001 1.5 c 128,-1,25
 916 -14 916 -14 831 -14 c 0,26,27
 649 -14 649 -14 494 71 c 128,-1,28
 339 156 339 156 249 302 c 128,-1,29
 159 448 159 448 159 620 c 0,30,31
 159 753 159 753 212.5 875.5 c 128,-1,32
 266 998 266 998 356.5 1087.5 c 128,-1,33
 447 1177 447 1177 572.5 1230.5 c 128,-1,34
 698 1284 698 1284 835 1284 c 0,35,36
 1071 1284 1071 1284 1245 1248 c 0,37,38
 1245 1247 1245 1247 1278 1108.5 c 128,-1,39
 1311 970 1311 970 1311 956 c 0,40,41
 1311 947 1311 947 1294 937.5 c 128,-1,42
 1277 928 1277 928 1259 928 c 128,-1,43
 1241 928 1241 928 1233 936 c 1,44,45
 1226 964 1226 964 1213 993 c 128,-1,46
 1200 1022 1200 1022 1170.5 1061.5 c 128,-1,47
 1141 1101 1141 1101 1101.5 1130.5 c 128,-1,48
 1062 1160 1062 1160 997 1181 c 128,-1,49
 932 1202 932 1202 853 1202 c 0,50,51
 752 1202 752 1202 674.5 1158.5 c 128,-1,52
 597 1115 597 1115 550.5 1040.5 c 128,-1,53
 504 966 504 966 480.5 874 c 128,-1,54
 457 782 457 782 457 678 c 0,55,56
 457 562 457 562 483.5 456 c 128,-1,57
 510 350 510 350 561.5 262.5 c 128,-1,58
 613 175 613 175 698 122.5 c 128,-1,59
 783 70 783 70 891 70 c 0,60,61
 1040 70 1040 70 1135 154 c 0,62,63
 1172 187 1172 187 1206 245 c 128,-1,64
 1240 303 1240 303 1254.5 340 c 128,-1,65
 1269 377 1269 377 1273 392 c 1,66,67
 1316 392 1316 392 1341 370 c 1,19,20
EndSplineSet
EndChar
StartChar: arrowleft
Encoding: 8592 8592 222
Width: 1542
Flags: W
LayerCount: 2
Fore
SplineSet
550 794 m 0,0,1
 550 783 550 783 520 751.5 c 128,-1,2
 490 720 490 720 411.859244285 645.493098162 c 0,3,4
 405 639 405 639 402 636 c 2,5,-1
 330 568 l 1,6,-1
 1468 568 l 2,7,8
 1482 568 1482 568 1482 548 c 0,9,10
 1482 498 1482 498 1466 434 c 0,11,12
 1464 429 1464 429 1460.5 425.5 c 128,-1,13
 1457 422 1457 422 1454.5 421 c 2,14,-1
 1452 420 l 1,15,-1
 328 420 l 1,16,-1
 400 352 l 1,17,18
 528.246729016 228.503149836 528.246729016 228.503149836 542.164185795 207.823802985 c 0,19,20
 548 199.152619159 548 199.152619159 548 194 c 0,21,22
 548 178 548 178 520.5 162 c 128,-1,23
 493 146 493 146 478 144 c 1,24,25
 476 149 476 149 439 181.5 c 128,-1,26
 402 214 402 214 299.5 290.5 c 128,-1,27
 197 367 197 367 66 452 c 1,28,29
 52 458 52 458 52 480 c 0,30,31
 52 516 52 516 68 534 c 1,32,33
 122 566 122 566 172.5 600 c 128,-1,34
 223 634 223 634 262.5 663 c 128,-1,35
 302 692 302 692 336.5 719.5 c 128,-1,36
 371 747 371 747 396.5 768.5 c 128,-1,37
 422 790 422 790 439.5 806 c 128,-1,38
 457 822 457 822 468 832.5 c 128,-1,39
 479 843 479 843 480 844 c 1,40,41
 495 842 495 842 522.5 826 c 128,-1,42
 550 810 550 810 550 794 c 0,0,1
EndSplineSet
EndChar
StartChar: arrowup
Encoding: 8593 8593 223
Width: 786
Flags: W
LayerCount: 2
Fore
SplineSet
466 1152 m 1,0,-1
 466 12 l 2,1,2
 466 0 466 0 446 0 c 0,3,4
 398 0 398 0 334 16 c 0,5,6
 329 18 329 18 325 21 c 128,-1,7
 321 24 321 24 319.5 26 c 2,8,-1
 318 28 l 1,9,-1
 318 1154 l 1,10,-1
 252 1080 l 1,11,12
 168 993 168 993 135.5 962.5 c 128,-1,13
 103 932 103 932 92 932 c 0,14,15
 76 932 76 932 61.5 960 c 128,-1,16
 47 988 47 988 44 1004 c 1,17,18
 49 1006 49 1006 81.5 1043 c 128,-1,19
 114 1080 114 1080 190.5 1182.5 c 128,-1,20
 267 1285 267 1285 352 1416 c 1,21,22
 357 1428 357 1428 380 1428 c 0,23,24
 414 1428 414 1428 432 1412 c 1,25,26
 464 1358 464 1358 498.5 1307.5 c 128,-1,27
 533 1257 533 1257 562 1217.5 c 128,-1,28
 591 1178 591 1178 618.5 1143.5 c 128,-1,29
 646 1109 646 1109 668 1083.5 c 128,-1,30
 690 1058 690 1058 706 1040.5 c 128,-1,31
 722 1023 722 1023 732.5 1012 c 128,-1,32
 743 1001 743 1001 744 1000 c 1,33,34
 742 986 742 986 725 959 c 128,-1,35
 708 932 708 932 692 932 c 0,36,37
 682 932 682 932 657 955.5 c 128,-1,38
 632 979 632 979 573.166623727 1041.31946949 c 0,39,40
 549 1066 549 1066 536 1080 c 2,41,-1
 466 1152 l 1,0,-1
EndSplineSet
EndChar
StartChar: gradient
Encoding: 8711 8711 229
Width: 1362
Flags: W
LayerCount: 2
Fore
SplineSet
366 1118 m 2,0,-1
 726 398 l 1,1,2
 742 386 742 386 750 402 c 2,3,-1
 1116 1110 l 1,4,5
 1119 1120 1119 1120 1113.5 1126 c 128,-1,6
 1108 1132 1108 1132 1100 1132 c 2,7,-1
 372 1132 l 2,8,9
 359 1132 359 1132 366 1118 c 2,0,-1
658 58 m 1,10,-1
 54 1256 l 1,11,12
 66 1268 66 1268 70 1284 c 1,13,-1
 1292 1284 l 1,14,15
 1296 1279 1296 1279 1298.5 1274 c 128,-1,16
 1301 1269 1301 1269 1304 1263 c 128,-1,17
 1307 1257 1307 1257 1310 1252 c 1,18,-1
 692 58 l 1,19,-1
 658 58 l 1,10,-1
EndSplineSet
EndChar
StartChar: element
Encoding: 8712 8712 230
Width: 1002
Flags: W
LayerCount: 2
Fore
SplineSet
818 440 m 0,0,1
 818 416 818 416 813.5 400.5 c 128,-1,2
 809 385 809 385 805.5 381.5 c 128,-1,3
 802 378 802 378 800 378 c 2,4,-1
 256 378 l 2,5,6
 253 378 253 378 249 376 c 128,-1,7
 245 374 245 374 246 370 c 0,8,9
 265 271 265 271 329.5 206.5 c 128,-1,10
 394 142 394 142 490 142 c 2,11,-1
 866 142 l 1,12,13
 869 140 869 140 874 136 c 128,-1,14
 879 132 879 132 887.5 110.5 c 128,-1,15
 896 89 896 89 896 58 c 0,16,17
 896 50 896 50 892.5 41 c 128,-1,18
 889 32 889 32 885.5 27 c 2,19,-1
 882 22 l 1,20,-1
 494 22 l 2,21,22
 328 22 328 22 213 147 c 128,-1,23
 98 272 98 272 98 442 c 0,24,25
 98 551 98 551 146 646.5 c 128,-1,26
 194 742 194 742 281 801 c 128,-1,27
 368 860 368 860 474 860 c 2,28,-1
 882 860 l 1,29,30
 896 842 896 842 896 818 c 0,31,32
 896 790 896 790 888.5 770.5 c 128,-1,33
 881 751 881 751 873.5 745.5 c 2,34,-1
 866 740 l 1,35,-1
 474 740 l 2,36,37
 384 740 384 740 324 674.5 c 128,-1,38
 264 609 264 609 246 510 c 1,39,40
 246 500 246 500 256 500 c 2,41,-1
 802 500 l 1,42,-1
 803.5 496.5 l 2,43,44
 805 493 805 493 807.5 487.5 c 128,-1,45
 810 482 810 482 812.5 475 c 128,-1,46
 815 468 815 468 816.5 459 c 128,-1,47
 818 450 818 450 818 440 c 0,0,1
EndSplineSet
EndChar
StartChar: summation
Encoding: 8721 8721 232
Width: 1250
Flags: W
LayerCount: 2
Fore
SplineSet
1088 0 m 1,0,1
 974 0 974 0 685 2 c 128,-1,2
 396 4 396 4 310 4 c 0,3,4
 250 4 250 4 191 1.5 c 128,-1,5
 132 -1 132 -1 103 -3.5 c 2,6,-1
 74 -6 l 1,7,8
 66 2 66 2 66 30 c 0,9,10
 66 62 66 62 74 62 c 0,11,12
 90 62 90 62 128 87 c 128,-1,13
 166 112 166 112 180 130 c 2,14,-1
 546 612 l 2,15,16
 558 627 558 627 546 644 c 0,17,18
 300 1022 300 1022 178 1184 c 0,19,20
 159 1209 159 1209 125.5 1231.5 c 128,-1,21
 92 1254 92 1254 74 1254 c 0,22,23
 66 1254 66 1254 66 1282 c 0,24,25
 66 1308 66 1308 74 1316 c 1,26,27
 172 1312 172 1312 306 1312 c 0,28,29
 395 1312 395 1312 655 1318 c 128,-1,30
 915 1324 915 1324 1028 1324 c 1,31,32
 1036 1265 1036 1265 1062 1148.5 c 128,-1,33
 1088 1032 1088 1032 1090 1022 c 1,34,35
 1080 1012 1080 1012 1044 1012 c 0,36,37
 1022 1012 1022 1012 1016 1026 c 0,38,39
 975 1108 975 1108 902 1162 c 128,-1,40
 829 1216 829 1216 736 1216 c 2,41,-1
 624 1216 l 2,42,43
 570 1216 570 1216 531.5 1209 c 128,-1,44
 493 1202 493 1202 490 1190 c 1,45,-1
 820 720 l 1,46,47
 828 696 828 696 828 682 c 128,-1,48
 828 668 828 668 818 658 c 1,49,50
 797 633 797 633 759.5 588 c 128,-1,51
 722 543 722 543 697 513 c 128,-1,52
 672 483 672 483 636 440 c 128,-1,53
 600 397 600 397 575.5 367 c 128,-1,54
 551 337 551 337 522 301.5 c 128,-1,55
 493 266 493 266 474.5 241.5 c 128,-1,56
 456 217 456 217 439 194.5 c 128,-1,57
 422 172 422 172 414 159 c 128,-1,58
 406 146 406 146 406 142 c 0,59,60
 406 134 406 134 412.5 130 c 128,-1,61
 419 126 419 126 451 123 c 128,-1,62
 483 120 483 120 548 120 c 2,63,-1
 676 120 l 2,64,65
 885 120 885 120 962 160 c 0,66,67
 993 176 993 176 1030.5 226 c 128,-1,68
 1068 276 1068 276 1092 340 c 1,69,70
 1095 352 1095 352 1120 352 c 0,71,72
 1136 352 1136 352 1156 348 c 128,-1,73
 1176 344 1176 344 1180 340 c 1,74,75
 1111 143 1111 143 1088 0 c 1,0,1
EndSplineSet
EndChar
StartChar: radical
Encoding: 8730 8730 235
Width: 1054
Flags: W
LayerCount: 2
Fore
SplineSet
28 300 m 1,0,1
 8 311 8 311 -8 332.5 c 128,-1,2
 -24 354 -24 354 -24 370 c 0,3,4
 -24 376 -24 376 -21.5 382 c 128,-1,5
 -19 388 -19 388 -17 392 c 128,-1,6
 -15 396 -15 396 -8.5 401.5 c 128,-1,7
 -2 407 -2 407 0.5 409 c 128,-1,8
 3 411 3 411 12 417 c 128,-1,9
 21 423 21 423 22 424 c 0,10,11
 70 457 70 457 184 543 c 128,-1,12
 298 629 298 629 320 648 c 0,13,14
 332 659 332 659 351.5 659.5 c 128,-1,15
 371 660 371 660 376 648 c 1,16,17
 413 528 413 528 422 508 c 2,18,-1
 600 94 l 1,19,-1
 896 1582 l 1,20,-1
 1012 1568 l 1,21,22
 690 -51 690 -51 640 -306 c 1,23,24
 620 -330 620 -330 587.5 -345 c 128,-1,25
 555 -360 555 -360 542 -360 c 0,26,27
 527 -360 527 -360 522 -350 c 2,28,-1
 188 392 l 1,29,-1
 28 300 l 1,0,1
EndSplineSet
EndChar
StartChar: infinity
Encoding: 8734 8734 237
Width: 1788
Flags: W
LayerCount: 2
Fore
SplineSet
1290 714 m 0,0,1
 1171 714 1171 714 1010 492 c 0,2,3
 1008 490 1008 490 1010 488 c 0,4,5
 1011 486 1011 486 1033 455.5 c 128,-1,6
 1055 425 1055 425 1067.5 409 c 128,-1,7
 1080 393 1080 393 1106 361 c 128,-1,8
 1132 329 1132 329 1154.5 309.5 c 128,-1,9
 1177 290 1177 290 1205 268.5 c 128,-1,10
 1233 247 1233 247 1262.5 236.5 c 128,-1,11
 1292 226 1292 226 1320 226 c 0,12,13
 1397 226 1397 226 1452.5 296 c 128,-1,14
 1508 366 1508 366 1508 466 c 0,15,16
 1508 570 1508 570 1442 642 c 128,-1,17
 1376 714 1376 714 1290 714 c 0,0,1
280 458 m 128,-1,19
 280 356 280 356 343.5 288 c 128,-1,20
 407 220 407 220 490 220 c 0,21,22
 511 220 511 220 532.5 225 c 128,-1,23
 554 230 554 230 574.5 241 c 128,-1,24
 595 252 595 252 612 262 c 128,-1,25
 629 272 629 272 648.5 290.5 c 128,-1,26
 668 309 668 309 680 320 c 128,-1,27
 692 331 692 331 710.5 353 c 128,-1,28
 729 375 729 375 735.5 383 c 128,-1,29
 742 391 742 391 758.5 412.5 c 128,-1,30
 775 434 775 434 776 436 c 0,31,32
 778 438 778 438 776 440 c 0,33,34
 775 442 775 442 762.5 461.5 c 128,-1,35
 750 481 750 481 741.5 493 c 128,-1,36
 733 505 733 505 715.5 529 c 128,-1,37
 698 553 698 553 683.5 570 c 128,-1,38
 669 587 669 587 648.5 609.5 c 128,-1,39
 628 632 628 632 608.5 647 c 128,-1,40
 589 662 589 662 567 676 c 128,-1,41
 545 690 545 690 522 697 c 128,-1,42
 499 704 499 704 476 704 c 0,43,44
 395 704 395 704 337.5 632 c 128,-1,18
 280 560 280 560 280 458 c 128,-1,19
500 852 m 0,45,46
 555 852 555 852 610.5 834.5 c 128,-1,47
 666 817 666 817 707 792.5 c 128,-1,48
 748 768 748 768 792 730.5 c 128,-1,49
 836 693 836 693 861.5 666 c 128,-1,50
 887 639 887 639 918 602 c 0,51,52
 920 599 920 599 924 598 c 128,-1,53
 928 597 928 597 930 600 c 0,54,55
 968 648 968 648 1004.5 685.5 c 128,-1,56
 1041 723 1041 723 1094 764.5 c 128,-1,57
 1147 806 1147 806 1211 829 c 128,-1,58
 1275 852 1275 852 1344 852 c 0,59,60
 1484 852 1484 852 1585 740.5 c 128,-1,61
 1686 629 1686 629 1686 484 c 0,62,63
 1686 319 1686 319 1565.5 198.5 c 128,-1,64
 1445 78 1445 78 1280 78 c 0,65,66
 1207 78 1207 78 1139 103.5 c 128,-1,67
 1071 129 1071 129 1024.5 165 c 128,-1,68
 978 201 978 201 942.5 237 c 128,-1,69
 907 273 907 273 886 298.5 c 128,-1,70
 865 324 865 324 860 324 c 2,71,-1
 858 324 l 1,72,73
 811 268 811 268 773 230.5 c 128,-1,74
 735 193 735 193 681.5 153.5 c 128,-1,75
 628 114 628 114 566 94 c 128,-1,76
 504 74 504 74 434 74 c 0,77,78
 342 74 342 74 264.5 127.5 c 128,-1,79
 187 181 187 181 144.5 266 c 128,-1,80
 102 351 102 351 102 446 c 0,81,82
 102 610 102 610 219.5 731 c 128,-1,83
 337 852 337 852 500 852 c 0,45,46
EndSplineSet
EndChar
StartChar: uniF733
Encoding: 63283 63283 245
Width: 1024
VWidth: 1024
LayerCount: 2
Back
SplineSet
264 460 m 0,0,1
 300 460 300 460 330 429.5 c 0,2,3
 360 399 360 399 360 355 c 0,2,3
 360 313 360 313 330 264.5 c 0,4,5
 300 216 300 216 268 200 c 1,4,5
 309 197 309 197 348.5 154.5 c 0,6,7
 388 112 388 112 388 53 c 0,6,7
 388 -5 388 -5 341 -61 c 0,8,9
 294 -117 294 -117 229 -149.5 c 0,10,11
 164 -182 164 -182 108 -182 c 0,8,9
 86 -182 86 -182 67 -174 c 1,10,11
 61 -162 61 -162 61 -148 c 0,12,13
 61 -137 61 -137 73 -124.5 c 0,14,15
 85 -112 85 -112 97 -112 c 0,14,15
 112 -112 112 -112 130 -122 c 0,16,17
 148 -132 148 -132 165 -132 c 0,16,17
 225 -132 225 -132 262.5 -83.5 c 0,18,19
 300 -35 300 -35 300 33 c 0,18,19
 300 76 300 76 274 110.5 c 0,20,21
 248 145 248 145 209 145 c 0,20,21
 170 145 170 145 137 134 c 1,22,23
 129 135 129 135 129 152 c 0,24,25
 129 160 129 160 133 170 c 1,26,27
 191 188 191 188 238 232 c 0,28,29
 285 276 285 276 285 324 c 0,28,29
 285 358 285 358 267 377.5 c 0,30,31
 249 397 249 397 219 397 c 0,30,31
 167 397 167 397 112 342 c 0,32,33
 108 338 108 338 105 338 c 0,34,35
 103 338 103 338 99 344 c 0,36,37
 95 350 95 350 95 354 c 0,36,37
 95 360 95 360 97 363 c 0,38,39
 123 405 123 405 167.5 432.5 c 0,40,41
 212 460 212 460 264 460 c 0,0,1
EndSplineSet
EndChar
StartChar: Idotaccent.sc
Encoding: 65655 -1 565
Width: 684
Flags: W
LayerCount: 2
Fore
SplineSet
344 908 m 0,0,1
 389 908 389 908 485 915.5 c 0,2,3
 581 923 581 923 606 924 c 1,4,5
 608 918 608 918 608 888 c 0,6,7
 608 850 608 850 602 850 c 0,8,9
 585 850 585 850 539.5 833.5 c 0,10,11
 494 817 494 817 490 802 c 0,12,13
 474 738 474 738 474 632 c 2,14,-1
 474 288 l 2,15,16
 474 178 474 178 490 114 c 0,17,18
 494 99 494 99 539.5 82.5 c 0,19,20
 585 66 585 66 602 66 c 0,21,22
 608 66 608 66 608 28 c 0,23,24
 608 -2 608 -2 606 -8 c 1,25,26
 581 -7 581 -7 485 0.5 c 0,27,28
 389 8 389 8 344 8 c 0,29,30
 296 8 296 8 202 0.5 c 0,31,32
 108 -7 108 -7 82 -8 c 1,33,34
 74 0 74 0 74 30 c 0,35,36
 74 66 74 66 82 66 c 0,37,38
 104 66 104 66 150 82.5 c 0,39,40
 196 99 196 99 200 114 c 0,41,42
 214 175 214 175 214 266 c 2,43,-1
 214 654 l 2,44,45
 214 741 214 741 200 802 c 0,46,47
 196 817 196 817 150 833.5 c 0,48,49
 104 850 104 850 82 850 c 0,50,51
 74 850 74 850 74 886 c 0,52,53
 74 916 74 916 82 924 c 1,54,55
 108 923 108 923 202 915.5 c 0,56,57
 296 908 296 908 344 908 c 0,0,1
EndSplineSet
Refer: 258 -1 N 1 0 0 1 856 -442 2
EndChar
StartChar: T_h
Encoding: 65720 -1 643
Width: 2224
Flags: W
LayerCount: 2
Fore
SplineSet
1234 1036 m 2,0,1
 1234 1080 1234 1080 1223 1113 c 128,-1,2
 1212 1146 1212 1146 1190 1166 c 128,-1,3
 1168 1186 1168 1186 1144.5 1199 c 128,-1,4
 1121 1212 1121 1212 1085.5 1217.5 c 128,-1,5
 1050 1223 1050 1223 1024 1224.5 c 128,-1,6
 998 1226 998 1226 960 1226 c 2,7,-1
 774 1226 l 1,8,-1
 774 290 l 2,9,10
 774 142 774 142 790 102 c 0,11,12
 800 75 800 75 918 66 c 1,13,14
 925 55 925 55 924.5 28 c 128,-1,15
 924 1 924 1 918 -8 c 1,16,17
 782 6 782 6 632 6 c 0,18,19
 486 6 486 6 350 -8 c 1,20,21
 344 1 344 1 343.5 28 c 128,-1,22
 343 55 343 55 350 66 c 1,23,24
 468 75 468 75 478 102 c 0,25,26
 494 142 494 142 494 290 c 2,27,-1
 494 1226 l 1,28,-1
 308 1226 l 2,29,30
 233 1226 233 1226 171 1150 c 128,-1,31
 109 1074 109 1074 94 974 c 0,32,33
 92 964 92 964 74 964 c 0,34,35
 60 964 60 964 40 969 c 128,-1,36
 20 974 20 974 16 978 c 1,37,-1
 70 1346 l 1,38,39
 82 1352 82 1352 94 1352 c 128,-1,40
 106 1352 106 1352 128.5 1342.5 c 128,-1,41
 151 1333 151 1333 195 1323.5 c 128,-1,42
 239 1314 239 1314 302 1314 c 2,43,-1
 966 1314 l 2,44,45
 1056 1314 1056 1314 1186 1333.5 c 128,-1,46
 1316 1353 1316 1353 1401 1372.5 c 2,47,-1
 1486 1392 l 1,48,49
 1494 1391 1494 1391 1504 1378.5 c 128,-1,50
 1514 1366 1514 1366 1516 1358 c 1,51,52
 1494 1232 1494 1232 1494 1152 c 2,53,-1
 1494 744 l 2,54,55
 1494 734 1494 734 1496 732 c 1,56,57
 1500 732 1500 732 1510 742 c 0,58,59
 1556 795 1556 795 1641.5 843.5 c 128,-1,60
 1727 892 1727 892 1792 892 c 0,61,62
 1860 892 1860 892 1908 872.5 c 128,-1,63
 1956 853 1956 853 1986.5 817.5 c 128,-1,64
 2017 782 2017 782 2034 722 c 128,-1,65
 2051 662 2051 662 2057.5 591.5 c 128,-1,66
 2064 521 2064 521 2064 420 c 2,67,-1
 2064 290 l 2,68,69
 2064 142 2064 142 2080 102 c 0,70,71
 2090 75 2090 75 2208 66 c 1,72,73
 2215 55 2215 55 2214.5 28 c 128,-1,74
 2214 1 2214 1 2208 -8 c 1,75,76
 2072 6 2072 6 1934 6 c 0,77,78
 1820 6 1820 6 1684 -8 c 1,79,80
 1678 1 1678 1 1677.5 28 c 128,-1,81
 1677 55 1677 55 1684 66 c 1,82,83
 1777 73 1777 73 1788 102 c 0,84,85
 1804 142 1804 142 1804 290 c 2,86,-1
 1804 448 l 2,87,88
 1804 730 1804 730 1670 730 c 0,89,90
 1613 730 1613 730 1553.5 690 c 128,-1,91
 1494 650 1494 650 1494 618 c 2,92,-1
 1494 290 l 2,93,94
 1494 142 1494 142 1510 102 c 0,95,96
 1521 74 1521 74 1624 66 c 1,97,98
 1631 55 1631 55 1630.5 28 c 128,-1,99
 1630 1 1630 1 1624 -8 c 1,100,101
 1488 6 1488 6 1364 6 c 0,102,103
 1226 6 1226 6 1090 -8 c 1,104,105
 1084 1 1084 1 1083.5 28 c 128,-1,106
 1083 55 1083 55 1090 66 c 1,107,108
 1208 75 1208 75 1218 102 c 0,109,110
 1234 142 1234 142 1234 290 c 2,111,-1
 1234 1036 l 2,0,1
EndSplineSet
LCarets2: 1 0 
Ligature2: "'liga' Standard Ligatures lookup 0-1" T h
EndChar
StartChar: acutecomb.cap
Encoding: 65537 -1 248
Width: 0
GlyphClass: 4
Flags: W
LayerCount: 2
Fore
SplineSet
-714 1496 m 0,0,1
 -714 1507 -714 1507 -626.5 1593.5 c 128,-1,2
 -539 1680 -539 1680 -474 1730 c 1,3,4
 -458 1738 -458 1738 -438 1738 c 0,5,6
 -402 1738 -402 1738 -364 1718.5 c 128,-1,7
 -326 1699 -326 1699 -326 1662 c 0,8,9
 -326 1629 -326 1629 -411 1577.5 c 128,-1,10
 -496 1526 -496 1526 -582.5 1491 c 128,-1,11
 -669 1456 -669 1456 -686 1456 c 0,12,13
 -696 1456 -696 1456 -705 1471 c 128,-1,14
 -714 1486 -714 1486 -714 1496 c 0,0,1
EndSplineSet
EndChar
StartChar: aogonek.sc
Encoding: 65633 -1 543
Width: 1000
VWidth: 0
Flags: W
LayerCount: 2
Fore
SplineSet
667 -202 m 0,0,1
 667 -239 667 -239 690.5 -267.5 c 128,-1,2
 714 -296 714 -296 765 -296 c 0,3,4
 818 -296 818 -296 915 -218 c 1,5,6
 927 -218 927 -218 927 -240 c 0,7,8
 927 -248 927 -248 922 -266 c 128,-1,9
 917 -284 917 -284 913 -290 c 0,10,11
 899 -308 899 -308 877 -329.5 c 128,-1,12
 855 -351 855 -351 822 -376.5 c 128,-1,13
 789 -402 789 -402 747.5 -419 c 128,-1,14
 706 -436 706 -436 667 -436 c 0,15,16
 611 -436 611 -436 565 -394 c 128,-1,17
 519 -352 519 -352 519 -280 c 0,18,19
 519 -202 519 -202 613 -111 c 128,-1,20
 707 -20 707 -20 793 4 c 1,21,-1
 763 4 l 2,22,23
 667 4 667 4 517 -8 c 1,24,25
 510 -0 510 -0 510 30 c 128,-1,26
 510 60 510 60 517 60 c 0,27,28
 569 60 569 60 599 84 c 0,29,30
 611 93 611 93 611 104 c 0,31,32
 611 138 611 138 575 210 c 1,33,-1
 553 256 l 2,34,35
 552 256 552 256 548.5 258 c 128,-1,36
 545 260 545 260 543 260 c 0,37,38
 517 262 517 262 425 262 c 0,39,40
 343 262 343 262 295 260 c 0,41,42
 293 260 293 260 287.5 257 c 128,-1,43
 282 254 282 254 281 254 c 0,44,45
 268 226 268 226 263 212 c 0,46,47
 259 202 259 202 249 176 c 128,-1,48
 239 150 239 150 233 132.5 c 128,-1,49
 227 115 227 115 227 106 c 0,50,51
 227 83 227 83 269 71.5 c 128,-1,52
 311 60 311 60 333 60 c 1,53,54
 341 50 341 50 340.5 24.5 c 128,-1,55
 340 -1 340 -1 335 -8 c 1,56,57
 223 6 223 6 175 6 c 0,58,59
 129 6 129 6 17 -8 c 1,60,61
 11 -2 11 -2 10 20.5 c 128,-1,62
 9 43 9 43 15 58 c 1,63,64
 30 58 30 58 65 72.5 c 128,-1,65
 100 87 100 87 109 102 c 0,66,67
 117 114 117 114 124 129 c 128,-1,68
 131 144 131 144 140.5 167.5 c 128,-1,69
 150 191 150 191 157 206 c 0,70,71
 219 356 219 356 311 562 c 128,-1,72
 403 768 403 768 447 872 c 0,73,74
 454 889 454 889 474.5 905.5 c 128,-1,75
 495 922 495 922 507 922 c 0,76,77
 524 922 524 922 533 900 c 2,78,-1
 831 228 l 2,79,80
 840 209 840 209 859.5 170 c 128,-1,81
 879 131 879 131 885 118 c 0,82,83
 902 85 902 85 937 72.5 c 128,-1,84
 972 60 972 60 993 60 c 1,85,86
 1000 48 1000 48 1001.5 23 c 128,-1,87
 1003 -2 1003 -2 997 -8 c 1,88,-1
 979 -4 l 1,89,90
 873 -4 873 -4 770 -71 c 128,-1,91
 667 -138 667 -138 667 -202 c 0,0,1
517 348 m 1,92,-1
 413 566 l 1,93,-1
 315 348 l 1,94,95
 315 344 315 344 319 344 c 0,96,97
 361 338 361 338 419 338 c 0,98,99
 471 338 471 338 513 342 c 0,100,101
 517 342 517 342 517 348 c 1,92,-1
EndSplineSet
EndChar
StartChar: b.sc
Encoding: 65564 -1 474
Width: 1056
VWidth: 0
Flags: W
LayerCount: 2
Fore
SplineSet
457 740 m 2,0,-1
 457 520 l 1,1,-1
 521 520 l 2,2,3
 569 520 569 520 599 557.5 c 128,-1,4
 629 595 629 595 629 664 c 0,5,6
 629 830 629 830 525 830 c 0,7,8
 469 830 469 830 463 816 c 128,-1,9
 457 802 457 802 457 740 c 2,0,-1
575 904 m 0,10,11
 635 904 635 904 690.5 892.5 c 128,-1,12
 746 881 746 881 795 856.5 c 128,-1,13
 844 832 844 832 873.5 788.5 c 128,-1,14
 903 745 903 745 903 688 c 0,15,16
 903 650 903 650 879.5 615 c 128,-1,17
 856 580 856 580 820 557 c 128,-1,18
 784 534 784 534 754.5 520.5 c 128,-1,19
 725 507 725 507 701 500 c 1,20,21
 690.037818182 495.505090909 690.037818182 495.505090909 691 492 c 1,22,23
 743 487 743 487 807 460.5 c 128,-1,24
 871 434 871 434 926 379 c 128,-1,25
 981 324 981 324 981 258 c 0,26,27
 981 111 981 111 833 28 c 0,28,29
 764 -11 764 -11 479 -6 c 1,30,-1
 91 -6 l 1,31,32
 85 3 85 3 84.5 30 c 128,-1,33
 84 57 84 57 91 66 c 1,34,35
 93 66 93 66 106.5 67 c 128,-1,36
 120 68 120 68 130.5 69.5 c 128,-1,37
 141 71 141 71 154 73 c 128,-1,38
 167 75 167 75 175 79 c 128,-1,39
 183 83 183 83 185 88 c 0,40,41
 197 114 197 114 197 212 c 2,42,-1
 197 686 l 2,43,44
 197 782 197 782 185 808 c 0,45,46
 183 813 183 813 175 817 c 128,-1,47
 167 821 167 821 154 823 c 128,-1,48
 141 825 141 825 130.5 826.5 c 128,-1,49
 120 828 120 828 106.5 829 c 128,-1,50
 93 830 93 830 91 830 c 1,51,52
 84 839 84 839 84.5 867 c 128,-1,53
 85 895 85 895 91 904 c 1,54,55
 163 898 163 898 327 898 c 0,56,57
 358 898 358 898 441.5 901 c 128,-1,58
 525 904 525 904 575 904 c 0,10,11
457 448 m 1,59,-1
 457 158 l 2,60,61
 457 98 457 98 467 82 c 1,62,63
 477 68 477 68 555 68 c 0,64,65
 612 68 612 68 656.5 113 c 128,-1,66
 701 158 701 158 701 248 c 0,67,68
 701 286 701 286 691.5 320 c 128,-1,69
 682 354 682 354 663 383.5 c 128,-1,70
 644 413 644 413 609 430.5 c 128,-1,71
 574 448 574 448 527 448 c 2,72,-1
 457 448 l 1,59,-1
EndSplineSet
EndChar
StartChar: bar.sc
Encoding: 65594 -1 504
Width: 392
VWidth: 0
Flags: W
LayerCount: 2
Fore
SplineSet
239 -88 m 2,0,1
 239 -94 239 -94 205 -100 c 128,-1,2
 171 -106 171 -106 161 -106 c 0,3,4
 157 -106 157 -106 155 -105 c 128,-1,5
 153 -104 153 -104 152.5 -103 c 128,-1,6
 152 -102 152 -102 152.5 -99.5 c 128,-1,7
 153 -97 153 -97 153 -96 c 2,8,-1
 153 968 l 1,9,10
 151 976 151 976 161 978 c 0,11,12
 189 984 189 984 225 984 c 0,13,14
 231 984 231 984 234.5 982 c 128,-1,15
 238 980 238 980 238.5 978 c 2,16,-1
 239 976 l 1,17,-1
 239 -88 l 2,0,1
EndSplineSet
EndChar
StartChar: e.sc
Encoding: 65567 -1 477
Width: 952
VWidth: 0
Flags: W
LayerCount: 2
Fore
SplineSet
457 740 m 2,0,-1
 457 514 l 2,1,2
 457 508 457 508 473 504 c 128,-1,3
 489 500 489 500 509 500 c 2,4,-1
 573 500 l 2,5,6
 627 500 627 500 648.5 515 c 128,-1,7
 670 530 670 530 685 578 c 0,8,9
 688 588 688 588 705 588 c 0,10,11
 731 588 731 588 739 580 c 1,12,-1
 739 330 l 1,13,14
 735 322 735 322 715 322 c 0,15,16
 694 322 694 322 691 332 c 0,17,18
 673 394 673 394 643 404 c 0,19,20
 622 412 622 412 551 412 c 0,21,22
 457 412 457 412 457 394 c 2,23,-1
 457 200 l 2,24,25
 457 124 457 124 467 100 c 0,26,27
 478 76 478 76 553 76 c 2,28,-1
 641 76 l 2,29,30
 716 76 716 76 761 118 c 0,31,32
 802 156 802 156 833 232 c 0,33,34
 836 238 836 238 857 238 c 0,35,36
 891 238 891 238 897 232 c 1,37,38
 831 44 831 44 823 -4 c 1,39,40
 149 -4 149 -4 91 -6 c 1,41,42
 85 3 85 3 84.5 30 c 128,-1,43
 84 57 84 57 91 66 c 1,44,45
 93 66 93 66 106.5 67 c 128,-1,46
 120 68 120 68 130.5 69.5 c 128,-1,47
 141 71 141 71 154 73 c 128,-1,48
 167 75 167 75 175 79 c 128,-1,49
 183 83 183 83 185 88 c 0,50,51
 197 114 197 114 197 212 c 2,52,-1
 197 690 l 2,53,54
 197 788 197 788 185 814 c 0,55,56
 183 819 183 819 175 823 c 128,-1,57
 167 827 167 827 154 829 c 128,-1,58
 141 831 141 831 130.5 832.5 c 128,-1,59
 120 834 120 834 106.5 835 c 128,-1,60
 93 836 93 836 91 836 c 1,61,62
 84 845 84 845 84.5 871 c 128,-1,63
 85 897 85 897 91 906 c 1,64,65
 159 900 159 900 311 900 c 0,66,67
 338 900 338 900 437.5 902.5 c 128,-1,68
 537 905 537 905 651.5 908 c 128,-1,69
 766 911 766 911 795 912 c 1,70,71
 801 871 801 871 817 795 c 128,-1,72
 833 719 833 719 835 706 c 1,73,74
 829 700 829 700 805 700 c 0,75,76
 782 700 782 700 779 708 c 0,77,78
 754 767 754 767 722 799.5 c 128,-1,79
 690 832 690 832 635 832 c 2,80,-1
 529 832 l 2,81,82
 470 832 470 832 463 816 c 0,83,84
 457 800 457 800 457 740 c 2,0,-1
EndSplineSet
EndChar
StartChar: eng.sc
Encoding: 65669 -1 579
Width: 1158
VWidth: 0
Flags: W
LayerCount: 2
Fore
SplineSet
967 186 m 2,0,1
 967 59 967 59 911.5 -50.5 c 128,-1,2
 856 -160 856 -160 748 -229 c 128,-1,3
 640 -298 640 -298 503 -298 c 0,4,5
 477 -298 477 -298 441 -291 c 128,-1,6
 405 -284 405 -284 395 -274 c 1,7,8
 357 -230 357 -230 357 -174 c 0,9,10
 357 -124 357 -124 388 -96 c 128,-1,11
 419 -68 419 -68 457 -68 c 0,12,13
 478 -68 478 -68 502.5 -87.5 c 128,-1,14
 527 -107 527 -107 545.5 -131 c 128,-1,15
 564 -155 564 -155 584.5 -174.5 c 128,-1,16
 605 -194 605 -194 619 -194 c 0,17,18
 681 -194 681 -194 743 -109.5 c 128,-1,19
 805 -25 805 -25 819 104 c 1,20,-1
 307 658 l 1,21,-1
 307 224 l 2,22,23
 307 126 307 126 317 98 c 0,24,25
 323 81 323 81 369.5 71.5 c 128,-1,26
 416 62 416 62 437 62 c 1,27,28
 445 50 445 50 445 27 c 128,-1,29
 445 4 445 4 441 -8 c 1,30,31
 432 -7 432 -7 361 -0.5 c 128,-1,32
 290 6 290 6 251 6 c 128,-1,33
 212 6 212 6 154.5 -0.5 c 128,-1,34
 97 -7 97 -7 73 -8 c 1,35,36
 68 -1 68 -1 67.5 16 c 128,-1,37
 67 33 67 33 69 46.5 c 128,-1,38
 71 60 71 60 73 60 c 0,39,40
 96 60 96 60 141.5 69.5 c 128,-1,41
 187 79 187 79 193 94 c 1,42,43
 209 126 209 126 209 228 c 2,44,-1
 209 694 l 2,45,46
 209 746 209 746 204.5 769.5 c 128,-1,47
 200 793 200 793 187 812 c 0,48,49
 179 824 179 824 146.5 832 c 128,-1,50
 114 840 114 840 97 840 c 0,51,52
 89 840 89 840 87.5 870 c 128,-1,53
 86 900 86 900 93 908 c 1,54,55
 106 907 106 907 134.5 903.5 c 128,-1,56
 163 900 163 900 189.5 898 c 128,-1,57
 216 896 216 896 247 896 c 0,58,59
 315 896 315 896 411 908 c 1,60,61
 433 862 433 862 509.5 776.5 c 128,-1,62
 586 691 586 691 697.5 574.5 c 128,-1,63
 809 458 809 458 869 386 c 1,64,-1
 869 676 l 2,65,66
 869 774 869 774 859 802 c 0,67,68
 853 819 853 819 806.5 828.5 c 128,-1,69
 760 838 760 838 739 838 c 1,70,71
 731 850 731 850 731 873 c 128,-1,72
 731 896 731 896 735 908 c 1,73,74
 744 907 744 907 815 900.5 c 128,-1,75
 886 894 886 894 925 894 c 128,-1,76
 964 894 964 894 1021.5 900.5 c 128,-1,77
 1079 907 1079 907 1103 908 c 1,78,79
 1108 901 1108 901 1108.5 884 c 128,-1,80
 1109 867 1109 867 1107 853.5 c 128,-1,81
 1105 840 1105 840 1103 840 c 0,82,83
 1080 840 1080 840 1034.5 830.5 c 128,-1,84
 989 821 989 821 983 806 c 1,85,86
 967 774 967 774 967 672 c 2,87,-1
 967 186 l 2,0,1
EndSplineSet
EndChar
StartChar: eth.sc
Encoding: 65614 -1 524
Width: 1266
VWidth: 0
Flags: W
LayerCount: 2
Fore
SplineSet
642 406 m 1,0,-1
 58 406 l 2,1,2
 54 406 54 406 52 420.5 c 0,3,4
 50 435 50 435 52 453.5 c 0,5,6
 54 472 54 472 60 480 c 1,7,-1
 642 480 l 2,8,9
 648 480 648 480 648 450 c 0,10,11
 648 420 648 420 642 406 c 1,0,-1
EndSplineSet
Refer: 476 -1 N 1 0 0 1 6 0 2
EndChar
StartChar: f.ff
Encoding: 65723 -1 898
Width: 630
Flags: W
LayerCount: 2
Back
SplineSet
1242 1396 m 4,0,1
 1300 1396 1300 1396 1370 1376 c 5,2,3
 1448 1335 1448 1335 1448 1284 c 4,4,5
 1448 1230 1448 1230 1420.5 1188 c 132,-1,6
 1393 1146 1393 1146 1346 1146 c 4,7,8
 1325 1146 1325 1146 1304.5 1154.5 c 132,-1,9
 1284 1163 1284 1163 1272.5 1172 c 132,-1,10
 1261 1181 1261 1181 1241.5 1198.5 c 132,-1,11
 1222 1216 1222 1216 1214 1222 c 4,12,13
 1177 1252 1177 1252 1134 1252 c 4,14,15
 1110 1252 1110 1252 1092 1204.5 c 132,-1,16
 1074 1157 1074 1157 1074 1088 c 4,17,18
 1074 950 1074 950 1082 826 c 5,19,-1
 1316 826 l 6,20,21
 1328 826 1328 826 1328 800 c 4,22,23
 1328 787 1328 787 1313 765 c 132,-1,24
 1298 743 1298 743 1282 732 c 5,25,-1
 1088 732 l 5,26,-1
 1088 290 l 6,27,28
 1088 145.2 1088 145.2 1104 102 c 4,29,30
 1114 75 1114 75 1232 66 c 5,31,32
 1239 55 1239 55 1238.5 28 c 132,-1,33
 1238 1 1238 1 1232 -8 c 5,34,35
 1096 6 1096 6 958 6 c 132,-1,36
 820 6 820 6 684 -8 c 5,37,38
 678 1 678 1 677.5 28 c 132,-1,39
 677 55 677 55 684 66 c 5,40,41
 802 75 802 75 812 102 c 4,42,43
 828 142 828 142 828 290 c 6,44,-1
 828 732 l 5,45,-1
 686 732 l 5,46,47
 676 736 676 736 676 758 c 5,48,49
 702 794 702 794 740 826 c 5,50,-1
 828 826 l 5,51,-1
 828 886 l 6,52,53
 828 984 828 984 871.5 1080.5 c 132,-1,54
 915 1177 915 1177 978.5 1244.5 c 132,-1,55
 1042 1312 1042 1312 1113.5 1354 c 132,-1,56
 1185 1396 1185 1396 1242 1396 c 4,0,1
EndSplineSet
Fore
SplineSet
758 826 m 1,0,-1
 452 826 l 1,1,2
 445.317382812 922.014648438 445.317382812 922.014648438 460 1011 c 0,3,4
 493.387695312 1213.34667969 493.387695312 1213.34667969 592 1238 c 0,5,6
 680 1260 680 1260 756 1130 c 0,7,8
 808 1041 808 1041 855 1038 c 128,-1,9
 902 1035 902 1035 940 1085 c 128,-1,10
 978 1135 978 1135 945.5 1206.5 c 128,-1,11
 913 1278 913 1278 818.5 1311.5 c 128,-1,12
 724 1345 724 1345 635.5 1340 c 128,-1,13
 547 1335 547 1335 497 1322 c 0,14,15
 372 1290 372 1290 286 1167.5 c 128,-1,16
 200 1045 200 1045 198 826 c 1,17,-1
 110 826 l 1,18,19
 72 794 72 794 46 758 c 1,20,21
 46 736 46 736 56 732 c 1,22,-1
 198 732 l 1,23,-1
 198 290 l 2,24,25
 198 145 198 145 182 102 c 0,26,27
 172 75 172 75 54 66 c 1,28,29
 47 55 47 55 47.5 28 c 128,-1,30
 48 1 48 1 54 -8 c 1,31,32
 190 6 190 6 328 6 c 128,-1,33
 466 6 466 6 602 -8 c 1,34,35
 608 1 608 1 608.5 28 c 128,-1,36
 609 55 609 55 602 66 c 1,37,38
 484 75 484 75 474 102 c 0,39,40
 458 142 458 142 458 290 c 2,41,-1
 458 732 l 1,42,-1
 758 732 l 1,43,-1
 758 826 l 1,0,-1
EndSplineSet
EndChar
StartChar: f.fl
Encoding: 65726 -1 901
Width: 660
Flags: W
LayerCount: 2
Back
SplineSet
837 1116 m 6,0,1
 837 1178 837 1178 823 1212 c 4,2,3
 816 1228 816 1228 773 1238 c 132,-1,4
 730 1248 730 1248 703 1248 c 4,5,6
 699 1248 699 1248 697 1262.5 c 132,-1,7
 695 1277 695 1277 696.5 1292.5 c 132,-1,8
 698 1308 698 1308 703 1312 c 5,9,10
 766 1318 766 1318 828 1328 c 132,-1,11
 890 1338 890 1338 934.5 1348.5 c 132,-1,12
 979 1359 979 1359 1014 1368.5 c 132,-1,13
 1049 1378 1049 1378 1068.5 1384 c 132,-1,14
 1088 1390 1088 1390 1089 1390 c 4,15,16
 1097 1389 1097 1389 1107 1376.5 c 132,-1,17
 1117 1364 1117 1364 1119 1356 c 5,18,19
 1097 1232 1097 1232 1097 1152 c 6,20,-1
 1097 290 l 6,21,22
 1097 142 1097 142 1113 102 c 4,23,24
 1123 75 1123 75 1241 66 c 5,25,26
 1248 55 1248 55 1247.5 28 c 132,-1,27
 1247 1 1247 1 1241 -8 c 5,28,29
 1104 6 1104 6 967 6 c 132,-1,30
 830 6 830 6 693 -8 c 5,31,32
 687 1 687 1 686.5 28 c 132,-1,33
 686 55 686 55 693 66 c 5,34,35
 811 75 811 75 821 102 c 4,36,37
 837 142 837 142 837 290 c 6,38,-1
 837 1116 l 6,0,1
EndSplineSet
Fore
SplineSet
507 1215 m 0,0,1
 473.949016005 1179.04863452 473.949016005 1179.04863452 460 1084 c 0,2,3
 447.308954562 1001 447.308954562 1001 452 826 c 1,4,-1
 686 826 l 2,5,6
 698 826 698 826 698 800 c 0,7,8
 698 787 698 787 683 765 c 128,-1,9
 668 743 668 743 652 732 c 1,10,-1
 458 732 l 1,11,-1
 458 290 l 2,12,13
 458 145.2 458 145.2 474 102 c 0,14,15
 484 75 484 75 602 66 c 1,16,17
 609 55 609 55 608.5 28 c 128,-1,18
 608 1 608 1 602 -8 c 1,19,20
 466 6 466 6 328 6 c 128,-1,21
 190 6 190 6 54 -8 c 1,22,23
 48 1 48 1 47.5 28 c 128,-1,24
 47 55 47 55 54 66 c 1,25,26
 172 75 172 75 182 102 c 0,27,28
 198 145.2 198 145.2 198 290 c 2,29,-1
 198 732 l 1,30,-1
 56 732 l 1,31,32
 46 736 46 736 46 758 c 1,33,34
 72 794 72 794 110 826 c 1,35,-1
 198 826 l 1,36,-1
 198 886 l 2,37,38
 198 1085.95956782 198 1085.95956782 314.5 1234 c 0,39,40
 420.416138394 1368.59116654 420.416138394 1368.59116654 600 1372 c 24,41,42
 697.898228892 1373.85828924 697.898228892 1373.85828924 747 1360 c 0,43,44
 975.754998208 1295.43709608 975.754998208 1295.43709608 971.5 1153 c 0,45,46
 968.683749929 1017.62141482 968.683749929 1017.62141482 915.250976562 995.400390625 c 0,47,48
 861.885440246 972.0703125 861.885440246 972.0703125 853.5 1009 c 0,49,50
 840.479337478 1061.42659522 840.479337478 1061.42659522 792 1149 c 0,51,52
 761.8303834 1203.49860052 761.8303834 1203.49860052 693.997070312 1242.88476562 c 0,53,54
 589.966270723 1303.28833523 589.966270723 1303.28833523 507 1215 c 0,0,1
EndSplineSet
EndChar
StartChar: f.sc
Encoding: 65568 -1 478
Width: 878
VWidth: 0
Flags: W
LayerCount: 2
Fore
SplineSet
457 740 m 2,0,-1
 457 506 l 2,1,2
 457 500 457 500 473 496 c 128,-1,3
 489 492 489 492 509 492 c 2,4,-1
 573 492 l 2,5,6
 626 492 626 492 646 506.5 c 128,-1,7
 666 521 666 521 681 570 c 0,8,9
 684 578 684 578 703 578 c 0,10,11
 729 578 729 578 739 568 c 1,12,-1
 739 322 l 1,13,14
 735 314 735 314 715 314 c 0,15,16
 700 314 700 314 697 324 c 0,17,18
 679 387 679 387 651 396 c 1,19,20
 630 404 630 404 551 404 c 0,21,22
 457 404 457 404 457 386 c 2,23,-1
 457 208 l 2,24,25
 457 109 457 109 465 88 c 0,26,27
 467 82 467 82 484 78 c 128,-1,28
 501 74 501 74 519.5 72 c 128,-1,29
 538 70 538 70 558.5 68 c 128,-1,30
 579 66 579 66 581 66 c 1,31,32
 588 57 588 57 587.5 29 c 128,-1,33
 587 1 587 1 581 -8 c 1,34,35
 461 4 461 4 317 4 c 0,36,37
 211 4 211 4 91 -8 c 1,38,39
 85 1 85 1 84.5 29 c 128,-1,40
 84 57 84 57 91 66 c 1,41,42
 93 66 93 66 101.5 67 c 128,-1,43
 110 68 110 68 117 68.5 c 128,-1,44
 124 69 124 69 133.5 70.5 c 128,-1,45
 143 72 143 72 151 73.5 c 128,-1,46
 159 75 159 75 166.5 77.5 c 128,-1,47
 174 80 174 80 179 83 c 128,-1,48
 184 86 184 86 185 90 c 0,49,50
 197 116 197 116 197 214 c 2,51,-1
 197 686 l 2,52,53
 197 784 197 784 185 810 c 0,54,55
 183 815 183 815 175 819 c 128,-1,56
 167 823 167 823 154 825 c 128,-1,57
 141 827 141 827 130.5 828.5 c 128,-1,58
 120 830 120 830 106.5 831 c 128,-1,59
 93 832 93 832 91 832 c 1,60,61
 84 841 84 841 84.5 869 c 128,-1,62
 85 897 85 897 91 906 c 1,63,64
 159 900 159 900 311 900 c 0,65,66
 338 900 338 900 437.5 902.5 c 128,-1,67
 537 905 537 905 651.5 908 c 128,-1,68
 766 911 766 911 795 912 c 1,69,70
 801 871 801 871 817 792.5 c 128,-1,71
 833 714 833 714 835 704 c 1,72,73
 829 698 829 698 803 698 c 0,74,75
 786 698 786 698 783 708 c 1,76,77
 758 768 758 768 726 800 c 128,-1,78
 694 832 694 832 639 832 c 2,79,-1
 529 832 l 2,80,81
 470 832 470 832 463 816 c 0,82,83
 457 800 457 800 457 740 c 2,0,-1
EndSplineSet
EndChar
StartChar: f_b
Encoding: 65712 -1 635
Width: 1774
Flags: W
LayerCount: 2
Fore
SplineSet
1086 1152 m 2,0,-1
 1086 830 l 2,1,2
 1086 824 1086 824 1086 820.5 c 128,-1,3
 1086 817 1086 817 1087.5 809.5 c 128,-1,4
 1089 802 1089 802 1091.5 802 c 128,-1,5
 1094 802 1094 802 1098 804 c 0,6,7
 1135 834 1135 834 1193.5 866 c 128,-1,8
 1252 898 1252 898 1296 898 c 0,9,10
 1471 898 1471 898 1591.5 776.5 c 128,-1,11
 1712 655 1712 655 1712 472 c 0,12,13
 1712 379 1712 379 1681 299 c 128,-1,14
 1650 219 1650 219 1598 162 c 128,-1,15
 1546 105 1546 105 1477 64 c 128,-1,16
 1408 23 1408 23 1331.5 3.5 c 128,-1,17
 1255 -16 1255 -16 1176 -16 c 0,18,19
 1118 -16 1118 -16 1031 7 c 128,-1,20
 944 30 944 30 924 30 c 0,21,22
 883 30 883 30 850 16 c 1,23,24
 844 16 844 16 823 36.5 c 128,-1,25
 802 57 802 57 802 66 c 1,26,27
 826 128 826 128 826 304 c 2,28,-1
 826 896 l 2,29,30
 826 1084 826 1084 802 1152 c 0,31,32
 778 1217 778 1217 727.5 1251 c 128,-1,33
 677 1285 677 1285 616 1280 c 0,34,35
 540 1274 540 1274 507 1225 c 128,-1,36
 474 1176 474 1176 460 1084 c 0,37,38
 448 1001 448 1001 452 856 c 1,39,-1
 686 856 l 2,40,41
 698 856 698 856 698 830 c 0,42,43
 698 817 698 817 683 795 c 128,-1,44
 668 773 668 773 652 762 c 1,45,-1
 458 762 l 1,46,-1
 458 290 l 2,47,48
 458 142 458 142 474 102 c 0,49,50
 484 75 484 75 602 66 c 1,51,52
 609 55 609 55 608.5 28 c 128,-1,53
 608 1 608 1 602 -8 c 1,54,55
 466 6 466 6 328 6 c 128,-1,56
 190 6 190 6 54 -8 c 1,57,58
 48 1 48 1 47.5 28 c 128,-1,59
 47 55 47 55 54 66 c 1,60,61
 172 75 172 75 182 102 c 0,62,63
 198 142 198 142 198 290 c 2,64,-1
 198 762 l 1,65,-1
 56 762 l 1,66,67
 46 766 46 766 46 788 c 1,68,69
 72 824 72 824 110 856 c 1,70,-1
 198 856 l 1,71,-1
 198 886 l 2,72,73
 198 1091 198 1091 314.5 1234 c 128,-1,74
 431 1377 431 1377 600 1382 c 0,75,76
 653 1383 653 1383 719 1356.5 c 128,-1,77
 785 1330 785 1330 826 1326 c 1,78,79
 878 1327 878 1327 922.5 1333.5 c 128,-1,80
 967 1340 967 1340 994.5 1349.5 c 128,-1,81
 1022 1359 1022 1359 1041 1368 c 128,-1,82
 1060 1377 1060 1377 1069 1383.5 c 2,83,-1
 1078 1390 l 1,84,85
 1086 1389 1086 1389 1096 1376.5 c 128,-1,86
 1106 1364 1106 1364 1108 1356 c 1,87,88
 1086 1232 1086 1232 1086 1152 c 2,0,-1
1196 750 m 0,89,90
 1132 750 1132 750 1092 706 c 0,91,92
 1086 700 1086 700 1086 688 c 2,93,-1
 1086 196 l 2,94,95
 1086 143 1086 143 1121.5 107.5 c 128,-1,96
 1157 72 1157 72 1218 72 c 128,-1,97
 1279 72 1279 72 1327.5 121.5 c 128,-1,98
 1376 171 1376 171 1400 243.5 c 128,-1,99
 1424 316 1424 316 1424 392 c 0,100,101
 1424 584 1424 584 1361.5 667 c 128,-1,102
 1299 750 1299 750 1196 750 c 0,89,90
EndSplineSet
Ligature2: "'liga' Standard Ligatures lookup 0-1" f b
LCarets2: 1 0 
EndChar
StartChar: f_f
Encoding: 65707 -1 630
Width: 1340
Flags: W
LayerCount: 2
Fore
SplineSet
828 856 m 1,0,-1
 828 886 l 2,1,2
 828 960 828 960 854 1038 c 1,3,4
 827 1039 827 1039 803 1065 c 128,-1,5
 779 1091 779 1091 756 1130.5 c 128,-1,6
 733 1170 733 1170 724 1180 c 0,7,8
 661 1253 661 1253 592 1238 c 1,9,10
 542 1226 542 1226 507 1159 c 128,-1,11
 472 1092 472 1092 459.5 1011 c 128,-1,12
 447 930 447 930 452 856 c 1,13,-1
 828 856 l 1,0,-1
946 1206 m 1,14,15
 1013 1291 1013 1291 1095.5 1343.5 c 128,-1,16
 1178 1396 1178 1396 1242 1396 c 0,17,18
 1300 1396 1300 1396 1370 1376 c 1,19,20
 1448 1335 1448 1335 1448 1284 c 0,21,22
 1448 1230 1448 1230 1420.5 1188 c 128,-1,23
 1393 1146 1393 1146 1346 1146 c 0,24,25
 1325 1146 1325 1146 1304.5 1154.5 c 128,-1,26
 1284 1163 1284 1163 1272.5 1172 c 128,-1,27
 1261 1181 1261 1181 1241.5 1198.5 c 128,-1,28
 1222 1216 1222 1216 1214 1222 c 0,29,30
 1177 1252 1177 1252 1134 1252 c 0,31,32
 1110 1252 1110 1252 1092 1204.5 c 128,-1,33
 1074 1157 1074 1157 1074 1088 c 0,34,35
 1074 980 1074 980 1082 856 c 1,36,-1
 1316 856 l 2,37,38
 1328 856 1328 856 1328 830 c 0,39,40
 1328 817 1328 817 1313 795 c 128,-1,41
 1298 773 1298 773 1282 762 c 1,42,-1
 1088 762 l 1,43,-1
 1088 290 l 2,44,45
 1088 142 1088 142 1104 102 c 0,46,47
 1114 75 1114 75 1232 66 c 1,48,49
 1239 55 1239 55 1238.5 28 c 128,-1,50
 1238 1 1238 1 1232 -8 c 1,51,52
 1096 6 1096 6 958 6 c 128,-1,53
 820 6 820 6 684 -8 c 1,54,55
 678 1 678 1 677.5 28 c 128,-1,56
 677 55 677 55 684 66 c 1,57,58
 802 75 802 75 812 102 c 0,59,60
 828 142 828 142 828 290 c 2,61,-1
 828 762 l 1,62,-1
 458 762 l 1,63,-1
 458 290 l 2,64,65
 458 142 458 142 474 102 c 0,66,67
 484 75 484 75 602 66 c 1,68,69
 609 55 609 55 608.5 28 c 128,-1,70
 608 1 608 1 602 -8 c 1,71,72
 466 6 466 6 328 6 c 128,-1,73
 190 6 190 6 54 -8 c 1,74,75
 48 1 48 1 47.5 28 c 128,-1,76
 47 55 47 55 54 66 c 1,77,78
 172 75 172 75 182 102 c 0,79,80
 198 142 198 142 198 290 c 2,81,-1
 198 762 l 1,82,-1
 56 762 l 1,83,84
 46 766 46 766 46 788 c 1,85,86
 72 824 72 824 110 856 c 1,87,-1
 198 856 l 1,88,89
 199 968 199 968 226 1054.5 c 128,-1,90
 253 1141 253 1141 293.5 1191.5 c 128,-1,91
 334 1242 334 1242 390.5 1275.5 c 128,-1,92
 447 1309 447 1309 497 1322 c 128,-1,93
 547 1335 547 1335 602 1338 c 0,94,95
 720 1346 720 1346 815 1312.5 c 128,-1,96
 910 1279 910 1279 946 1206 c 1,14,15
EndSplineSet
Ligature2: "'liga' Standard Ligatures lookup 0-1" f f
LCarets2: 1 0 
EndChar
